{
.formatVersion = 3;
DisplayStrings = (
"/uni1362.vs17 ።"
);
familyName = "ዋልድባ - ህዋእ";
customParameters = (
{
name = glyphOrder;
value = (
.notdef,
NULL,
CR,
space,
exclam,
quotedbl,
numbersign,
dollar,
percent,
ampersand,
quotesingle,
parenleft,
parenright,
asterisk,
plus,
comma,
hyphen,
period,
slash,
zero,
one,
two,
three,
four,
five,
six,
seven,
eight,
nine,
colon,
semicolon,
less,
equal,
greater,
question,
at,
A,
B,
C,
D,
E,
F,
G,
H,
I,
J,
K,
L,
M,
N,
O,
P,
Q,
R,
S,
T,
U,
V,
W,
X,
Y,
Z,
bracketleft,
backslash,
bracketright,
asciicircum,
underscore,
grave,
a,
b,
c,
d,
e,
f,
g,
h,
i,
j,
k,
l,
m,
n,
o,
p,
q,
r,
s,
t,
u,
v,
w,
x,
y,
z,
braceleft,
bar,
braceright,
asciitilde,
exclamdown,
cent,
sterling,
currency,
yen,
brokenbar,
section,
dieresis,
copyright,
ordfeminine,
guillemotleft,
logicalnot,
FL00ADh,
registered,
macron,
degree,
plusminus,
twosuperior,
threesuperior,
acute,
mu,
paragraph,
periodcentered,
cedilla,
onesuperior,
ordmasculine,
guillemotright,
onequarter,
onehalf,
threequarters,
questiondown,
Agrave,
Aacute,
Acircumflex,
Atilde,
Adieresis,
Aring,
AE,
Ccedilla,
Egrave,
Eacute,
Ecircumflex,
Edieresis,
Igrave,
Iacute,
Icircumflex,
Idieresis,
Eth,
Ntilde,
Ograve,
Oacute,
Ocircumflex,
Otilde,
Odieresis,
multiply,
Oslash,
Ugrave,
Uacute,
Ucircumflex,
Udieresis,
Yacute,
Thorn,
germandbls,
agrave,
aacute,
acircumflex,
atilde,
adieresis,
aring,
ae,
ccedilla,
egrave,
eacute,
ecircumflex,
edieresis,
igrave,
iacute,
icircumflex,
idieresis,
eth,
ntilde,
ograve,
oacute,
ocircumflex,
otilde,
odieresis,
divide,
oslash,
ugrave,
uacute,
ucircumflex,
udieresis,
yacute,
thorn,
ydieresis,
OE,
oe,
Scaron,
scaron,
Ydieresis,
Zcaron,
zcaron,
florin,
circumflex,
tilde,
uni1200,
uni1201,
uni1202,
uni1203,
uni1204,
uni1205,
uni1206,
uni1208,
uni1209,
uni120A,
uni120B,
uni120C,
uni120D,
uni120E,
uni120F,
uni1210,
uni1211,
uni1212,
uni1213,
uni1214,
uni1215,
uni1216,
Uni1217,
uni1218,
uni1219,
uni121A,
uni121B,
uni121C,
uni121D,
uni121E,
uni121F,
uni1220,
uni1221,
uni1222,

glyphs = (
{
glyphname = exclam;
layers = (
{
layerId = "AAC8411B-1049-4A7C-8FB8-170842CEFBED";
shapes = (
{
closed = 1;
nodes = (
(637,444,l),
(596,1314,l),
(787,1314,l),
(744,444,l)
);
},
{
closed = 1;
nodes = (
(760,244,o),
(850,161,o),
(850,101,qs),
(850,42,o),
(758,-39,o),
(690,-39,qs),
(624,-39,o),
(532,44,o),
(532,103,qs),
(532,163,o),
(624,244,o),
(690,244,qs)
);
}
);
width = 1381;
}
);
unicode = 33;
},
{
glyphname = quotedbl;
layers = (
{
layerId = "AAC8411B-1049-4A7C-8FB8-170842CEFBED";
shapes = (
{
closed = 1;
nodes = (
(558,650,l),
(387,650,l),
(362,1296,l),
(580,1296,l)
);
},
{
closed = 1;
nodes = (
(995,650,l),
(824,650,l),
(801,1296,l),
(1019,1296,l)
);
}
);
width = 1381;
}
);
unicode = 34;
},
{
glyphname = numbersign;
layers = (
{
layerId = "AAC8411B-1049-4A7C-8FB8-170842CEFBED";
shapes = (
{
closed = 1;
nodes = (
(543,1045,l),
(877,1045,l),
(905,1517,l),
(1013,1517,l),
(986,1045,l),
(1202,1045,l),
(1202,896,l),
(978,896,l),
(955,511,l),
(1202,511,l),
(1202,362,l),
(949,362,l),
(921,-132,l),
(813,-132,l),
(841,362,l),
(505,362,l),
(479,-132,l),
(371,-132,l),
(396,362,l),
(180,362,l),
(180,511,l),
(405,511,l),
(428,896,l),
(180,896,l),
(180,1045,l),
(435,1045,l),
(463,1517,l),
(571,1517,l)
);
},
{
closed = 1;
nodes = (
(514,511,l),
(847,511,l),
(870,896,l),
(536,896,l)
);
}
);
width = 1381;
}
);
unicode = 35;
},
{
glyphname = dollar;
layers = (
{
layerId = "AAC8411B-1049-4A7C-8FB8-170842CEFBED";
shapes = (
{
closed = 1;
nodes = (
(1096,1259,l),
(1094,1236,o),
(1091,1184,o),
(1091,1149,qs),
(1091,1039,o),
(1109,870,o),
(1116,813,q),
(1010,801,l),
(995,914,o),
(930,1050,o),
(854,1123,o),
(773,1151,o),
(741,1158,q),
(741,688,l),
(813,668,o),
(953,622,o),
(1063,550,o),
(1131,439,o),
(1131,356,qs),
(1131,283,o),
(1070,171,o),
(964,88,o),
(822,39,o),
(741,33,q),
(741,-314,l),
(631,-314,l),
(631,33,l),
(613,33,o),
(582,35,o),
(541,46,o),
(483,62,o),
(439,76,q),
(415,85,o),
(393,88,o),
(389,88,qs),
(366,88,o),
(359,60,o),
(356,20,q),
(248,20,l),
(255,147,o),
(242,352,o),
(226,468,q),
(334,468,l),
(341,428,o),
(369,325,o),
(430,228,o),
(541,154,o),
(631,143,q),
(631,601,l),
(573,617,o),
(444,659,o),
(336,732,o),
(265,847,o),
(265,937,qs),
(265,1082,o),
(465,1257,o),
(631,1270,q),
(631,1510,l),
(741,1510,l),
(741,1270,l),
(819,1259,o),
(900,1222,qs),
(930,1208,o),
(946,1202,o),
(955,1202,qs),
(973,1202,o),
(982,1225,o),
(988,1259,q)
);
},
{
closed = 1;
nodes = (
(631,1160,l),
(604,1155,o),
(520,1137,o),
(442,1089,o),
(384,1008,o),
(384,942,qs),
(384,886,o),
(428,815,o),
(497,767,o),
(584,734,o),
(631,720,q)
);
},
{
closed = 1;
nodes = (
(741,143,l),
(778,145,o),
(870,165,o),
(953,214,o),
(1010,294,o),
(1010,354,qs),
(1010,407,o),
(962,479,o),
(886,527,o),
(789,560,o),
(741,573,q)
);
}
);
width = 1381;
}
);
unicode = 36;
},
{
glyphname = percent;
layers = (
{
layerId = "AAC8411B-1049-4A7C-8FB8-170842CEFBED";
shapes = (
{
closed = 1;
nodes = (
(1004,582,o),
(1125,527,o),
(1208,437,o),
(1250,327,o),
(1250,274,qs),
(1250,219,o),
(1206,110,o),
(1123,22,o),
(1001,-33,o),
(923,-33,qs),
(843,-33,o),
(723,22,o),
(640,112,o),
(598,221,o),
(598,274,qs),
(598,325,o),
(640,435,o),
(720,525,o),
(843,582,o),
(923,582,qs)
);
},
{
closed = 1;
nodes = (
(874,474,o),
(801,439,o),
(751,384,o),
(723,314,o),
(723,277,qs),
(723,198,o),
(826,76,o),
(923,76,qs),
(971,76,o),
(1048,110,o),
(1100,169,o),
(1125,239,o),
(1125,277,qs),
(1125,310,o),
(1100,382,o),
(1050,439,o),
(973,474,o),
(923,474,qs)
);
},
{
closed = 1;
nodes = (
(507,1413,o),
(628,1358,o),
(711,1268,o),
(755,1160,o),
(755,1105,qs),
(755,1050,o),
(711,940,o),
(628,852,o),
(507,799,o),
(428,799,qs),
(352,799,o),
(230,854,o),
(147,940,o),
(103,1050,o),
(103,1105,qs),
(103,1158,o),
(145,1268,o),
(228,1358,o),
(347,1413,o),
(428,1413,qs)
);
},
{
closed = 1;
nodes = (
(380,1305,o),
(303,1270,o),
(253,1213,o),
(228,1142,o),
(228,1105,qs),
(228,1068,o),
(255,997,o),
(306,942,o),
(382,907,o),
(430,907,qs),
(527,907,o),
(631,1026,o),
(631,1105,qs),
(631,1181,o),
(527,1305,o),
(430,1305,qs)
);
},
{
closed = 1;
nodes = (
(246,444,l),
(200,553,l),
(1135,967,l),
(1181,859,l)
);
}
);
width = 1381;
}
);
unicode = 37;
},
{
glyphname = ampersand;
layers = (
{
layerId = "AAC8411B-1049-4A7C-8FB8-170842CEFBED";
shapes = (
{
closed = 1;
nodes = (
(1217,536,l),
(1080,536,l),
(1039,415,o),
(978,288,o),
(960,255,q),
(1061,108,l),
(1234,108,l),
(1234,0,l),
(971,0,l),
(877,138,l),
(856,117,o),
(801,62,o),
(723,13,o),
(622,-18,o),
(560,-18,qs),
(479,-18,o),
(354,39,o),
(270,136,o),
(226,255,o),
(226,318,qs),
(226,435,o),
(369,642,o),
(499,690,q),
(499,698,o),
(490,707,q),
(451,764,o),
(402,837,o),
(375,898,o),
(366,949,o),
(366,980,qs),
(366,1094,o),
(525,1243,o),
(663,1243,qs),
(714,1243,o),
(801,1222,o),
(845,1204,q),
(894,1186,o),
(925,1179,o),
(940,1179,qs),
(967,1179,o),
(1010,1193,o),
(1024,1197,q),
(918,1032,l),
(874,1063,o),
(751,1133,o),
(663,1133,qs),
(615,1133,o),
(553,1105,o),
(516,1061,o),
(501,1010,o),
(501,990,qs),
(501,949,o),
(547,868,o),
(591,804,qs),
(891,359,l),
(912,402,o),
(937,459,o),
(958,514,o),
(980,584,o),
(999,644,q),
(1217,644,l)
);
},
{
closed = 1;
nodes = (
(562,608,l),
(529,593,o),
(465,547,o),
(413,483,o),
(378,398,o),
(378,345,qs),
(378,303,o),
(400,217,o),
(453,145,o),
(532,101,o),
(587,101,qs),
(631,101,o),
(705,129,o),
(760,171,o),
(801,214,o),
(815,230,q)
);
}
);
width = 1381;
}
);
unicode = 38;
},
{
glyphname = quotesingle;
layers = (
{
layerId = "AAC8411B-1049-4A7C-8FB8-170842CEFBED";
shapes = (
{
closed = 1;
nodes = (
(776,646,l),
(604,646,l),
(560,1296,l),
(822,1296,l)
);
}
);
width = 1381;
}
);
unicode = 39;
},
{
glyphname = parenleft;
layers = (
{
layerId = "AAC8411B-1049-4A7C-8FB8-170842CEFBED";
shapes = (
{
closed = 1;
nodes = (
(1066,1494,l),
(1028,1423,o),
(937,1236,o),
(854,1015,o),
(799,767,o),
(799,635,qs),
(799,505,o),
(854,255,o),
(937,35,o),
(1028,-152,o),
(1066,-221,q),
(949,-221,l),
(883,-125,o),
(778,97,o),
(703,323,o),
(661,541,o),
(661,635,qs),
(661,727,o),
(700,946,o),
(776,1171,o),
(881,1395,o),
(949,1494,q)
);
}
);
width = 1381;
}
);
unicode = 40;
},
{
glyphname = parenright;
layers = (
{
layerId = "AAC8411B-1049-4A7C-8FB8-170842CEFBED";
shapes = (
{
closed = 1;
nodes = (
(316,-221,l),
(350,-158,o),
(442,26,o),
(527,248,o),
(584,501,o),
(584,635,qs),
(584,769,o),
(527,1019,o),
(442,1241,o),
(350,1427,o),
(316,1494,q),
(435,1494,l),
(507,1384,o),
(615,1155,o),
(686,932,o),
(723,725,o),
(723,635,qs),
(723,541,o),
(683,327,o),
(610,103,o),
(501,-119,o),
(435,-221,q)
);
}
);
width = 1381;
}
);
unicode = 41;
},
{
glyphname = asterisk;
layers = (
{
layerId = "AAC8411B-1049-4A7C-8FB8-170842CEFBED";
shapes = (
{
closed = 1;
nodes = (
(755,958,l),
(1077,1075,l),
(1125,927,l),
(795,835,l),
(1008,569,l),
(881,474,l),
(690,762,l),
(499,474,l),
(373,569,l),
(587,835,l),
(255,927,l),
(303,1075,l),
(626,958,l),
(613,1296,l),
(769,1296,l)
);
}
);
width = 1381;
}
);
unicode = 42;
},
{
glyphname = plus;
layers = (
{
layerId = "AAC8411B-1049-4A7C-8FB8-170842CEFBED";
shapes = (
{
closed = 1;
nodes = (
(749,755,l),
(1230,755,l),
(1230,640,l),
(749,640,l),
(749,169,l),
(633,169,l),
(633,640,l),
(152,640,l),
(152,755,l),
(633,755,l),
(633,1227,l),
(749,1227,l)
);
}
);
width = 1381;
}
);
unicode = 43;
},
{
glyphname = comma;
layers = (
{
layerId = "AAC8411B-1049-4A7C-8FB8-170842CEFBED";
shapes = (
{
closed = 1;
nodes = (
(571,-251,l),
(407,-251,l),
(582,306,l),
(822,306,l)
);
}
);
width = 1381;
}
);
unicode = 44;
},
{
glyphname = hyphen;
layers = (
{
layerId = "AAC8411B-1049-4A7C-8FB8-170842CEFBED";
shapes = (
{
closed = 1;
nodes = (
(446,729,l),
(934,729,l),
(934,604,l),
(446,604,l)
);
}
);
width = 1381;
}
);
unicode = 45;
},
{
glyphname = period;
layers = (
{
layerId = "AAC8411B-1049-4A7C-8FB8-170842CEFBED";
shapes = (
{
closed = 1;
nodes = (
(725,274,o),
(787,251,o),
(837,209,o),
(868,152,o),
(868,117,qs),
(868,81,o),
(835,22,o),
(785,-18,o),
(720,-39,o),
(690,-39,qs),
(661,-39,o),
(598,-18,o),
(545,20,o),
(514,79,o),
(514,117,qs),
(514,154,o),
(545,211,o),
(596,253,o),
(659,274,o),
(690,274,qs)
);
}
);
width = 1381;
}
);
unicode = 46;
},
{
glyphname = slash;
layers = (
{
layerId = "AAC8411B-1049-4A7C-8FB8-170842CEFBED";
shapes = (
{
closed = 1;
nodes = (
(308,-306,l),
(209,-260,l),
(1072,1616,l),
(1171,1575,l)
);
}
);
width = 1381;
}
);
unicode = 47;
},
{
glyphname = zero;
layers = (
{
layerId = "AAC8411B-1049-4A7C-8FB8-170842CEFBED";
shapes = (
{
closed = 1;
nodes = (
(831,1430,o),
(1004,1285,o),
(1096,1066,o),
(1128,810,o),
(1128,698,qs),
(1128,584,o),
(1096,329,o),
(1004,110,o),
(831,-33,o),
(690,-33,qs),
(550,-33,o),
(378,112,o),
(285,329,o),
(253,587,o),
(253,698,qs),
(253,810,o),
(285,1066,o),
(378,1285,o),
(550,1430,o),
(690,1430,qs)
);
},
{
closed = 1;
nodes = (
(587,1326,o),
(463,1197,o),
(396,1008,o),
(375,789,o),
(375,700,qs),
(375,608,o),
(396,389,o),
(463,198,o),
(587,71,o),
(688,71,qs),
(792,71,o),
(916,200,o),
(986,389,o),
(1006,610,o),
(1006,700,qs),
(1006,792,o),
(986,1010,o),
(918,1199,o),
(795,1326,o),
(690,1326,qs)
);
}
);
width = 1381;
}
);
unicode = 48;
},
{
glyphname = one;
layers = (
{
layerId = "AAC8411B-1049-4A7C-8FB8-170842CEFBED";
shapes = (
{
closed = 1;
nodes = (
(769,1430,l),
(769,108,l),
(1162,108,l),
(1162,0,l),
(253,0,l),
(253,108,l),
(654,108,l),
(654,1296,l),
(285,1125,l),
(239,1227,l),
(695,1430,l)
);
}
);
width = 1381;
}
);
unicode = 49;
},
{
glyphname = two;
layers = (
{
layerId = "AAC8411B-1049-4A7C-8FB8-170842CEFBED";
shapes = (
{
closed = 1;
nodes = (
(1087,0,l),
(189,0,l),
(189,123,l),
(226,154,o),
(382,292,o),
(569,461,o),
(760,637,o),
(828,709,q),
(912,792,o),
(964,927,o),
(964,1008,qs),
(964,1091,o),
(898,1206,o),
(801,1280,o),
(690,1314,o),
(646,1314,qs),
(615,1314,o),
(514,1294,o),
(417,1239,o),
(350,1146,o),
(354,1075,q),
(235,1075,l),
(235,1225,l),
(299,1300,o),
(435,1386,o),
(553,1423,o),
(637,1430,o),
(652,1430,qs),
(732,1430,o),
(889,1370,o),
(1013,1259,o),
(1089,1100,o),
(1089,1004,qs),
(1089,930,o),
(1052,815,o),
(1010,749,qs),
(982,705,o),
(854,564,o),
(674,393,o),
(459,205,o),
(343,112,q),
(343,108,l),
(978,108,l),
(978,336,l),
(1087,336,l)
);
}
);
width = 1381;
}
);
unicode = 50;
},
{
glyphname = three;
layers = (
{
layerId = "AAC8411B-1049-4A7C-8FB8-170842CEFBED";
shapes = (
{
closed = 1;
nodes = (
(237,182,l),
(325,141,o),
(523,76,o),
(619,76,qs),
(681,76,o),
(804,115,o),
(900,196,o),
(958,314,o),
(958,389,qs),
(958,470,o),
(903,575,o),
(835,637,o),
(773,665,o),
(767,668,q),
(707,688,o),
(598,692,o),
(543,688,q),
(543,797,l),
(593,797,o),
(711,810,o),
(764,845,qs),
(822,883,o),
(883,1004,o),
(883,1070,qs),
(883,1188,o),
(727,1322,o),
(610,1322,qs),
(520,1322,o),
(373,1245,o),
(320,1213,qs),
(279,1188,l),
(221,1278,l),
(318,1340,o),
(501,1430,o),
(613,1430,qs),
(686,1430,o),
(826,1381,o),
(937,1289,o),
(1004,1158,o),
(1004,1072,qs),
(1004,997,o),
(960,886,o),
(900,810,o),
(841,769,o),
(826,760,q),
(863,746,o),
(949,686,o),
(1024,596,o),
(1075,472,o),
(1075,393,qs),
(1075,297,o),
(1004,138,o),
(877,28,o),
(709,-33,o),
(613,-33,qs),
(560,-33,o),
(470,-18,o),
(375,11,o),
(265,53,o),
(193,81,q)
);
}
);
width = 1381;
}
);
unicode = 51;
},
{
glyphname = four;
layers = (
{
layerId = "AAC8411B-1049-4A7C-8FB8-170842CEFBED";
shapes = (
{
closed = 1;
nodes = (
(1105,446,l),
(1105,336,l),
(898,336,l),
(898,108,l),
(1105,108,l),
(1105,0,l),
(477,0,l),
(477,108,l),
(787,108,l),
(787,336,l),
(171,336,l),
(171,470,l),
(741,1430,l),
(898,1430,l),
(898,446,l)
);
},
{
closed = 1;
nodes = (
(787,1296,l),
(782,1296,l),
(283,446,l),
(787,446,l)
);
}
);
width = 1381;
}
);
unicode = 52;
},
{
glyphname = five;
layers = (
{
layerId = "AAC8411B-1049-4A7C-8FB8-170842CEFBED";
shapes = (
{
closed = 1;
nodes = (
(1059,1285,l),
(393,1285,l),
(393,819,l),
(446,843,o),
(580,883,o),
(672,883,qs),
(776,883,o),
(944,813,o),
(1061,690,o),
(1125,525,o),
(1125,433,qs),
(1125,364,o),
(1080,200,o),
(967,62,o),
(780,-33,o),
(642,-33,qs),
(520,-33,o),
(325,26,o),
(209,71,q),
(251,175,l),
(279,163,o),
(359,132,o),
(459,103,o),
(573,83,o),
(633,83,qs),
(727,83,o),
(865,136,o),
(958,230,o),
(1001,354,o),
(1001,428,qs),
(1001,497,o),
(955,624,o),
(865,720,o),
(736,776,o),
(654,776,qs),
(566,776,o),
(419,718,o),
(347,665,q),
(290,698,l),
(290,1395,l),
(1059,1395,l)
);
}
);
width = 1381;
}
);
unicode = 53;
},
{
glyphname = six;
layers = (
{
layerId = "AAC8411B-1049-4A7C-8FB8-170842CEFBED";
shapes = (
{
closed = 1;
nodes = (
(1118,1314,l),
(990,1322,o),
(741,1303,o),
(534,1184,o),
(389,921,o),
(364,683,q),
(369,679,l),
(382,695,o),
(435,755,o),
(518,810,o),
(628,852,o),
(703,852,qs),
(792,852,o),
(942,778,o),
(1048,654,o),
(1105,492,o),
(1105,405,qs),
(1105,318,o),
(1045,158,o),
(937,39,o),
(787,-33,o),
(698,-33,qs),
(628,-33,o),
(465,28,o),
(327,173,o),
(235,415,o),
(235,598,qs),
(235,654,o),
(257,870,o),
(343,1112,o),
(518,1331,o),
(670,1386,qs),
(695,1395,o),
(767,1413,o),
(870,1427,o),
(1017,1434,o),
(1118,1430,q)
);
},
{
closed = 1;
nodes = (
(371,369,o),
(444,211,o),
(543,119,o),
(654,83,o),
(698,83,qs),
(753,83,o),
(854,127,o),
(934,209,o),
(980,329,o),
(980,405,qs),
(980,470,o),
(940,591,o),
(868,681,o),
(764,736,o),
(703,736,qs),
(683,736,o),
(601,725,o),
(501,677,o),
(400,578,o),
(364,488,q)
);
}
);
width = 1381;
}
);
unicode = 54;
},
{
glyphname = seven;
layers = (
{
layerId = "AAC8411B-1049-4A7C-8FB8-170842CEFBED";
shapes = (
{
closed = 1;
nodes = (
(1123,1287,l),
(677,0,l),
(543,0,l),
(1008,1287,l),
(332,1287,l),
(332,1075,l),
(219,1075,l),
(219,1395,l),
(1123,1395,l)
);
}
);
width = 1381;
}
);
unicode = 55;
},
{
glyphname = eight;
layers = (
{
layerId = "AAC8411B-1049-4A7C-8FB8-170842CEFBED";
shapes = (
{
closed = 1;
nodes = (
(456,723,o),
(384,778,o),
(320,863,o),
(272,978,o),
(272,1052,qs),
(272,1131,o),
(336,1266,o),
(448,1370,o),
(601,1430,o),
(690,1430,qs),
(780,1430,o),
(932,1370,o),
(1045,1266,o),
(1109,1131,o),
(1109,1052,qs),
(1109,960,o),
(1010,771,o),
(903,711,q),
(964,683,o),
(1052,601,o),
(1109,507,o),
(1135,407,o),
(1135,364,qs),
(1135,299,o),
(1082,158,o),
(971,44,o),
(804,-33,o),
(690,-33,qs),
(575,-33,o),
(410,44,o),
(299,158,o),
(246,299,o),
(246,364,qs),
(246,472,o),
(375,665,o),
(479,711,q)
);
},
{
closed = 1;
nodes = (
(610,1322,o),
(497,1268,o),
(428,1186,o),
(396,1091,o),
(396,1050,qs),
(396,997,o),
(437,896,o),
(514,815,o),
(624,764,o),
(690,764,qs),
(746,764,o),
(852,804,o),
(934,879,o),
(986,982,o),
(986,1050,qs),
(986,1118,o),
(932,1220,o),
(850,1287,o),
(744,1322,o),
(690,1322,qs)
);
},
{
closed = 1;
nodes = (
(610,656,o),
(490,604,o),
(410,518,o),
(371,415,o),
(371,364,qs),
(371,306,o),
(419,202,o),
(507,123,o),
(622,76,o),
(690,76,qs),
(760,76,o),
(874,123,o),
(962,202,o),
(1010,306,o),
(1010,364,qs),
(1010,415,o),
(969,520,o),
(889,604,o),
(769,656,o),
(690,656,qs)
);
}
);
width = 1381;
}
);
unicode = 56;
},
{
glyphname = nine;
layers = (
{
layerId = "AAC8411B-1049-4A7C-8FB8-170842CEFBED";
shapes = (
{
closed = 1;
nodes = (
(187,83,l),
(318,76,o),
(564,94,o),
(769,214,o),
(914,477,o),
(942,714,q),
(937,718,l),
(923,700,o),
(870,642,o),
(787,587,o),
(674,545,o),
(604,545,qs),
(514,545,o),
(364,619,o),
(257,744,o),
(200,905,o),
(200,992,qs),
(200,1080,o),
(260,1239,o),
(369,1358,o),
(518,1430,o),
(608,1430,qs),
(677,1430,o),
(841,1370,o),
(978,1225,o),
(1070,980,o),
(1070,799,qs),
(1070,744,o),
(1048,527,o),
(962,285,o),
(787,66,o),
(635,11,qs),
(610,2,o),
(538,-18,o),
(435,-33,o),
(288,-37,o),
(187,-33,q)
);
},
{
closed = 1;
nodes = (
(934,1028,o),
(861,1186,o),
(762,1278,o),
(652,1314,o),
(608,1314,qs),
(553,1314,o),
(451,1270,o),
(371,1188,o),
(325,1068,o),
(325,992,qs),
(325,925,o),
(366,806,o),
(437,716,o),
(541,661,o),
(604,661,qs),
(619,661,o),
(703,670,o),
(804,718,o),
(905,819,o),
(942,909,q)
);
}
);
width = 1381;
}
);
unicode = 57;
},
{
glyphname = colon;
layers = (
{
layerId = "AAC8411B-1049-4A7C-8FB8-170842CEFBED";
shapes = (
{
closed = 1;
nodes = (
(720,898,o),
(785,877,o),
(835,835,o),
(868,778,o),
(868,741,qs),
(868,705,o),
(835,646,o),
(785,606,o),
(720,584,o),
(690,584,qs),
(661,584,o),
(598,606,o),
(545,644,o),
(514,703,o),
(514,741,qs),
(514,778,o),
(545,835,o),
(596,877,o),
(659,898,o),
(690,898,qs)
);
},
{
closed = 1;
nodes = (
(720,274,o),
(785,253,o),
(835,211,o),
(868,154,o),
(868,117,qs),
(868,81,o),
(835,22,o),
(785,-18,o),
(720,-39,o),
(690,-39,qs),
(661,-39,o),
(598,-18,o),
(545,20,o),
(514,79,o),
(514,117,qs),
(514,154,o),
(545,211,o),
(596,253,o),
(659,274,o),
(690,274,qs)
);
}
);
width = 1381;
}
);
unicode = 58;
},
{
glyphname = semicolon;
layers = (
{
layerId = "AAC8411B-1049-4A7C-8FB8-170842CEFBED";
shapes = (
{
closed = 1;
nodes = (
(580,-248,l),
(417,-248,l),
(593,308,l),
(831,308,l)
);
},
{
closed = 1;
nodes = (
(720,898,o),
(785,877,o),
(835,835,o),
(868,778,o),
(868,741,qs),
(868,705,o),
(835,646,o),
(785,606,o),
(720,584,o),
(690,584,qs),
(661,584,o),
(598,606,o),
(545,644,o),
(514,703,o),
(514,741,qs),
(514,778,o),
(545,835,o),
(596,877,o),
(659,898,o),
(690,898,qs)
);
}
);
width = 1381;
}
);
unicode = 59;
},
{
glyphname = less;
layers = (
{
layerId = "AAC8411B-1049-4A7C-8FB8-170842CEFBED";
shapes = (
{
closed = 1;
nodes = (
(1211,1225,l),
(1257,1121,l),
(380,709,l),
(1257,306,l),
(1211,205,l),
(125,709,l)
);
}
);
width = 1381;
}
);
unicode = 60;
},
{
glyphname = equal;
layers = (
{
layerId = "AAC8411B-1049-4A7C-8FB8-170842CEFBED";
shapes = (
{
closed = 1;
nodes = (
(1234,850,l),
(147,850,l),
(147,964,l),
(1234,964,l)
);
},
{
closed = 1;
nodes = (
(1234,433,l),
(147,433,l),
(147,547,l),
(1234,547,l)
);
}
);
width = 1381;
}
);
unicode = 61;
},
{
glyphname = greater;
layers = (
{
layerId = "AAC8411B-1049-4A7C-8FB8-170842CEFBED";
shapes = (
{
closed = 1;
nodes = (
(171,193,l),
(125,297,l),
(1001,709,l),
(125,1112,l),
(171,1213,l),
(1257,709,l)
);
}
);
width = 1381;
}
);
unicode = 62;
},
{
glyphname = question;
layers = (
{
layerId = "AAC8411B-1049-4A7C-8FB8-170842CEFBED";
shapes = (
{
closed = 1;
nodes = (
(277,1236,l),
(336,1257,o),
(430,1287,o),
(516,1307,o),
(601,1316,o),
(650,1316,qs),
(760,1316,o),
(925,1252,o),
(1036,1149,o),
(1091,1010,o),
(1091,940,qs),
(1091,837,o),
(1004,703,o),
(877,615,o),
(732,564,o),
(674,547,q),
(674,410,l),
(562,410,l),
(562,633,l),
(566,635,o),
(596,642,o),
(608,644,q),
(665,659,o),
(795,698,o),
(900,764,o),
(971,868,o),
(971,946,qs),
(971,980,o),
(944,1070,o),
(872,1151,o),
(749,1204,o),
(652,1204,qs),
(566,1204,o),
(448,1171,o),
(391,1149,q),
(391,1001,l),
(277,1001,l)
);
},
{
closed = 1;
nodes = (
(679,244,o),
(771,163,o),
(771,103,qs),
(771,42,o),
(677,-39,o),
(613,-39,qs),
(547,-39,o),
(453,42,o),
(453,103,qs),
(453,163,o),
(545,244,o),
(613,244,qs)
);
}
);
width = 1381;
}
);
unicode = 63;
},
{
glyphname = at;
layers = (
{
layerId = "AAC8411B-1049-4A7C-8FB8-170842CEFBED";
shapes = (
{
closed = 1;
nodes = (
(1227,132,l),
(1225,132,o),
(1215,125,o),
(1213,125,q),
(1096,57,o),
(815,-33,o),
(663,-33,qs),
(511,-33,o),
(290,74,o),
(145,248,o),
(74,477,o),
(74,598,qs),
(74,736,o),
(158,976,o),
(320,1153,o),
(560,1257,o),
(711,1257,qs),
(837,1257,o),
(1054,1181,o),
(1213,1034,o),
(1305,819,o),
(1305,683,qs),
(1305,587,o),
(1257,424,o),
(1167,308,o),
(1045,244,o),
(971,244,qs),
(946,244,o),
(916,248,o),
(886,265,o),
(847,292,o),
(815,316,qs),
(797,329,o),
(789,350,o),
(789,362,q),
(776,345,o),
(736,303,o),
(681,265,o),
(613,239,o),
(571,239,qs),
(550,239,o),
(488,260,o),
(430,310,o),
(391,402,o),
(391,472,qs),
(391,547,o),
(444,711,o),
(536,845,o),
(659,930,o),
(729,930,qs),
(787,930,o),
(845,863,o),
(861,837,q),
(881,918,l),
(1001,918,l),
(903,560,l),
(903,550,o),
(879,472,o),
(879,444,qs),
(879,419,o),
(932,352,o),
(986,352,qs),
(1028,352,o),
(1105,407,o),
(1162,501,o),
(1195,626,o),
(1195,698,qs),
(1195,810,o),
(1118,980,o),
(986,1094,o),
(808,1149,o),
(707,1149,qs),
(569,1149,o),
(375,1052,o),
(251,898,o),
(193,700,o),
(193,596,qs),
(193,505,o),
(244,320,o),
(356,171,o),
(538,76,o),
(670,76,qs),
(815,76,o),
(1048,158,o),
(1128,202,qs),
(1162,221,l),
(1164,221,o),
(1177,228,o),
(1179,228,q)
);
},
{
closed = 1;
nodes = (
(626,352,o),
(705,424,o),
(764,527,o),
(799,650,o),
(799,700,qs),
(799,753,o),
(749,815,o),
(716,815,qs),
(677,815,o),
(601,744,o),
(543,637,o),
(509,514,o),
(509,463,qs),
(509,446,o),
(516,410,o),
(534,375,o),
(562,352,o),
(582,352,qs)
);
}
);
width = 1381;
}
);
unicode = 64;
},
{
glyphname = A;
layers = (
{
layerId = "AAC8411B-1049-4A7C-8FB8-170842CEFBED";
shapes = (
{
closed = 1;
nodes = (
(1241,108,l),
(1358,108,l),
(1358,0,l),
(886,0,l),
(886,108,l),
(1121,108,l),
(990,428,l),
(389,428,l),
(260,108,l),
(495,108,l),
(495,0,l),
(22,0,l),
(22,108,l),
(145,108,l),
(589,1188,l),
(260,1188,l),
(260,1296,l),
(755,1296,l)
);
},
{
closed = 1;
nodes = (
(430,529,l),
(951,529,l),
(690,1160,l)
);
}
);
width = 1381;
}
);
unicode = 65;
},
{
glyphname = B;
layers = (
{
layerId = "AAC8411B-1049-4A7C-8FB8-170842CEFBED";
shapes = (
{
closed = 1;
nodes = (
(732,1296,ls),
(868,1296,o),
(1015,1243,o),
(1112,1155,o),
(1171,1036,o),
(1171,962,qs),
(1171,900,o),
(1133,804,o),
(1075,734,o),
(1013,688,o),
(990,677,q),
(1114,640,o),
(1252,479,o),
(1252,354,qs),
(1252,257,o),
(1162,103,o),
(1089,64,qs),
(1052,44,o),
(982,18,o),
(898,4,o),
(789,0,o),
(711,0,qs),
(103,0,l),
(103,108,l),
(294,108,l),
(294,1188,l),
(103,1188,l),
(103,1296,l)
);
},
{
closed = 1;
nodes = (
(410,727,l),
(716,727,ls),
(828,727,o),
(962,782,o),
(1032,859,o),
(1052,940,o),
(1052,967,qs),
(1052,1050,o),
(964,1140,o),
(852,1181,o),
(746,1188,o),
(727,1188,qs),
(410,1188,l)
);
},
{
closed = 1;
nodes = (
(410,108,l),
(707,108,ls),
(769,108,o),
(916,115,o),
(1045,161,o),
(1133,260,o),
(1133,354,qs),
(1133,426,o),
(1066,527,o),
(951,589,o),
(789,619,o),
(698,619,qs),
(410,619,l)
);
}
);
width = 1381;
}
);
unicode = 66;
},
{
glyphname = C;
layers = (
{
layerId = "AAC8411B-1049-4A7C-8FB8-170842CEFBED";
shapes = (
{
closed = 1;
nodes = (
(1368,228,l),
(1270,136,o),
(1087,30,o),
(927,-26,o),
(804,-39,o),
(769,-39,qs),
(617,-39,o),
(384,74,o),
(228,268,o),
(147,520,o),
(147,663,qs),
(147,813,o),
(242,1061,o),
(407,1239,o),
(633,1335,o),
(764,1335,qs),
(833,1335,o),
(937,1309,o),
(1010,1276,o),
(1052,1243,o),
(1059,1236,q),
(1082,1217,o),
(1094,1211,o),
(1098,1211,qs),
(1105,1211,o),
(1116,1234,o),
(1123,1268,o),
(1131,1305,o),
(1133,1322,q),
(1217,1322,l),
(1213,1177,o),
(1230,973,o),
(1241,881,q),
(1133,863,l),
(1125,903,o),
(1096,1024,o),
(1057,1085,q),
(1024,1133,o),
(886,1220,o),
(760,1220,qs),
(644,1220,o),
(465,1133,o),
(338,980,o),
(272,778,o),
(272,665,qs),
(272,578,o),
(316,373,o),
(428,196,o),
(619,76,o),
(769,76,qs),
(925,76,o),
(1179,211,o),
(1291,310,q)
);
}
);
width = 1381;
}
);
unicode = 67;
},
{
glyphname = D;
layers = (
{
layerId = "AAC8411B-1049-4A7C-8FB8-170842CEFBED";
shapes = (
{
closed = 1;
nodes = (
(654,1296,ls),
(729,1296,o),
(861,1285,o),
(973,1250,o),
(1077,1181,o),
(1125,1123,qs),
(1177,1061,o),
(1234,927,o),
(1261,804,o),
(1268,703,o),
(1268,672,qs),
(1268,569,o),
(1236,400,o),
(1184,270,o),
(1114,169,o),
(1077,134,qs),
(1024,83,o),
(900,30,o),
(780,4,o),
(677,0,o),
(644,0,qs),
(79,0,l),
(79,108,l),
(260,108,l),
(260,1188,l),
(79,1188,l),
(79,1296,l)
);
},
{
closed = 1;
nodes = (
(375,108,l),
(644,108,ls),
(674,108,o),
(758,110,o),
(852,132,o),
(949,175,o),
(990,217,qs),
(1052,279,o),
(1144,507,o),
(1144,665,q),
(1142,773,o),
(1103,925,o),
(1048,1032,o),
(986,1096,o),
(960,1116,qs),
(900,1162,o),
(755,1188,o),
(656,1188,qs),
(375,1188,l)
);
}
);
width = 1381;
}
);
unicode = 68;
},
{
glyphname = E;
layers = (
{
layerId = "AAC8411B-1049-4A7C-8FB8-170842CEFBED";
shapes = (
{
closed = 1;
nodes = (
(1234,872,l),
(1128,872,l),
(1105,1188,l),
(442,1188,l),
(442,738,l),
(815,738,l),
(815,907,l),
(921,907,l),
(921,465,l),
(815,465,l),
(815,631,l),
(442,631,l),
(442,108,l),
(1128,108,l),
(1140,424,l),
(1245,424,l),
(1245,0,l),
(132,0,l),
(132,108,l),
(327,108,l),
(327,1188,l),
(132,1188,l),
(132,1296,l),
(1225,1296,l)
);
}
);
width = 1381;
}
);
unicode = 69;
},
{
glyphname = F;
layers = (
{
layerId = "AAC8411B-1049-4A7C-8FB8-170842CEFBED";
shapes = (
{
closed = 1;
nodes = (
(1257,881,l),
(1153,881,l),
(1125,1188,l),
(468,1188,l),
(468,738,l),
(841,738,l),
(841,907,l),
(946,907,l),
(946,465,l),
(841,465,l),
(841,631,l),
(468,631,l),
(468,108,l),
(767,108,l),
(767,0,l),
(165,0,l),
(165,108,l),
(352,108,l),
(352,1188,l),
(165,1188,l),
(165,1296,l),
(1245,1296,l)
);
}
);
width = 1381;
}
);
unicode = 70;
},
{
glyphname = G;
layers = (
{
layerId = "AAC8411B-1049-4A7C-8FB8-170842CEFBED";
shapes = (
{
closed = 1;
nodes = (
(1202,1322,l),
(1199,1314,o),
(1197,1282,o),
(1197,1278,qs),
(1197,1268,o),
(1195,1225,o),
(1190,1169,o),
(1188,1114,o),
(1188,1091,qs),
(1188,1034,o),
(1197,923,o),
(1202,881,q),
(1103,863,l),
(1096,903,o),
(1066,1024,o),
(986,1137,o),
(841,1220,o),
(718,1220,qs),
(617,1220,o),
(442,1135,o),
(310,982,o),
(235,771,o),
(235,644,qs),
(235,527,o),
(297,320,o),
(426,165,o),
(619,76,o),
(751,76,qs),
(808,76,o),
(967,103,o),
(1103,149,q),
(1103,461,l),
(762,461,l),
(762,569,l),
(1331,569,l),
(1331,461,l),
(1220,461,l),
(1220,74,l),
(960,-39,o),
(749,-39,qs),
(571,-39,o),
(327,88,o),
(178,288,o),
(110,527,o),
(110,642,qs),
(110,776,o),
(191,1024,o),
(347,1217,o),
(575,1335,o),
(723,1335,qs),
(806,1335,o),
(944,1289,o),
(1010,1236,q),
(1028,1217,o),
(1048,1208,o),
(1057,1208,qs),
(1075,1208,o),
(1082,1245,o),
(1091,1322,q)
);
}
);
width = 1381;
}
);
unicode = 71;
},
{
glyphname = H;
layers = (
{
layerId = "AAC8411B-1049-4A7C-8FB8-170842CEFBED";
shapes = (
{
closed = 1;
nodes = (
(550,1188,l),
(378,1188,l),
(378,723,l),
(1004,723,l),
(1004,1188,l),
(831,1188,l),
(831,1296,l),
(1294,1296,l),
(1294,1188,l),
(1118,1188,l),
(1118,108,l),
(1294,108,l),
(1294,0,l),
(831,0,l),
(831,108,l),
(1004,108,l),
(1004,615,l),
(378,615,l),
(378,108,l),
(550,108,l),
(550,0,l),
(90,0,l),
(90,108,l),
(262,108,l),
(262,1188,l),
(90,1188,l),
(90,1296,l),
(550,1296,l)
);
}
);
width = 1381;
}
);
unicode = 72;
},
{
glyphname = I;
layers = (
{
layerId = "AAC8411B-1049-4A7C-8FB8-170842CEFBED";
shapes = (
{
closed = 1;
nodes = (
(1151,1188,l),
(749,1188,l),
(749,108,l),
(1151,108,l),
(1151,0,l),
(230,0,l),
(230,108,l),
(633,108,l),
(633,1188,l),
(230,1188,l),
(230,1296,l),
(1151,1296,l)
);
}
);
width = 1381;
}
);
unicode = 73;
},
{
glyphname = J;
layers = (
{
layerId = "AAC8411B-1049-4A7C-8FB8-170842CEFBED";
shapes = (
{
closed = 1;
nodes = (
(1333,1188,l),
(1041,1188,l),
(1041,470,ls),
(1041,373,o),
(1019,180,o),
(973,108,q),
(946,69,o),
(868,11,o),
(785,-22,o),
(700,-39,o),
(663,-39,qs),
(525,-39,o),
(297,46,o),
(200,90,q),
(156,108,l),
(136,606,l),
(248,606,l),
(257,382,ls),
(260,294,o),
(297,189,o),
(366,147,qs),
(433,106,o),
(578,76,o),
(637,76,qs),
(744,76,o),
(861,147,o),
(916,260,o),
(925,400,o),
(925,470,qs),
(925,1188,l),
(472,1188,l),
(472,1296,l),
(1333,1296,l)
);
}
);
width = 1381;
}
);
unicode = 74;
},
{
glyphname = K;
layers = (
{
layerId = "AAC8411B-1049-4A7C-8FB8-170842CEFBED";
shapes = (
{
closed = 1;
nodes = (
(642,1188,l),
(446,1188,l),
(446,624,l),
(1026,1188,l),
(837,1188,l),
(837,1296,l),
(1287,1296,l),
(1287,1188,l),
(1184,1188,l),
(683,703,l),
(727,679,o),
(831,606,o),
(946,472,o),
(1072,265,o),
(1142,108,q),
(1353,108,l),
(1353,0,l),
(1059,0,l),
(1022,97,o),
(934,270,o),
(909,310,q),
(843,426,o),
(707,573,o),
(606,624,q),
(446,472,l),
(446,108,l),
(642,108,l),
(642,0,l),
(138,0,l),
(138,108,l),
(332,108,l),
(332,1188,l),
(138,1188,l),
(138,1296,l),
(642,1296,l)
);
}
);
width = 1381;
}
);
unicode = 75;
},
{
glyphname = L;
layers = (
{
layerId = "AAC8411B-1049-4A7C-8FB8-170842CEFBED";
shapes = (
{
closed = 1;
nodes = (
(764,1188,l),
(481,1188,l),
(481,108,l),
(1133,108,l),
(1164,573,l),
(1273,573,l),
(1248,0,l),
(136,0,l),
(136,108,l),
(366,108,l),
(366,1188,l),
(136,1188,l),
(136,1296,l),
(764,1296,l)
);
}
);
width = 1381;
}
);
unicode = 76;
},
{
glyphname = M;
layers = (
{
layerId = "AAC8411B-1049-4A7C-8FB8-170842CEFBED";
shapes = (
{
closed = 1;
nodes = (
(665,516,l),
(707,516,l),
(992,1296,l),
(1362,1296,l),
(1362,1188,l),
(1199,1188,l),
(1239,108,l),
(1379,108,l),
(1379,0,l),
(891,0,l),
(891,108,l),
(1137,108,l),
(1103,1188,l),
(1061,1188,l),
(738,332,l),
(619,332,l),
(320,1188,l),
(279,1188,l),
(244,108,l),
(490,108,l),
(490,0,l),
(2,0,l),
(2,108,l),
(143,108,l),
(182,1188,l),
(18,1188,l),
(18,1296,l),
(402,1296,l)
);
}
);
width = 1381;
}
);
unicode = 77;
},
{
glyphname = N;
layers = (
{
layerId = "AAC8411B-1049-4A7C-8FB8-170842CEFBED";
shapes = (
{
closed = 1;
nodes = (
(1063,97,l),
(1105,97,l),
(1105,1188,l),
(847,1188,l),
(847,1296,l),
(1360,1296,l),
(1360,1188,l),
(1211,1188,l),
(1211,-30,l),
(1006,-30,l),
(389,1188,l),
(350,1188,l),
(350,108,l),
(610,108,l),
(610,0,l),
(64,0,l),
(64,108,l),
(244,108,l),
(244,1188,l),
(64,1188,l),
(64,1296,l),
(459,1296,l)
);
}
);
width = 1381;
}
);
unicode = 78;
},
{
glyphname = O;
layers = (
{
layerId = "AAC8411B-1049-4A7C-8FB8-170842CEFBED";
shapes = (
{
closed = 1;
nodes = (
(99,789,o),
(182,1041,o),
(336,1227,o),
(555,1335,o),
(690,1335,qs),
(828,1335,o),
(1048,1225,o),
(1202,1036,o),
(1282,787,o),
(1282,646,qs),
(1282,509,o),
(1199,257,o),
(1048,71,o),
(828,-39,o),
(690,-39,qs),
(555,-39,o),
(336,69,o),
(182,255,o),
(99,505,o),
(99,646,qs)
);
},
{
closed = 1;
nodes = (
(224,545,o),
(283,341,o),
(400,178,o),
(575,76,o),
(690,76,qs),
(804,76,o),
(978,175,o),
(1098,336,o),
(1158,541,o),
(1158,650,qs),
(1158,758,o),
(1096,964,o),
(976,1123,o),
(804,1220,o),
(690,1220,qs),
(571,1220,o),
(396,1116,o),
(281,953,o),
(224,749,o),
(224,650,qs)
);
}
);
width = 1381;
}
);
unicode = 79;
},
{
glyphname = P;
layers = (
{
layerId = "AAC8411B-1049-4A7C-8FB8-170842CEFBED";
shapes = (
{
closed = 1;
nodes = (
(690,1296,ls),
(815,1296,o),
(969,1270,o),
(1032,1236,qs),
(1118,1188,o),
(1230,999,o),
(1230,894,qs),
(1230,845,o),
(1204,751,o),
(1160,668,o),
(1098,598,o),
(1061,578,q),
(1019,553,o),
(940,525,o),
(837,511,o),
(698,509,o),
(593,509,qs),
(465,509,l),
(465,108,l),
(804,108,l),
(804,0,l),
(163,0,l),
(163,108,l),
(350,108,l),
(350,1188,l),
(163,1188,l),
(163,1296,l)
);
},
{
closed = 1;
nodes = (
(465,617,l),
(596,617,ls),
(736,617,o),
(949,631,o),
(1008,679,qs),
(1041,705,o),
(1105,815,o),
(1105,898,qs),
(1105,992,o),
(1013,1118,o),
(967,1142,qs),
(946,1153,o),
(900,1169,o),
(837,1181,o),
(753,1188,o),
(690,1188,qs),
(465,1188,l)
);
}
);
width = 1381;
}
);
unicode = 80;
},
{
glyphname = Q;
layers = (
{
layerId = "AAC8411B-1049-4A7C-8FB8-170842CEFBED";
shapes = (
{
closed = 1;
nodes = (
(1259,-202,l),
(1220,-230,o),
(1107,-294,o),
(1026,-294,qs),
(973,-294,o),
(891,-265,o),
(771,-214,o),
(695,-193,o),
(652,-193,qs),
(575,-193,o),
(461,-242,o),
(380,-288,q),
(327,-202,l),
(369,-175,o),
(437,-112,o),
(488,-60,o),
(518,-20,o),
(523,-16,q),
(426,13,o),
(270,141,o),
(158,314,o),
(99,527,o),
(99,646,qs),
(99,810,o),
(196,1066,o),
(359,1243,o),
(573,1335,o),
(688,1335,qs),
(813,1335,o),
(1028,1236,o),
(1190,1054,o),
(1282,797,o),
(1282,637,qs),
(1282,520,o),
(1220,279,o),
(1072,81,o),
(831,-42,o),
(652,-39,q),
(642,-51,o),
(633,-60,o),
(615,-79,q),
(613,-83,o),
(608,-88,o),
(610,-83,q),
(606,-83,l),
(606,-88,l),
(617,-88,o),
(637,-85,o),
(656,-85,qs),
(698,-85,o),
(799,-106,o),
(859,-132,q),
(900,-147,o),
(949,-165,o),
(980,-178,o),
(1004,-180,o),
(1017,-180,qs),
(1075,-180,o),
(1155,-141,o),
(1188,-119,q)
);
},
{
closed = 1;
nodes = (
(224,545,o),
(283,341,o),
(400,178,o),
(575,76,o),
(690,76,qs),
(804,76,o),
(978,175,o),
(1098,336,o),
(1158,541,o),
(1158,650,qs),
(1158,758,o),
(1096,964,o),
(976,1123,o),
(804,1220,o),
(690,1220,qs),
(571,1220,o),
(396,1116,o),
(281,953,o),
(224,749,o),
(224,650,qs)
);
}
);
width = 1381;
}
);
unicode = 81;
},
{
glyphname = R;
layers = (
{
layerId = "AAC8411B-1049-4A7C-8FB8-170842CEFBED";
shapes = (
{
closed = 1;
nodes = (
(695,1296,ls),
(806,1296,o),
(949,1276,o),
(1068,1193,o),
(1149,1034,o),
(1149,949,qs),
(1149,898,o),
(1114,782,o),
(1032,681,o),
(896,606,o),
(797,596,q),
(826,564,o),
(912,444,o),
(1001,306,o),
(1091,165,o),
(1125,108,q),
(1329,108,l),
(1329,0,l),
(1041,0,l),
(1013,57,o),
(946,182,o),
(883,290,o),
(831,375,o),
(819,393,qs),
(785,446,o),
(734,523,o),
(681,571,o),
(619,593,o),
(573,593,qs),
(407,593,l),
(407,108,l),
(613,108,l),
(613,0,l),
(103,0,l),
(103,108,l),
(292,108,l),
(292,1188,l),
(103,1188,l),
(103,1296,l)
);
},
{
closed = 1;
nodes = (
(407,703,l),
(622,703,ls),
(668,703,o),
(806,709,o),
(932,755,o),
(1024,859,o),
(1024,955,qs),
(1024,1013,o),
(973,1116,o),
(927,1149,qs),
(914,1158,o),
(883,1171,o),
(833,1181,o),
(753,1188,o),
(690,1188,qs),
(407,1188,l)
);
}
);
width = 1381;
}
);
unicode = 82;
},
{
glyphname = S;
layers = (
{
layerId = "AAC8411B-1049-4A7C-8FB8-170842CEFBED";
shapes = (
{
closed = 1;
nodes = (
(1167,1322,l),
(1155,1268,o),
(1146,1199,o),
(1146,1155,qs),
(1146,1116,o),
(1155,980,o),
(1167,881,q),
(1063,863,l),
(1059,900,o),
(1032,1019,o),
(992,1080,q),
(978,1100,o),
(934,1149,o),
(865,1190,o),
(769,1220,o),
(700,1220,qs),
(610,1220,o),
(479,1167,o),
(393,1087,o),
(352,992,o),
(352,949,qs),
(352,868,o),
(430,776,o),
(541,725,o),
(661,707,o),
(703,703,qs),
(831,688,o),
(978,659,o),
(1098,580,o),
(1181,451,o),
(1181,352,qs),
(1181,251,o),
(1096,103,o),
(962,7,o),
(795,-39,o),
(709,-39,qs),
(640,-39,o),
(536,-16,o),
(461,18,o),
(410,53,o),
(393,66,q),
(391,69,o),
(380,76,o),
(375,76,qs),
(369,76,o),
(356,62,o),
(352,57,q),
(347,42,o),
(341,11,o),
(332,-46,q),
(228,-46,l),
(239,9,o),
(248,110,o),
(248,136,qs),
(248,158,ls),
(248,178,o),
(244,239,o),
(237,310,o),
(230,378,o),
(228,402,q),
(332,402,l),
(341,359,o),
(371,248,o),
(410,198,qs),
(442,156,o),
(569,76,o),
(692,76,qs),
(799,76,o),
(940,127,o),
(1022,205,o),
(1057,299,o),
(1057,343,qs),
(1057,419,o),
(990,509,o),
(894,558,o),
(780,575,o),
(736,580,qs),
(670,587,o),
(492,615,o),
(336,688,o),
(228,824,o),
(228,940,qs),
(228,1017,o),
(297,1160,o),
(419,1270,o),
(587,1335,o),
(686,1335,qs),
(749,1335,o),
(845,1312,o),
(914,1282,o),
(960,1250,o),
(971,1241,q),
(999,1220,o),
(1017,1208,o),
(1024,1208,qs),
(1041,1208,o),
(1048,1236,o),
(1059,1291,q),
(1061,1303,o),
(1063,1316,o),
(1063,1322,q)
);
}
);
width = 1381;
}
);
unicode = 83;
},
{
glyphname = T;
layers = (
{
layerId = "AAC8411B-1049-4A7C-8FB8-170842CEFBED";
shapes = (
{
closed = 1;
nodes = (
(1282,753,l),
(1171,738,l),
(1140,1188,l),
(749,1188,l),
(749,108,l),
(1026,108,l),
(1026,0,l),
(354,0,l),
(354,108,l),
(633,108,l),
(633,1188,l),
(242,1188,l),
(209,738,l),
(99,753,l),
(138,1296,l),
(1243,1296,l)
);
}
);
width = 1381;
}
);
unicode = 84;
},
{
glyphname = U;
layers = (
{
layerId = "AAC8411B-1049-4A7C-8FB8-170842CEFBED";
shapes = (
{
closed = 1;
nodes = (
(571,1188,l),
(336,1188,l),
(336,538,ls),
(336,468,o),
(347,306,o),
(380,239,qs),
(413,171,o),
(555,76,o),
(688,76,qs),
(824,76,o),
(969,156,o),
(1001,221,q),
(1036,283,o),
(1048,437,o),
(1048,516,qs),
(1048,1188,l),
(813,1188,l),
(813,1296,l),
(1329,1296,l),
(1329,1188,l),
(1162,1188,l),
(1162,516,ls),
(1162,428,o),
(1151,306,o),
(1128,217,o),
(1098,154,o),
(1080,129,q),
(1061,101,o),
(992,44,o),
(894,-7,o),
(767,-39,o),
(690,-39,qs),
(650,-39,o),
(545,-26,o),
(439,16,o),
(338,85,o),
(299,141,qs),
(270,182,o),
(237,288,o),
(224,396,o),
(221,499,o),
(221,538,qs),
(221,1188,l),
(55,1188,l),
(55,1296,l),
(571,1296,l)
);
}
);
width = 1381;
}
);
unicode = 85;
},
{
glyphname = V;
layers = (
{
layerId = "AAC8411B-1049-4A7C-8FB8-170842CEFBED";
shapes = (
{
closed = 1;
nodes = (
(507,1188,l),
(290,1188,l),
(698,129,l),
(1112,1188,l),
(877,1188,l),
(877,1296,l),
(1368,1296,l),
(1368,1188,l),
(1222,1188,l),
(767,0,l),
(624,0,l),
(173,1188,l),
(13,1188,l),
(13,1296,l),
(507,1296,l)
);
}
);
width = 1381;
}
);
unicode = 86;
},
{
glyphname = W;
layers = (
{
layerId = "AAC8411B-1049-4A7C-8FB8-170842CEFBED";
shapes = (
{
closed = 1;
nodes = (
(459,1188,l),
(226,1188,l),
(354,221,l),
(359,221,l),
(656,1059,l),
(734,1059,l),
(1024,221,l),
(1028,221,l),
(1162,1188,l),
(927,1188,l),
(927,1296,l),
(1377,1296,l),
(1377,1188,l),
(1270,1188,l),
(1098,0,l),
(982,0,l),
(690,837,l),
(686,837,l),
(389,0,l),
(274,0,l),
(112,1188,l),
(4,1188,l),
(4,1296,l),
(459,1296,l)
);
}
);
width = 1381;
}
);
unicode = 87;
},
{
glyphname = X;
layers = (
{
layerId = "AAC8411B-1049-4A7C-8FB8-170842CEFBED";
shapes = (
{
closed = 1;
nodes = (
(566,1188,l),
(378,1188,l),
(692,767,l),
(1015,1188,l),
(841,1188,l),
(841,1296,l),
(1261,1296,l),
(1261,1188,l),
(1144,1188,l),
(758,681,l),
(1186,108,l),
(1305,108,l),
(1305,0,l),
(841,0,l),
(841,108,l),
(1048,108,l),
(692,596,l),
(323,108,l),
(566,108,l),
(566,0,l),
(76,0,l),
(76,108,l),
(193,108,l),
(628,681,l),
(242,1188,l),
(119,1188,l),
(119,1296,l),
(566,1296,l)
);
}
);
width = 1381;
}
);
unicode = 88;
},
{
glyphname = Y;
layers = (
{
layerId = "AAC8411B-1049-4A7C-8FB8-170842CEFBED";
shapes = (
{
closed = 1;
nodes = (
(525,1188,l),
(350,1188,l),
(698,617,l),
(1041,1188,l),
(861,1188,l),
(861,1296,l),
(1307,1296,l),
(1307,1188,l),
(1162,1188,l),
(751,501,l),
(751,108,l),
(1022,108,l),
(1022,0,l),
(362,0,l),
(362,108,l),
(635,108,l),
(635,501,l),
(219,1188,l),
(74,1188,l),
(74,1296,l),
(525,1296,l)
);
}
);
width = 1381;
}
);
unicode = 89;
},
{
glyphname = Z;
layers = (
{
layerId = "AAC8411B-1049-4A7C-8FB8-170842CEFBED";
shapes = (
{
closed = 1;
nodes = (
(1135,1202,l),
(332,108,l),
(1080,108,l),
(1080,481,l),
(1188,481,l),
(1188,0,l),
(193,0,l),
(193,108,l),
(988,1188,l),
(318,1188,l),
(318,852,l),
(209,852,l),
(209,1296,l),
(1135,1296,l)
);
}
);
width = 1381;
}
);
unicode = 90;
},
{
glyphname = bracketleft;
layers = (
{
layerId = "AAC8411B-1049-4A7C-8FB8-170842CEFBED";
shapes = (
{
closed = 1;
nodes = (
(1116,1390,l),
(826,1390,l),
(826,-101,l),
(1116,-101,l),
(1116,-217,l),
(711,-217,l),
(711,1505,l),
(1116,1505,l)
);
}
);
width = 1381;
}
);
unicode = 91;
},
{
glyphname = backslash;
layers = (
{
layerId = "AAC8411B-1049-4A7C-8FB8-170842CEFBED";
shapes = (
{
closed = 1;
nodes = (
(1077,-320,l),
(214,1579,l),
(314,1623,l),
(1177,-274,l)
);
}
);
width = 1381;
}
);
unicode = 92;
},
{
glyphname = bracketright;
layers = (
{
layerId = "AAC8411B-1049-4A7C-8FB8-170842CEFBED";
shapes = (
{
closed = 1;
nodes = (
(265,-101,l),
(555,-101,l),
(555,1390,l),
(265,1390,l),
(265,1505,l),
(670,1505,l),
(670,-217,l),
(265,-217,l)
);
}
);
width = 1381;
}
);
unicode = 93;
},
{
glyphname = asciicircum;
layers = (
{
layerId = "AAC8411B-1049-4A7C-8FB8-170842CEFBED";
shapes = (
{
closed = 1;
nodes = (
(169,354,l),
(606,1296,l),
(776,1296,l),
(1213,354,l),
(1066,354,l),
(690,1158,l),
(316,354,l)
);
}
);
width = 1381;
}
);
unicode = 94;
},
{
glyphname = underscore;
layers = (
{
layerId = "AAC8411B-1049-4A7C-8FB8-170842CEFBED";
shapes = (
{
closed = 1;
nodes = (
(1492,-288,l),
(-110,-288,l),
(-110,-173,l),
(1492,-173,l)
);
}
);
width = 1381;
}
);
unicode = 95;
},
{
glyphname = grave;
layers = (
{
layerId = "AAC8411B-1049-4A7C-8FB8-170842CEFBED";
shapes = (
{
closed = 1;
nodes = (
(861,1158,l),
(741,1158,l),
(437,1423,l),
(683,1423,l)
);
}
);
width = 1381;
}
);
unicode = 96;
},
{
glyphname = a;
layers = (
{
layerId = "AAC8411B-1049-4A7C-8FB8-170842CEFBED";
shapes = (
{
closed = 1;
nodes = (
(1266,108,l),
(1266,0,l),
(946,0,l),
(946,165,l),
(912,134,o),
(817,62,o),
(707,4,o),
(578,-33,o),
(507,-33,qs),
(419,-33,o),
(283,26,o),
(187,117,o),
(136,233,o),
(136,292,qs),
(136,338,o),
(182,459,o),
(292,566,o),
(481,640,o),
(624,640,qs),
(631,640,o),
(695,637,o),
(785,631,o),
(894,619,o),
(946,610,q),
(946,681,ls),
(946,709,o),
(937,792,o),
(886,870,o),
(771,925,o),
(668,925,qs),
(606,925,o),
(413,889,o),
(274,828,q),
(230,932,l),
(303,964,o),
(532,1036,o),
(670,1036,qs),
(817,1036,o),
(976,951,o),
(1050,833,o),
(1061,716,o),
(1061,681,qs),
(1061,108,l)
);
},
{
closed = 1;
nodes = (
(946,505,l),
(907,511,o),
(744,529,o),
(646,529,qs),
(505,529,o),
(347,463,o),
(274,378,o),
(260,299,o),
(260,290,qs),
(260,246,o),
(299,171,o),
(369,112,o),
(456,79,o),
(505,79,qs),
(532,79,o),
(622,92,o),
(736,141,o),
(872,237,o),
(946,320,q)
);
}
);
width = 1381;
}
);
unicode = 97;
},
{
glyphname = b;
layers = (
{
layerId = "AAC8411B-1049-4A7C-8FB8-170842CEFBED";
shapes = (
{
closed = 1;
nodes = (
(338,797,l),
(343,797,l),
(415,894,o),
(610,999,o),
(736,999,qs),
(843,999,o),
(1032,918,o),
(1171,780,o),
(1252,591,o),
(1252,486,qs),
(1252,389,o),
(1179,207,o),
(1045,64,o),
(859,-22,o),
(746,-22,qs),
(652,-22,o),
(518,22,o),
(422,85,o),
(359,154,o),
(338,178,q),
(338,0,l),
(39,0,l),
(39,108,l),
(224,108,l),
(224,1331,l),
(11,1320,l),
(11,1427,l),
(338,1448,l)
);
},
{
closed = 1;
nodes = (
(341,410,o),
(402,265,o),
(509,156,o),
(656,92,o),
(744,92,qs),
(828,92,o),
(971,156,o),
(1072,268,o),
(1128,410,o),
(1128,488,qs),
(1128,566,o),
(1070,711,o),
(967,819,o),
(824,883,o),
(741,883,qs),
(656,883,o),
(511,819,o),
(402,711,o),
(341,569,o),
(341,490,qs)
);
}
);
width = 1381;
}
);
unicode = 98;
},
{
glyphname = c;
layers = (
{
layerId = "AAC8411B-1049-4A7C-8FB8-170842CEFBED";
shapes = (
{
closed = 1;
nodes = (
(1204,1008,l),
(1199,973,o),
(1184,856,o),
(1184,797,qs),
(1184,734,o),
(1190,644,q),
(1085,628,l),
(1075,668,l),
(1068,690,o),
(1041,773,o),
(969,852,o),
(835,909,o),
(725,909,qs),
(615,909,o),
(448,837,o),
(341,720,o),
(288,573,o),
(288,499,qs),
(288,428,o),
(336,281,o),
(439,158,o),
(601,83,o),
(716,83,qs),
(841,83,o),
(1077,191,o),
(1204,279,q),
(1263,191,l),
(1227,163,o),
(1114,88,o),
(971,16,o),
(801,-33,o),
(705,-33,qs),
(582,-33,o),
(384,51,o),
(242,196,o),
(163,387,o),
(163,497,qs),
(163,589,o),
(230,778,o),
(366,930,o),
(573,1024,o),
(714,1024,qs),
(780,1024,o),
(949,986,o),
(1052,903,q),
(1059,896,o),
(1061,896,q),
(1070,896,o),
(1082,934,o),
(1085,946,q),
(1089,976,o),
(1098,1019,q)
);
}
);
width = 1381;
}
);
unicode = 99;
},
{
glyphname = d;
layers = (
{
layerId = "AAC8411B-1049-4A7C-8FB8-170842CEFBED";
shapes = (
{
closed = 1;
nodes = (
(1142,108,l),
(1338,108,l),
(1338,0,l),
(1026,0,l),
(1026,171,l),
(1022,171,l),
(969,97,o),
(847,18,o),
(734,-18,o),
(650,-22,o),
(633,-22,qs),
(525,-22,o),
(338,60,o),
(200,198,o),
(123,384,o),
(123,488,qs),
(123,606,o),
(209,795,o),
(354,927,o),
(534,999,o),
(628,999,qs),
(738,999,o),
(958,898,o),
(1022,801,q),
(1026,801,l),
(1026,1320,l),
(656,1296,l),
(650,1399,l),
(1142,1443,l)
);
},
{
closed = 1;
nodes = (
(1022,553,o),
(971,692,o),
(874,810,o),
(729,883,o),
(633,883,qs),
(558,883,o),
(417,828,o),
(310,725,o),
(246,580,o),
(246,490,qs),
(246,402,o),
(308,255,o),
(415,149,o),
(555,92,o),
(633,92,qs),
(711,92,o),
(852,152,o),
(960,255,o),
(1022,398,o),
(1022,483,qs)
);
}
);
width = 1381;
}
);
unicode = 100;
},
{
glyphname = e;
layers = (
{
layerId = "AAC8411B-1049-4A7C-8FB8-170842CEFBED";
shapes = (
{
closed = 1;
nodes = (
(1287,132,l),
(1241,106,o),
(1116,48,o),
(971,0,o),
(810,-33,o),
(729,-33,qs),
(589,-33,o),
(380,55,o),
(239,200,o),
(171,391,o),
(171,492,qs),
(171,598,o),
(246,792,o),
(387,940,o),
(589,1024,o),
(716,1024,qs),
(847,1024,o),
(1043,942,o),
(1173,808,o),
(1239,644,o),
(1239,566,qs),
(1239,538,o),
(1234,474,o),
(1234,463,q),
(294,463,l),
(297,417,o),
(334,285,o),
(430,165,o),
(598,79,o),
(732,79,qs),
(804,79,o),
(953,112,o),
(1087,161,o),
(1197,214,o),
(1234,233,q)
);
},
{
closed = 1;
nodes = (
(1114,571,l),
(1114,626,o),
(1066,749,o),
(969,850,o),
(819,914,o),
(716,914,qs),
(601,914,o),
(446,835,o),
(350,727,o),
(301,610,o),
(294,571,q)
);
}
);
width = 1381;
}
);
unicode = 101;
},
{
glyphname = f;
layers = (
{
layerId = "AAC8411B-1049-4A7C-8FB8-170842CEFBED";
shapes = (
{
closed = 1;
nodes = (
(463,1091,ls),
(463,1162,o),
(483,1289,o),
(555,1384,o),
(700,1439,o),
(824,1439,qs),
(921,1439,o),
(1091,1416,o),
(1164,1402,q),
(1116,1287,l),
(1041,1305,o),
(868,1324,o),
(795,1324,qs),
(714,1324,o),
(626,1285,o),
(584,1217,o),
(578,1131,o),
(578,1085,qs),
(578,962,l),
(1068,962,l),
(1068,854,l),
(578,854,l),
(578,108,l),
(1068,108,l),
(1068,0,l),
(224,0,l),
(224,108,l),
(463,108,l),
(463,854,l),
(224,854,l),
(224,962,l),
(463,962,l)
);
}
);
width = 1381;
}
);
unicode = 102;
},
{
glyphname = g;
layers = (
{
layerId = "AAC8411B-1049-4A7C-8FB8-170842CEFBED";
shapes = (
{
closed = 1;
nodes = (
(1273,881,l),
(1087,881,l),
(1087,69,ls),
(1087,-37,o),
(1039,-198,o),
(916,-306,o),
(714,-362,o),
(560,-362,qs),
(415,-362,l),
(415,-253,l),
(560,-253,o),
(769,-242,o),
(905,-180,o),
(971,-48,o),
(971,69,qs),
(971,202,l),
(967,202,l),
(955,184,o),
(896,125,o),
(804,64,o),
(677,22,o),
(601,22,qs),
(495,22,o),
(316,101,o),
(184,237,o),
(108,415,o),
(108,511,qs),
(108,617,o),
(191,797,o),
(327,925,o),
(505,999,o),
(601,999,qs),
(610,999,o),
(690,995,o),
(799,960,o),
(918,889,o),
(967,822,q),
(971,822,l),
(971,990,l),
(1273,990,l)
);
},
{
closed = 1;
nodes = (
(971,591,o),
(912,732,o),
(810,831,o),
(677,883,o),
(606,883,qs),
(532,883,o),
(398,828,o),
(294,732,o),
(233,596,o),
(233,514,qs),
(233,433,o),
(292,297,o),
(393,196,o),
(529,138,o),
(606,138,qs),
(686,138,o),
(822,200,o),
(918,301,o),
(971,435,o),
(971,507,qs)
);
}
);
width = 1381;
}
);
unicode = 103;
},
{
glyphname = h;
layers = (
{
layerId = "AAC8411B-1049-4A7C-8FB8-170842CEFBED";
shapes = (
{
closed = 1;
nodes = (
(396,861,l),
(433,889,o),
(520,946,o),
(617,995,o),
(727,1024,o),
(789,1024,qs),
(868,1024,o),
(995,969,o),
(1085,868,o),
(1131,727,o),
(1131,644,qs),
(1131,108,l),
(1324,108,l),
(1324,0,l),
(819,0,l),
(819,108,l),
(1015,108,l),
(1015,635,ls),
(1015,760,o),
(898,909,o),
(795,909,qs),
(738,909,o),
(633,877,o),
(529,824,o),
(437,760,o),
(396,725,q),
(396,108,l),
(578,108,l),
(578,0,l),
(88,0,l),
(88,108,l),
(281,108,l),
(281,1331,l),
(66,1312,l),
(57,1421,l),
(396,1448,l)
);
}
);
width = 1381;
}
);
unicode = 104;
},
{
glyphname = i;
layers = (
{
layerId = "AAC8411B-1049-4A7C-8FB8-170842CEFBED";
shapes = (
{
closed = 1;
nodes = (
(753,108,l),
(1151,108,l),
(1151,0,l),
(233,0,l),
(233,108,l),
(637,108,l),
(637,881,l),
(299,881,l),
(299,990,l),
(753,990,l)
);
},
{
closed = 1;
nodes = (
(753,1510,l),
(753,1236,l),
(587,1236,l),
(587,1510,l)
);
}
);
width = 1381;
}
);
unicode = 105;
},
{
glyphname = j;
layers = (
{
layerId = "AAC8411B-1049-4A7C-8FB8-170842CEFBED";
shapes = (
{
closed = 1;
nodes = (
(898,92,ls),
(898,46,o),
(883,-103,o),
(804,-244,o),
(628,-347,o),
(468,-347,qs),
(375,-347,o),
(224,-323,o),
(156,-308,q),
(182,-198,l),
(228,-209,o),
(387,-233,o),
(474,-233,qs),
(589,-233,o),
(716,-163,o),
(773,-60,o),
(782,60,o),
(782,108,qs),
(782,881,l),
(196,881,l),
(196,990,l),
(898,990,l)
);
},
{
closed = 1;
nodes = (
(852,1510,l),
(852,1236,l),
(686,1236,l),
(686,1510,l)
);
}
);
width = 1381;
}
);
unicode = 106;
},
{
glyphname = k;
layers = (
{
layerId = "AAC8411B-1049-4A7C-8FB8-170842CEFBED";
shapes = (
{
closed = 1;
nodes = (
(426,550,l),
(856,877,l),
(856,881,l),
(727,881,l),
(727,990,l),
(1208,990,l),
(1208,881,l),
(1028,881,l),
(642,584,l),
(711,523,o),
(850,387,o),
(971,260,o),
(1070,147,o),
(1103,108,q),
(1296,108,l),
(1296,0,l),
(817,0,l),
(817,108,l),
(964,108,l),
(930,149,o),
(856,230,o),
(760,325,o),
(637,442,o),
(555,520,q),
(426,422,l),
(426,0,l),
(119,0,l),
(119,108,l),
(310,108,l),
(310,1329,l),
(92,1309,l),
(83,1418,l),
(426,1448,l)
);
}
);
width = 1381;
}
);
unicode = 107;
},
{
glyphname = l;
layers = (
{
layerId = "AAC8411B-1049-4A7C-8FB8-170842CEFBED";
shapes = (
{
closed = 1;
nodes = (
(749,108,l),
(1149,108,l),
(1149,0,l),
(233,0,l),
(233,108,l),
(633,108,l),
(633,1296,l),
(257,1268,l),
(246,1375,l),
(749,1406,l)
);
}
);
width = 1381;
}
);
unicode = 108;
},
{
glyphname = m;
layers = (
{
layerId = "AAC8411B-1049-4A7C-8FB8-170842CEFBED";
shapes = (
{
closed = 1;
nodes = (
(262,909,l),
(292,934,l),
(294,937,o),
(327,962,o),
(378,992,o),
(448,1015,o),
(490,1015,qs),
(564,1015,o),
(688,940,o),
(720,870,q),
(771,930,o),
(903,1015,o),
(982,1015,qs),
(1043,1015,o),
(1158,962,o),
(1188,916,qs),
(1204,891,o),
(1227,843,o),
(1241,780,o),
(1248,690,o),
(1248,626,qs),
(1248,108,l),
(1379,108,l),
(1379,0,l),
(1133,0,l),
(1133,626,ls),
(1133,674,o),
(1128,771,o),
(1100,852,o),
(1041,900,o),
(986,900,qs),
(937,900,o),
(824,837,o),
(760,749,q),
(760,108,l),
(903,108,l),
(903,0,l),
(644,0,l),
(644,635,ls),
(644,672,o),
(640,767,o),
(613,845,o),
(550,900,o),
(492,900,qs),
(451,900,o),
(382,872,o),
(327,833,o),
(285,789,o),
(272,771,q),
(272,108,l),
(428,108,l),
(428,0,l),
(0,0,l),
(0,108,l),
(156,108,l),
(156,881,l),
(0,881,l),
(0,990,l),
(262,990,l)
);
}
);
width = 1381;
}
);
unicode = 109;
},
{
glyphname = n;
layers = (
{
layerId = "AAC8411B-1049-4A7C-8FB8-170842CEFBED";
shapes = (
{
closed = 1;
nodes = (
(382,861,l),
(419,889,o),
(507,946,o),
(606,995,o),
(716,1024,o),
(778,1024,qs),
(856,1024,o),
(982,969,o),
(1072,868,o),
(1121,727,o),
(1121,644,qs),
(1121,108,l),
(1305,108,l),
(1305,0,l),
(808,0,l),
(808,108,l),
(1006,108,l),
(1006,635,ls),
(1006,762,o),
(883,909,o),
(780,909,qs),
(753,909,o),
(679,898,o),
(582,859,o),
(461,787,o),
(382,725,q),
(382,108,l),
(575,108,l),
(575,0,l),
(79,0,l),
(79,108,l),
(268,108,l),
(268,881,l),
(79,881,l),
(79,990,l),
(382,990,l)
);
}
);
width = 1381;
}
);
unicode = 110;
},
{
glyphname = o;
layers = (
{
layerId = "AAC8411B-1049-4A7C-8FB8-170842CEFBED";
shapes = (
{
closed = 1;
nodes = (
(119,606,o),
(193,799,o),
(336,946,o),
(550,1036,o),
(690,1036,qs),
(835,1036,o),
(1050,944,o),
(1190,792,o),
(1261,601,o),
(1261,501,qs),
(1261,402,o),
(1190,211,o),
(1050,60,o),
(835,-33,o),
(690,-33,qs),
(550,-33,o),
(336,57,o),
(193,207,o),
(119,398,o),
(119,501,qs)
);
},
{
closed = 1;
nodes = (
(244,422,o),
(301,270,o),
(415,152,o),
(582,83,o),
(690,83,qs),
(801,83,o),
(969,154,o),
(1080,272,o),
(1137,422,o),
(1137,501,qs),
(1137,580,o),
(1080,732,o),
(969,850,o),
(801,921,o),
(690,921,qs),
(582,921,o),
(417,852,o),
(301,734,o),
(244,584,o),
(244,501,qs)
);
}
);
width = 1381;
}
);
unicode = 111;
},
{
glyphname = p;
layers = (
{
layerId = "AAC8411B-1049-4A7C-8FB8-170842CEFBED";
shapes = (
{
closed = 1;
nodes = (
(347,826,l),
(352,826,l),
(366,847,o),
(424,912,o),
(520,973,o),
(656,1019,o),
(749,1019,qs),
(865,1019,o),
(1054,932,o),
(1190,787,o),
(1261,604,o),
(1261,505,qs),
(1261,389,o),
(1171,198,o),
(1028,60,o),
(845,-16,o),
(753,-16,qs),
(738,-16,o),
(656,-9,o),
(541,28,o),
(413,108,o),
(352,182,q),
(347,182,l),
(347,-253,l),
(690,-253,l),
(690,-362,l),
(44,-362,l),
(44,-253,l),
(233,-253,l),
(233,881,l),
(44,881,l),
(44,990,l),
(347,990,l)
);
},
{
closed = 1;
nodes = (
(338,410,o),
(417,255,o),
(536,152,o),
(681,99,o),
(749,99,qs),
(826,99,o),
(967,161,o),
(1072,270,o),
(1137,419,o),
(1137,507,qs),
(1137,578,o),
(1089,720,o),
(992,833,o),
(847,905,o),
(751,905,qs),
(661,905,o),
(509,841,o),
(400,734,o),
(338,589,o),
(338,511,qs)
);
}
);
width = 1381;
}
);
unicode = 112;
},
{
glyphname = q;
layers = (
{
layerId = "AAC8411B-1049-4A7C-8FB8-170842CEFBED";
shapes = (
{
closed = 1;
nodes = (
(1149,881,l),
(1149,-253,l),
(1338,-253,l),
(1338,-362,l),
(690,-362,l),
(690,-253,l),
(1034,-253,l),
(1034,182,l),
(1028,182,l),
(969,108,o),
(841,28,o),
(725,-9,o),
(642,-16,o),
(628,-16,qs),
(534,-16,o),
(352,60,o),
(209,198,o),
(119,389,o),
(119,505,qs),
(119,604,o),
(191,787,o),
(327,932,o),
(516,1019,o),
(633,1019,qs),
(725,1019,o),
(861,973,o),
(958,912,o),
(1015,847,o),
(1028,826,q),
(1034,826,l),
(1034,990,l),
(1338,990,l),
(1338,881,l)
);
},
{
closed = 1;
nodes = (
(1043,589,o),
(980,734,o),
(872,841,o),
(720,905,o),
(631,905,qs),
(534,905,o),
(389,833,o),
(292,720,o),
(244,578,o),
(244,507,qs),
(244,419,o),
(306,270,o),
(415,161,o),
(555,99,o),
(633,99,qs),
(700,99,o),
(845,152,o),
(964,255,o),
(1043,410,o),
(1043,511,qs)
);
}
);
width = 1381;
}
);
unicode = 113;
},
{
glyphname = r;
layers = (
{
layerId = "AAC8411B-1049-4A7C-8FB8-170842CEFBED";
shapes = (
{
closed = 1;
nodes = (
(573,760,l),
(613,799,o),
(709,891,o),
(826,969,o),
(967,1022,o),
(1050,1022,qs),
(1103,1022,o),
(1184,999,o),
(1245,962,o),
(1289,918,o),
(1307,896,q),
(1186,806,l),
(1184,808,o),
(1177,817,o),
(1177,822,q),
(1167,835,o),
(1146,865,o),
(1114,891,o),
(1066,907,o),
(1032,907,qs),
(955,907,o),
(815,841,o),
(698,746,o),
(604,644,o),
(573,613,q),
(573,108,l),
(1010,108,l),
(1010,0,l),
(173,0,l),
(173,108,l),
(459,108,l),
(459,881,l),
(191,881,l),
(191,990,l),
(573,990,l)
);
}
);
width = 1381;
}
);
unicode = 114;
},
{
glyphname = s;
layers = (
{
layerId = "AAC8411B-1049-4A7C-8FB8-170842CEFBED";
shapes = (
{
closed = 1;
nodes = (
(1109,1019,l),
(1103,982,o),
(1089,889,o),
(1089,822,qs),
(1089,773,o),
(1096,707,o),
(1100,677,q),
(999,665,l),
(992,700,o),
(967,782,o),
(896,854,o),
(758,905,o),
(637,905,qs),
(499,905,o),
(352,806,o),
(352,734,qs),
(352,672,o),
(424,601,o),
(553,562,o),
(725,547,o),
(826,543,q),
(847,543,o),
(955,529,o),
(1070,479,o),
(1160,375,o),
(1160,285,qs),
(1160,202,o),
(1080,81,o),
(951,2,o),
(797,-35,o),
(720,-35,qs),
(659,-35,o),
(553,-13,o),
(465,18,o),
(402,51,o),
(382,62,q),
(382,62,o),
(378,64,q),
(375,66,o),
(371,66,qs),
(354,66,o),
(336,9,o),
(325,-30,q),
(224,-30,l),
(228,0,o),
(237,57,o),
(237,115,qs),
(237,189,o),
(228,303,o),
(224,343,q),
(325,354,l),
(329,325,o),
(356,233,o),
(433,145,o),
(575,81,o),
(695,81,qs),
(729,81,o),
(845,94,o),
(955,136,o),
(1036,214,o),
(1036,281,qs),
(1036,332,o),
(988,391,o),
(900,422,o),
(778,430,o),
(707,433,qs),
(661,435,o),
(499,451,o),
(343,509,o),
(228,626,o),
(228,729,qs),
(228,792,o),
(288,898,o),
(393,976,o),
(545,1019,o),
(635,1019,qs),
(738,1019,o),
(868,971,o),
(900,953,q),
(905,949,o),
(937,932,o),
(951,932,qs),
(969,932,o),
(988,976,o),
(992,988,q),
(997,1010,o),
(1001,1024,o),
(1006,1036,q)
);
}
);
width = 1381;
}
);
unicode = 115;
},
{
glyphname = t;
layers = (
{
layerId = "AAC8411B-1049-4A7C-8FB8-170842CEFBED";
shapes = (
{
closed = 1;
nodes = (
(514,958,l),
(1070,958,l),
(1070,850,l),
(514,850,l),
(514,415,ls),
(514,350,o),
(520,230,o),
(564,138,o),
(663,83,o),
(753,83,qs),
(780,83,o),
(852,90,o),
(953,112,o),
(1096,161,o),
(1197,202,q),
(1239,99,l),
(1128,48,o),
(877,-33,o),
(764,-33,qs),
(654,-33,o),
(516,35,o),
(479,71,qs),
(419,132,o),
(398,299,o),
(398,415,qs),
(398,850,l),
(242,850,l),
(242,958,l),
(398,958,l),
(398,1296,l),
(514,1296,l)
);
}
);
width = 1381;
}
);
unicode = 116;
},
{
glyphname = u;
layers = (
{
layerId = "AAC8411B-1049-4A7C-8FB8-170842CEFBED";
shapes = (
{
closed = 1;
nodes = (
(378,380,ls),
(378,356,o),
(384,257,o),
(428,158,o),
(520,83,o),
(608,83,qs),
(705,83,o),
(881,180,o),
(978,283,q),
(978,881,l),
(780,881,l),
(780,990,l),
(1094,990,l),
(1094,108,l),
(1280,108,l),
(1280,0,l),
(978,0,l),
(978,127,l),
(953,106,o),
(883,51,o),
(795,2,o),
(683,-33,o),
(617,-33,qs),
(509,-33,o),
(371,46,o),
(292,165,o),
(262,310,o),
(262,380,qs),
(262,881,l),
(74,881,l),
(74,990,l),
(378,990,l)
);
}
);
width = 1381;
}
);
unicode = 117;
},
{
glyphname = v;
layers = (
{
layerId = "AAC8411B-1049-4A7C-8FB8-170842CEFBED";
shapes = (
{
closed = 1;
nodes = (
(538,881,l),
(352,881,l),
(698,134,l),
(1048,881,l),
(865,881,l),
(865,990,l),
(1333,990,l),
(1333,881,l),
(1162,881,l),
(746,0,l),
(637,0,l),
(219,881,l),
(48,881,l),
(48,990,l),
(538,990,l)
);
}
);
width = 1381;
}
);
unicode = 118;
},
{
glyphname = w;
layers = (
{
layerId = "AAC8411B-1049-4A7C-8FB8-170842CEFBED";
shapes = (
{
closed = 1;
nodes = (
(417,881,l),
(226,881,l),
(428,184,l),
(433,184,l),
(659,810,l),
(738,810,l),
(967,175,l),
(971,175,l),
(1179,881,l),
(986,881,l),
(986,990,l),
(1377,990,l),
(1377,881,l),
(1287,881,l),
(1028,0,l),
(909,0,l),
(690,593,l),
(477,0,l),
(364,0,l),
(103,881,l),
(4,881,l),
(4,990,l),
(417,990,l)
);
}
);
width = 1381;
}
);
unicode = 119;
},
{
glyphname = x;
layers = (
{
layerId = "AAC8411B-1049-4A7C-8FB8-170842CEFBED";
shapes = (
{
closed = 1;
nodes = (
(538,881,l),
(398,881,l),
(686,593,l),
(973,881,l),
(841,881,l),
(841,990,l),
(1263,990,l),
(1263,881,l),
(1123,881,l),
(762,518,l),
(1177,108,l),
(1322,108,l),
(1322,0,l),
(854,0,l),
(854,108,l),
(1017,108,l),
(686,444,l),
(352,108,l),
(514,108,l),
(514,0,l),
(60,0,l),
(60,108,l),
(202,108,l),
(608,518,l),
(242,881,l),
(94,881,l),
(94,990,l),
(538,990,l)
);
}
);
width = 1381;
}
);
unicode = 120;
},
{
glyphname = y;
layers = (
{
layerId = "AAC8411B-1049-4A7C-8FB8-170842CEFBED";
shapes = (
{
closed = 1;
nodes = (
(486,881,l),
(327,881,l),
(690,182,l),
(1091,881,l),
(934,881,l),
(934,990,l),
(1356,990,l),
(1356,881,l),
(1222,881,l),
(578,-244,l),
(782,-244,l),
(782,-352,l),
(92,-352,l),
(92,-244,l),
(446,-244,l),
(624,62,l),
(196,881,l),
(55,881,l),
(55,990,l),
(486,990,l)
);
}
);
width = 1381;
}
);
unicode = 121;
},
{
glyphname = z;
layers = (
{
layerId = "AAC8411B-1049-4A7C-8FB8-170842CEFBED";
shapes = (
{
closed = 1;
nodes = (
(1142,891,l),
(396,108,l),
(1034,108,l),
(1034,320,l),
(1142,320,l),
(1142,0,l),
(239,0,l),
(239,108,l),
(978,881,l),
(371,881,l),
(371,677,l),
(262,677,l),
(262,990,l),
(1142,990,l)
);
}
);
width = 1381;
}
);
unicode = 122;
},
{
glyphname = braceleft;
layers = (
{
layerId = "AAC8411B-1049-4A7C-8FB8-170842CEFBED";
shapes = (
{
closed = 1;
nodes = (
(1061,1390,l),
(1019,1390,o),
(927,1384,o),
(852,1349,o),
(801,1280,o),
(801,1217,qs),
(801,1181,o),
(810,1105,o),
(828,1032,qs),
(847,951,l),
(850,940,o),
(859,877,o),
(859,850,qs),
(859,808,o),
(835,744,o),
(799,695,o),
(753,656,o),
(732,640,q),
(753,624,o),
(797,587,o),
(835,538,o),
(859,474,o),
(859,433,qs),
(859,405,o),
(850,343,o),
(847,332,q),
(828,251,ls),
(810,178,o),
(801,101,o),
(801,62,qs),
(801,0,o),
(854,-69,o),
(934,-101,o),
(1024,-108,o),
(1061,-108,q),
(1061,-219,l),
(969,-219,ls),
(932,-219,o),
(872,-200,qs),
(780,-171,o),
(681,-26,o),
(681,66,qs),
(681,83,o),
(686,143,o),
(695,182,q),
(695,196,o),
(711,262,o),
(716,277,q),
(723,314,o),
(736,398,o),
(736,437,qs),
(736,483,o),
(688,538,o),
(624,569,o),
(558,580,o),
(541,582,q),
(541,700,l),
(628,709,o),
(736,778,o),
(736,850,qs),
(736,870,o),
(732,916,o),
(725,962,o),
(718,997,o),
(716,1006,q),
(707,1054,o),
(692,1114,o),
(686,1155,o),
(681,1188,o),
(681,1208,qs),
(681,1324,o),
(782,1443,o),
(914,1496,o),
(1039,1501,o),
(1061,1501,q)
);
}
);
width = 1381;
}
);
unicode = 123;
},
{
glyphname = bar;
layers = (
{
layerId = "AAC8411B-1049-4A7C-8FB8-170842CEFBED";
shapes = (
{
closed = 1;
nodes = (
(631,-426,l),
(631,1549,l),
(753,1549,l),
(753,-426,l)
);
}
);
width = 1381;
}
);
unicode = 124;
},
{
glyphname = braceright;
layers = (
{
layerId = "AAC8411B-1049-4A7C-8FB8-170842CEFBED";
shapes = (
{
closed = 1;
nodes = (
(320,-108,l),
(362,-108,o),
(453,-101,o),
(529,-66,o),
(580,2,o),
(580,64,qs),
(580,101,o),
(571,178,o),
(553,251,qs),
(534,332,l),
(532,343,o),
(523,405,o),
(523,433,qs),
(523,474,o),
(545,538,o),
(582,587,o),
(628,626,o),
(650,642,q),
(608,672,o),
(523,767,o),
(523,850,qs),
(523,877,o),
(532,940,o),
(534,951,q),
(553,1032,ls),
(571,1105,o),
(580,1181,o),
(580,1220,qs),
(580,1282,o),
(525,1351,o),
(446,1384,o),
(356,1390,o),
(320,1390,q),
(320,1501,l),
(410,1501,ls),
(448,1501,o),
(509,1483,q),
(601,1452,o),
(700,1307,o),
(700,1215,qs),
(700,1199,o),
(695,1140,o),
(686,1100,q),
(686,1087,o),
(670,1019,o),
(665,1006,q),
(659,969,o),
(644,883,o),
(644,845,qs),
(644,799,o),
(692,744,o),
(758,714,o),
(822,703,o),
(841,700,q),
(841,582,l),
(753,573,o),
(644,505,o),
(644,433,qs),
(644,413,o),
(650,366,o),
(656,320,o),
(663,285,o),
(665,277,q),
(674,228,o),
(688,169,o),
(695,127,o),
(700,94,o),
(700,74,qs),
(700,-42,o),
(598,-163,o),
(468,-214,o),
(343,-219,o),
(320,-219,q)
);
}
);
width = 1381;
}
);
unicode = 125;
},
{
glyphname = asciitilde;
layers = (
{
layerId = "AAC8411B-1049-4A7C-8FB8-170842CEFBED";
shapes = (
{
closed = 1;
nodes = (
(1186,804,l),
(1171,778,o),
(1123,705,o),
(1052,635,o),
(960,584,o),
(903,584,qs),
(894,584,o),
(868,587,o),
(822,598,o),
(746,624,o),
(686,650,q),
(631,672,o),
(566,700,o),
(525,714,o),
(495,718,o),
(479,718,qs),
(410,718,o),
(323,610,o),
(274,527,q),
(198,617,l),
(221,656,o),
(274,738,o),
(341,806,o),
(424,850,o),
(479,850,qs),
(529,850,o),
(631,815,o),
(720,776,q),
(767,758,o),
(826,734,o),
(863,720,o),
(889,716,o),
(900,716,qs),
(914,716,o),
(955,725,o),
(1008,758,o),
(1066,817,o),
(1096,870,q),
(1096,874,o),
(1105,889,o),
(1107,891,q)
);
}
);
width = 1381;
}
);
unicode = 126;
},
{
glyphname = exclamdown;
layers = (
{
layerId = "AAC8411B-1049-4A7C-8FB8-170842CEFBED";
shapes = (
{
closed = 1;
nodes = (
(744,553,l),
(785,-318,l),
(593,-318,l),
(637,553,l)
);
},
{
closed = 1;
nodes = (
(622,753,o),
(532,835,o),
(532,896,qs),
(532,955,o),
(624,1036,o),
(690,1036,qs),
(758,1036,o),
(850,953,o),
(850,894,qs),
(850,833,o),
(758,753,o),
(690,753,qs)
);
}
);
width = 1381;
}
);
unicode = 161;
},
{
glyphname = cent;
layers = (
{
layerId = "AAC8411B-1049-4A7C-8FB8-170842CEFBED";
shapes = (
{
closed = 1;
nodes = (
(764,314,l),
(815,323,o),
(891,341,o),
(967,369,o),
(1054,415,o),
(1116,453,q),
(1171,359,l),
(1169,359,o),
(1160,352,o),
(1158,352,q),
(1103,316,o),
(1017,268,o),
(932,235,o),
(833,211,o),
(764,200,q),
(764,-132,l),
(652,-132,l),
(652,200,l),
(587,214,o),
(492,244,o),
(422,285,o),
(364,343,o),
(336,382,q),
(301,435,o),
(255,564,o),
(255,646,qs),
(255,727,o),
(308,877,o),
(407,997,o),
(555,1080,o),
(652,1096,q),
(652,1408,l),
(764,1408,l),
(764,1096,l),
(819,1091,o),
(905,1063,o),
(962,1034,o),
(997,1004,o),
(1001,999,q),
(1006,997,o),
(1010,990,o),
(1015,990,qs),
(1022,990,o),
(1028,1006,o),
(1036,1024,o),
(1036,1034,q),
(1039,1041,o),
(1039,1043,q),
(1041,1054,o),
(1043,1068,o),
(1043,1070,q),
(1151,1059,l),
(1144,1017,o),
(1131,918,o),
(1131,872,qs),
(1131,850,o),
(1133,787,o),
(1137,734,q),
(1028,720,l),
(1028,741,o),
(1024,797,o),
(1006,854,o),
(971,912,o),
(942,932,qs),
(896,964,o),
(795,990,o),
(764,990,q)
);
},
{
closed = 1;
nodes = (
(652,982,l),
(547,960,o),
(435,856,o),
(384,746,o),
(375,656,o),
(375,650,qs),
(375,598,o),
(413,479,o),
(453,426,qs),
(499,366,o),
(601,327,o),
(652,316,q)
);
}
);
width = 1381;
}
);
unicode = 162;
},
{
glyphname = sterling;
layers = (
{
layerId = "AAC8411B-1049-4A7C-8FB8-170842CEFBED";
shapes = (
{
closed = 1;
nodes = (
(430,780,l),
(396,872,o),
(371,978,o),
(371,1032,qs),
(371,1112,o),
(437,1250,o),
(553,1351,o),
(700,1408,o),
(782,1408,qs),
(870,1408,o),
(997,1372,o),
(1045,1353,qs),
(1050,1351,o),
(1066,1347,o),
(1070,1347,qs),
(1075,1347,o),
(1082,1353,o),
(1089,1370,q),
(1193,1370,l),
(1173,1305,o),
(1153,1195,o),
(1149,1112,q),
(1045,1100,l),
(1048,1128,o),
(1050,1167,o),
(1050,1177,qs),
(1050,1190,o),
(1039,1230,o),
(1019,1241,qs),
(995,1254,o),
(861,1296,o),
(787,1296,qs),
(714,1296,o),
(598,1250,o),
(523,1173,o),
(483,1080,o),
(483,1034,qs),
(483,1008,o),
(490,964,o),
(505,907,o),
(527,833,o),
(545,780,q),
(1105,780,l),
(1105,672,l),
(578,672,l),
(589,626,o),
(598,553,o),
(598,505,qs),
(598,354,o),
(518,165,o),
(477,112,q),
(481,108,l),
(514,125,o),
(591,152,o),
(644,152,qs),
(686,152,o),
(760,136,o),
(822,110,q),
(872,92,o),
(927,76,o),
(953,76,qs),
(1008,76,o),
(1094,125,o),
(1149,171,q),
(1215,88,l),
(1199,71,o),
(1151,30,o),
(1089,-7,o),
(1008,-33,o),
(960,-33,qs),
(927,-33,o),
(854,-18,o),
(799,2,qs),
(734,26,o),
(670,44,o),
(633,44,qs),
(587,44,o),
(470,9,o),
(373,-46,q),
(297,53,l),
(364,123,o),
(442,257,o),
(481,375,o),
(490,468,o),
(490,495,qs),
(490,584,o),
(463,672,q),
(221,672,l),
(221,780,l)
);
}
);
width = 1381;
}
);
unicode = 163;
},
{
glyphname = currency;
layers = (
{
layerId = "AAC8411B-1049-4A7C-8FB8-170842CEFBED";
shapes = (
{
closed = 1;
nodes = (
(1128,141,l),
(942,325,l),
(870,268,o),
(727,239,o),
(690,239,qs),
(677,239,o),
(624,244,o),
(558,260,o),
(479,294,o),
(439,325,q),
(253,141,l),
(173,219,l),
(362,402,l),
(301,490,o),
(281,615,o),
(281,633,qs),
(281,744,o),
(336,863,o),
(362,898,q),
(173,1085,l),
(253,1160,l),
(439,976,l),
(511,1032,o),
(644,1061,o),
(690,1061,qs),
(741,1061,o),
(822,1043,o),
(883,1015,o),
(927,986,o),
(942,976,q),
(1128,1160,l),
(1208,1085,l),
(1019,898,l),
(1077,817,o),
(1103,692,o),
(1103,668,qs),
(1103,558,o),
(1043,435,o),
(1019,402,q),
(1208,219,l)
);
},
{
closed = 1;
nodes = (
(995,709,o),
(953,817,o),
(872,903,o),
(760,953,o),
(690,953,qs),
(619,953,o),
(509,900,o),
(430,815,o),
(389,707,o),
(389,652,qs),
(389,591,o),
(430,483,o),
(507,398,o),
(619,347,o),
(688,347,qs),
(758,347,o),
(872,398,o),
(951,483,o),
(995,591,o),
(995,652,qs)
);
}
);
width = 1381;
}
);
unicode = 164;
},
{
glyphname = yen;
layers = (
{
layerId = "AAC8411B-1049-4A7C-8FB8-170842CEFBED";
shapes = (
{
closed = 1;
nodes = (
(1026,108,l),
(1026,0,l),
(369,0,l),
(369,108,l),
(642,108,l),
(642,320,l),
(303,320,l),
(303,428,l),
(642,428,l),
(642,562,l),
(303,562,l),
(303,670,l),
(642,670,l),
(642,700,l),
(214,1257,l),
(74,1257,l),
(74,1365,l),
(527,1365,l),
(527,1257,l),
(352,1257,l),
(698,808,l),
(1036,1257,l),
(861,1257,l),
(861,1365,l),
(1307,1365,l),
(1307,1257,l),
(1169,1257,l),
(753,700,l),
(753,670,l),
(1085,670,l),
(1085,562,l),
(753,562,l),
(753,428,l),
(1085,428,l),
(1085,320,l),
(753,320,l),
(753,108,l)
);
}
);
width = 1381;
}
);
unicode = 165;
},
{
glyphname = brokenbar;
layers = (
{
layerId = "AAC8411B-1049-4A7C-8FB8-170842CEFBED";
shapes = (
{
closed = 1;
nodes = (
(631,690,l),
(631,1549,l),
(753,1549,l),
(753,690,l)
);
},
{
closed = 1;
nodes = (
(631,-426,l),
(631,433,l),
(753,433,l),
(753,-426,l)
);
}
);
width = 1381;
}
);
unicode = 166;
},
{
glyphname = section;
layers = (
{
layerId = "AAC8411B-1049-4A7C-8FB8-170842CEFBED";
shapes = (
{
closed = 1;
nodes = (
(971,990,l),
(971,1188,l),
(707,1188,ls),
(688,1188,o),
(631,1184,o),
(575,1158,o),
(536,1105,o),
(536,1054,qs),
(536,1008,o),
(587,942,o),
(619,916,q),
(937,672,ls),
(978,640,o),
(1050,580,o),
(1100,518,o),
(1128,446,o),
(1128,402,qs),
(1128,375,o),
(1109,306,o),
(1066,242,o),
(992,191,o),
(937,180,q),
(949,161,o),
(980,97,o),
(980,42,qs),
(980,-76,o),
(810,-209,o),
(665,-209,qs),
(301,-209,l),
(301,123,l),
(410,123,l),
(410,-101,l),
(679,-101,ls),
(709,-101,o),
(776,-85,o),
(826,-53,o),
(861,0,o),
(861,39,qs),
(861,71,o),
(828,134,o),
(767,180,qs),
(459,417,ls),
(384,474,o),
(285,582,o),
(285,663,qs),
(285,703,o),
(316,780,o),
(366,845,o),
(433,891,o),
(472,898,q),
(433,942,o),
(417,1039,o),
(417,1052,qs),
(417,1125,o),
(486,1225,o),
(523,1250,q),
(575,1282,o),
(700,1296,o),
(738,1296,qs),
(1080,1296,l),
(1080,990,l)
);
},
{
closed = 1;
nodes = (
(571,810,l),
(509,804,o),
(442,760,o),
(410,711,o),
(405,670,o),
(405,665,qs),
(405,635,o),
(446,571,o),
(520,516,qs),
(833,274,l),
(889,277,o),
(955,306,o),
(995,345,o),
(1008,389,o),
(1008,402,qs),
(1008,424,o),
(997,461,o),
(964,499,o),
(909,547,o),
(865,582,qs)
);
}
);
width = 1381;
}
);
unicode = 167;
},
{
glyphname = dieresis;
layers = (
{
layerId = "AAC8411B-1049-4A7C-8FB8-170842CEFBED";
shapes = (
{
closed = 1;
nodes = (
(624,1430,l),
(624,1181,l),
(459,1181,l),
(459,1430,l)
);
},
{
closed = 1;
nodes = (
(923,1430,l),
(923,1181,l),
(758,1181,l),
(758,1430,l)
);
}
);
width = 1381;
}
);
unicode = 168;
},
{
glyphname = copyright;
layers = (
{
layerId = "AAC8411B-1049-4A7C-8FB8-170842CEFBED";
shapes = (
{
closed = 1;
nodes = (
(925,787,l),
(921,837,o),
(914,907,o),
(903,925,q),
(883,955,o),
(787,995,o),
(727,995,qs),
(656,995,o),
(547,944,o),
(474,856,o),
(437,741,o),
(437,677,qs),
(437,610,o),
(477,488,o),
(550,396,o),
(654,343,o),
(720,343,qs),
(776,343,o),
(854,378,o),
(907,428,o),
(942,483,o),
(953,507,q),
(1008,483,l),
(967,373,o),
(789,272,o),
(688,272,qs),
(604,272,o),
(468,336,o),
(371,444,o),
(320,587,o),
(320,668,qs),
(320,744,o),
(371,886,o),
(470,995,o),
(619,1061,o),
(718,1061,qs),
(776,1061,o),
(930,1032,o),
(990,1010,q),
(990,787,l)
);
},
{
closed = 1;
nodes = (
(828,1335,o),
(1072,1232,o),
(1252,1050,o),
(1358,806,o),
(1358,668,qs),
(1358,529,o),
(1252,285,o),
(1072,103,o),
(828,-2,o),
(690,-2,qs),
(553,-2,o),
(310,103,o),
(129,285,o),
(22,529,o),
(22,668,qs),
(22,808,o),
(129,1052,o),
(310,1232,o),
(555,1335,o),
(690,1335,qs)
);
},
{
closed = 1;
nodes = (
(571,1248,o),
(362,1158,o),
(202,999,o),
(110,787,o),
(110,665,qs),
(110,545,o),
(202,334,o),
(362,178,o),
(571,85,o),
(690,85,qs),
(810,85,o),
(1019,178,o),
(1179,334,o),
(1270,545,o),
(1270,665,qs),
(1270,785,o),
(1179,999,o),
(1022,1155,o),
(810,1248,o),
(690,1248,qs)
);
}
);
width = 1381;
}
);
unicode = 169;
},
{
glyphname = ordfeminine;
layers = (
{
layerId = "AAC8411B-1049-4A7C-8FB8-170842CEFBED";
shapes = (
{
closed = 1;
nodes = (
(439,1278,l),
(520,1309,o),
(622,1335,o),
(674,1335,qs),
(883,1335,o),
(883,1151,qs),
(883,879,l),
(982,879,l),
(982,797,l),
(797,797,l),
(797,861,l),
(736,815,o),
(646,780,o),
(593,780,qs),
(514,780,o),
(398,879,o),
(398,953,qs),
(398,1036,o),
(536,1140,o),
(654,1140,qs),
(688,1140,o),
(746,1135,o),
(797,1128,q),
(797,1144,ls),
(797,1202,o),
(738,1252,o),
(672,1252,qs),
(628,1252,o),
(536,1227,o),
(472,1199,q)
);
},
{
closed = 1;
nodes = (
(797,1045,l),
(749,1052,o),
(692,1057,o),
(665,1057,qs),
(584,1057,o),
(486,1001,o),
(486,953,qs),
(486,916,o),
(550,863,o),
(593,863,qs),
(700,863,o),
(797,973,q)
);
},
{
closed = 1;
nodes = (
(971,613,l),
(410,613,l),
(410,695,l),
(971,695,l)
);
}
);
width = 1381;
}
);
unicode = 170;
},
{
glyphname = guillemotleft;
layers = (
{
layerId = "AAC8411B-1049-4A7C-8FB8-170842CEFBED";
shapes = (
{
closed = 1;
nodes = (
(1039,281,l),
(1043,274,o),
(1052,255,o),
(1052,237,qs),
(1052,205,o),
(997,163,o),
(955,163,qs),
(923,163,o),
(883,173,o),
(859,193,o),
(837,226,o),
(822,248,qs),
(511,711,l),
(822,1173,ls),
(850,1213,o),
(898,1259,o),
(955,1259,qs),
(997,1259,o),
(1052,1217,o),
(1052,1186,qs),
(1052,1167,o),
(1043,1149,o),
(1039,1142,q),
(760,711,l)
);
},
{
closed = 1;
nodes = (
(617,281,l),
(622,274,o),
(631,255,o),
(631,237,qs),
(631,205,o),
(575,163,o),
(534,163,qs),
(501,163,o),
(463,173,o),
(437,193,o),
(417,226,o),
(400,248,q),
(90,711,l),
(400,1173,l),
(415,1197,o),
(439,1230,o),
(468,1250,o),
(505,1259,o),
(534,1259,qs),
(575,1259,o),
(631,1217,o),
(631,1186,qs),
(631,1167,o),
(622,1149,o),
(617,1142,q),
(338,711,l)
);
}
);
width = 1169;
}
);
unicode = 171;
},
{
glyphname = logicalnot;
layers = (
{
layerId = "AAC8411B-1049-4A7C-8FB8-170842CEFBED";
shapes = (
{
closed = 1;
nodes = (
(1195,389,l),
(1080,389,l),
(1080,894,l),
(207,894,l),
(207,1008,l),
(1195,1008,l)
);
}
);
width = 1381;
}
);
unicode = 172;
},
{
glyphname = FL00ADh;
layers = (
{
layerId = "AAC8411B-1049-4A7C-8FB8-170842CEFBED";
shapes = (
{
closed = 1;
nodes = (
(446,729,l),
(934,729,l),
(934,604,l),
(446,604,l)
);
}
);
width = 1381;
}
);
unicode = 173;
},
{
glyphname = registered;
layers = (
{
layerId = "AAC8411B-1049-4A7C-8FB8-170842CEFBED";
shapes = (
{
closed = 1;
nodes = (
(686,1072,ls),
(705,1072,o),
(792,1066,o),
(883,1028,o),
(953,949,o),
(953,877,qs),
(953,865,o),
(946,815,o),
(914,753,o),
(843,695,o),
(778,679,q),
(815,654,o),
(865,558,o),
(903,474,qs),
(921,433,o),
(946,389,o),
(973,369,o),
(1010,366,o),
(1041,366,q),
(1041,310,l),
(949,310,ls),
(881,310,o),
(819,405,o),
(789,486,qs),
(767,547,o),
(734,615,o),
(698,650,o),
(650,656,o),
(608,656,qs),
(566,656,l),
(566,426,ls),
(566,396,o),
(571,380,o),
(582,373,q),
(587,371,o),
(642,366,o),
(661,364,q),
(661,310,l),
(369,310,l),
(369,364,l),
(371,366,o),
(384,366,qs),
(398,366,o),
(400,369,q),
(442,373,o),
(463,387,o),
(463,426,qs),
(463,962,ls),
(463,990,o),
(461,1004,o),
(448,1008,q),
(446,1010,o),
(433,1010,qs),
(428,1010,o),
(393,1013,o),
(369,1015,q),
(369,1072,l)
);
},
{
closed = 1;
nodes = (
(619,711,ls),
(723,711,o),
(850,780,o),
(850,870,qs),
(850,923,o),
(808,982,o),
(749,1010,o),
(683,1017,o),
(661,1017,qs),
(596,1017,o),
(566,1004,o),
(566,969,qs),
(566,711,l)
);
},
{
closed = 1;
nodes = (
(828,1335,o),
(1070,1232,o),
(1252,1052,o),
(1358,808,o),
(1358,668,qs),
(1358,529,o),
(1252,288,o),
(1072,106,o),
(828,0,o),
(690,0,qs),
(553,0,o),
(308,106,o),
(129,288,o),
(22,529,o),
(22,668,qs),
(22,808,o),
(129,1052,o),
(310,1232,o),
(555,1335,o),
(690,1335,qs)
);
},
{
closed = 1;
nodes = (
(571,1248,o),
(362,1158,o),
(202,999,o),
(110,787,o),
(110,668,qs),
(110,547,o),
(200,338,o),
(359,180,o),
(569,88,o),
(690,88,qs),
(810,88,o),
(1022,180,o),
(1181,338,o),
(1270,547,o),
(1270,668,qs),
(1270,789,o),
(1179,1001,o),
(1019,1158,o),
(808,1248,o),
(690,1248,qs)
);
}
);
width = 1381;
}
);
unicode = 174;
},
{
glyphname = macron;
layers = (
{
layerId = "AAC8411B-1049-4A7C-8FB8-170842CEFBED";
shapes = (
{
closed = 1;
nodes = (
(1082,1248,l),
(299,1248,l),
(299,1362,l),
(1082,1362,l)
);
}
);
width = 1381;
}
);
unicode = 175;
},
{
glyphname = degree;
layers = (
{
layerId = "AAC8411B-1049-4A7C-8FB8-170842CEFBED";
shapes = (
{
closed = 1;
nodes = (
(338,1149,o),
(393,1278,o),
(488,1375,o),
(617,1430,o),
(690,1430,qs),
(767,1430,o),
(896,1372,o),
(990,1276,o),
(1043,1146,o),
(1043,1075,qs),
(1043,1004,o),
(988,877,o),
(894,780,o),
(764,725,o),
(690,725,qs),
(617,725,o),
(488,780,o),
(393,874,o),
(338,1001,o),
(338,1075,qs)
);
},
{
closed = 1;
nodes = (
(465,980,o),
(593,852,o),
(690,852,qs),
(738,852,o),
(822,886,o),
(881,949,o),
(916,1028,o),
(916,1077,qs),
(916,1173,o),
(787,1303,o),
(690,1303,qs),
(642,1303,o),
(562,1268,o),
(499,1208,o),
(465,1125,o),
(465,1077,qs)
);
}
);
width = 1381;
}
);
unicode = 176;
},
{
glyphname = plusminus;
layers = (
{
layerId = "AAC8411B-1049-4A7C-8FB8-170842CEFBED";
shapes = (
{
closed = 1;
nodes = (
(749,874,l),
(1230,874,l),
(1230,760,l),
(749,760,l),
(749,308,l),
(633,308,l),
(633,760,l),
(152,760,l),
(152,874,l),
(633,874,l),
(633,1326,l),
(749,1326,l)
);
},
{
closed = 1;
nodes = (
(1230,71,l),
(152,71,l),
(152,187,l),
(1230,187,l)
);
}
);
width = 1381;
}
);
unicode = 177;
},
{
glyphname = twosuperior;
layers = (
{
layerId = "AAC8411B-1049-4A7C-8FB8-170842CEFBED";
shapes = (
{
closed = 1;
nodes = (
(934,571,l),
(384,571,l),
(384,661,l),
(405,679,l),
(428,700,o),
(497,762,o),
(571,828,o),
(640,891,o),
(663,912,qs),
(720,964,o),
(792,1036,o),
(826,1091,o),
(837,1140,o),
(837,1171,qs),
(837,1241,o),
(736,1338,o),
(665,1338,qs),
(601,1338,o),
(509,1268,o),
(507,1222,q),
(509,1195,l),
(413,1195,l),
(413,1303,l),
(511,1430,o),
(668,1430,qs),
(723,1430,o),
(822,1388,o),
(896,1320,o),
(937,1225,o),
(937,1169,qs),
(937,1125,o),
(914,1054,o),
(859,973,o),
(760,877,o),
(683,808,qs),
(525,663,l),
(845,663,l),
(845,795,l),
(934,795,l)
);
}
);
width = 1381;
}
);
unicode = 178;
},
{
glyphname = threesuperior;
layers = (
{
layerId = "AAC8411B-1049-4A7C-8FB8-170842CEFBED";
shapes = (
{
closed = 1;
nodes = (
(398,1333,l),
(483,1388,o),
(587,1430,o),
(644,1430,qs),
(749,1430,o),
(886,1305,o),
(886,1208,qs),
(886,1103,o),
(799,1028,q),
(927,949,o),
(927,813,qs),
(927,695,o),
(769,550,o),
(644,550,qs),
(593,550,o),
(505,573,o),
(426,606,qs),
(382,624,l),
(419,709,l),
(492,674,o),
(601,642,o),
(650,642,qs),
(729,642,o),
(831,738,o),
(831,813,qs),
(831,889,o),
(734,969,o),
(644,969,qs),
(589,969,l),
(589,1061,l),
(652,1063,o),
(707,1075,o),
(732,1094,qs),
(789,1137,o),
(789,1206,qs),
(789,1263,o),
(707,1338,o),
(644,1338,qs),
(606,1338,o),
(534,1314,o),
(481,1278,qs),
(446,1254,l)
);
}
);
width = 1381;
}
);
unicode = 179;
},
{
glyphname = acute;
layers = (
{
layerId = "AAC8411B-1049-4A7C-8FB8-170842CEFBED";
shapes = (
{
closed = 1;
nodes = (
(495,1158,l),
(700,1423,l),
(946,1423,l),
(617,1158,l)
);
}
);
width = 1381;
}
);
unicode = 180;
},
{
glyphname = mu;
layers = (
{
layerId = "AAC8411B-1049-4A7C-8FB8-170842CEFBED";
shapes = (
{
closed = 1;
nodes = (
(387,448,ls),
(387,393,o),
(391,316,o),
(402,257,o),
(424,217,o),
(439,196,q),
(483,138,o),
(613,83,o),
(677,83,qs),
(741,83,o),
(883,138,o),
(923,189,qs),
(944,217,o),
(969,270,o),
(982,329,o),
(988,402,o),
(988,448,qs),
(988,894,l),
(799,894,l),
(799,990,l),
(1103,990,l),
(1103,94,l),
(1294,94,l),
(1294,0,l),
(990,0,l),
(990,123,l),
(986,123,l),
(967,94,l),
(923,35,o),
(762,-33,o),
(681,-33,qs),
(640,-33,o),
(562,-11,o),
(495,16,o),
(448,46,o),
(439,57,q),
(419,79,o),
(405,92,o),
(384,108,q),
(384,-343,l),
(272,-343,l),
(272,894,l),
(83,894,l),
(83,990,l),
(387,990,l)
);
}
);
width = 1381;
}
);
unicode = 181;
},
{
glyphname = paragraph;
layers = (
{
layerId = "AAC8411B-1049-4A7C-8FB8-170842CEFBED";
shapes = (
{
closed = 1;
nodes = (
(1142,-108,l),
(1142,-178,l),
(874,-178,l),
(874,-108,l),
(918,-108,l),
(918,1227,l),
(729,1227,l),
(729,-108,l),
(773,-108,l),
(773,-178,l),
(483,-178,l),
(483,-108,l),
(626,-108,l),
(626,601,l),
(560,596,o),
(422,624,o),
(306,703,o),
(233,843,o),
(233,953,qs),
(233,1080,o),
(310,1220,o),
(433,1285,o),
(582,1296,o),
(656,1296,qs),
(1133,1296,l),
(1133,1227,l),
(1022,1227,l),
(1022,-108,l)
);
},
{
closed = 1;
nodes = (
(626,1227,l),
(587,1227,o),
(514,1217,o),
(456,1179,o),
(419,1096,o),
(419,1019,qs),
(419,881,ls),
(419,868,o),
(428,795,o),
(470,718,o),
(553,663,o),
(626,670,q)
);
}
);
width = 1381;
}
);
unicode = 182;
},
{
glyphname = periodcentered;
layers = (
{
layerId = "AAC8411B-1049-4A7C-8FB8-170842CEFBED";
shapes = (
{
closed = 1;
nodes = (
(725,854,o),
(787,831,o),
(837,789,o),
(868,732,o),
(868,698,qs),
(868,661,o),
(835,604,o),
(785,562,o),
(720,541,o),
(690,541,qs),
(661,541,o),
(598,562,o),
(545,601,o),
(514,659,o),
(514,698,qs),
(514,734,o),
(545,792,o),
(596,833,o),
(659,854,o),
(690,854,qs)
);
}
);
width = 1381;
}
);
unicode = 183;
},
{
glyphname = cedilla;
layers = (
{
layerId = "AAC8411B-1049-4A7C-8FB8-170842CEFBED";
shapes = (
{
closed = 1;
nodes = (
(741,-57,l),
(799,-66,o),
(863,-108,o),
(896,-154,o),
(903,-193,o),
(903,-200,qs),
(903,-211,o),
(894,-255,o),
(859,-299,o),
(782,-334,o),
(718,-334,qs),
(633,-334,o),
(497,-306,o),
(465,-299,q),
(481,-198,l),
(518,-207,o),
(642,-230,o),
(716,-230,qs),
(736,-230,ls),
(755,-230,o),
(795,-217,o),
(795,-200,qs),
(795,-169,o),
(695,-147,o),
(628,-143,q),
(644,-4,l),
(749,-4,l)
);
}
);
width = 1381;
}
);
unicode = 184;
},
{
glyphname = onesuperior;
layers = (
{
layerId = "AAC8411B-1049-4A7C-8FB8-170842CEFBED";
shapes = (
{
closed = 1;
nodes = (
(751,1430,l),
(751,663,l),
(980,663,l),
(980,571,l),
(422,571,l),
(422,663,l),
(656,663,l),
(656,1314,l),
(446,1222,l),
(410,1305,l),
(690,1430,l)
);
}
);
width = 1381;
}
);
unicode = 185;
},
{
glyphname = ordmasculine;
layers = (
{
layerId = "AAC8411B-1049-4A7C-8FB8-170842CEFBED";
shapes = (
{
closed = 1;
nodes = (
(396,1181,o),
(560,1335,o),
(690,1335,qs),
(822,1335,o),
(986,1181,o),
(986,1057,qs),
(986,932,o),
(822,780,o),
(690,780,qs),
(560,780,o),
(396,932,o),
(396,1057,qs)
);
},
{
closed = 1;
nodes = (
(488,971,o),
(601,863,o),
(690,863,qs),
(780,863,o),
(894,971,o),
(894,1059,qs),
(894,1144,o),
(780,1252,o),
(690,1252,qs),
(601,1252,o),
(488,1144,o),
(488,1059,qs)
);
},
{
closed = 1;
nodes = (
(971,613,l),
(410,613,l),
(410,695,l),
(971,695,l)
);
}
);
width = 1381;
}
);
unicode = 186;
},
{
glyphname = guillemotright;
layers = (
{
layerId = "AAC8411B-1049-4A7C-8FB8-170842CEFBED";
shapes = (
{
closed = 1;
nodes = (
(123,292,l),
(117,285,o),
(108,268,o),
(108,248,qs),
(108,217,o),
(163,175,o),
(205,175,qs),
(237,175,o),
(277,184,o),
(301,205,o),
(323,237,o),
(338,260,qs),
(650,723,l),
(338,1186,l),
(310,1225,o),
(262,1270,o),
(205,1270,qs),
(163,1270,o),
(108,1230,o),
(108,1197,qs),
(108,1179,o),
(117,1160,o),
(123,1153,q),
(400,723,l)
);
},
{
closed = 1;
nodes = (
(543,292,l),
(538,285,o),
(529,268,o),
(529,248,qs),
(529,217,o),
(584,175,o),
(626,175,qs),
(659,175,o),
(698,184,o),
(723,205,o),
(744,237,o),
(760,260,qs),
(1070,723,l),
(760,1186,l),
(746,1208,o),
(720,1241,o),
(692,1261,o),
(656,1270,o),
(626,1270,qs),
(584,1270,o),
(529,1230,o),
(529,1197,qs),
(529,1179,o),
(538,1160,o),
(543,1153,q),
(822,723,l)
);
}
);
width = 1193;
}
);
unicode = 187;
},
{
glyphname = onequarter;
layers = (
{
layerId = "AAC8411B-1049-4A7C-8FB8-170842CEFBED";
shapes = (
{
closed = 1;
nodes = (
(1353,106,l),
(1353,20,l),
(1232,20,l),
(1232,-94,l),
(1353,-94,l),
(1353,-178,l),
(990,-178,l),
(990,-94,l),
(1144,-94,l),
(1144,20,l),
(778,20,l),
(778,112,l),
(1121,681,l),
(1232,681,l),
(1232,106,l)
);
},
{
closed = 1;
nodes = (
(1140,555,l),
(874,106,l),
(1144,106,l),
(1144,555,l)
);
},
{
closed = 1;
nodes = (
(352,1432,l),
(352,661,l),
(527,661,l),
(527,573,l),
(88,573,l),
(88,661,l),
(265,661,l),
(265,1324,l),
(97,1254,l),
(60,1333,l),
(297,1432,l)
);
},
{
closed = 1;
nodes = (
(202,-207,l),
(138,-156,l),
(1312,1457,l),
(1377,1411,l)
);
}
);
width = 1381;
}
);
unicode = 188;
},
{
glyphname = onehalf;
layers = (
{
layerId = "AAC8411B-1049-4A7C-8FB8-170842CEFBED";
shapes = (
{
closed = 1;
nodes = (
(336,1432,l),
(336,661,l),
(511,661,l),
(511,573,l),
(71,573,l),
(71,661,l),
(248,661,l),
(248,1324,l),
(81,1254,l),
(44,1333,l),
(283,1432,l)
);
},
{
closed = 1;
nodes = (
(173,-207,l),
(108,-156,l),
(1280,1457,l),
(1347,1411,l)
);
},
{
closed = 1;
nodes = (
(1358,-178,l),
(831,-178,l),
(831,-88,l),
(837,-81,o),
(841,-79,o),
(859,-64,o),
(907,-20,o),
(962,30,q),
(1019,85,o),
(1103,163,o),
(1160,219,o),
(1199,257,o),
(1217,279,qs),
(1250,318,o),
(1270,382,o),
(1270,422,qs),
(1270,495,o),
(1171,591,o),
(1096,591,qs),
(1036,591,o),
(942,525,o),
(942,479,qs),
(942,474,o),
(944,463,o),
(944,451,q),
(856,451,l),
(856,555,l),
(955,679,o),
(1100,679,qs),
(1155,679,o),
(1252,640,o),
(1322,571,o),
(1360,477,o),
(1360,422,qs),
(1360,341,o),
(1266,189,o),
(1142,79,qs),
(999,-48,l),
(955,-90,l),
(1280,-90,l),
(1280,42,l),
(1358,42,l)
);
}
);
width = 1381;
}
);
unicode = 189;
},
{
glyphname = threequarters;
layers = (
{
layerId = "AAC8411B-1049-4A7C-8FB8-170842CEFBED";
shapes = (
{
closed = 1;
nodes = (
(1155,555,l),
(891,106,l),
(1160,106,l),
(1160,555,l)
);
},
{
closed = 1;
nodes = (
(1370,106,l),
(1370,20,l),
(1248,20,l),
(1248,-94,l),
(1370,-94,l),
(1370,-178,l),
(1006,-178,l),
(1006,-94,l),
(1160,-94,l),
(1160,20,l),
(795,20,l),
(795,112,l),
(1137,681,l),
(1248,681,l),
(1248,106,l)
);
},
{
closed = 1;
nodes = (
(66,1338,l),
(149,1390,o),
(255,1432,o),
(314,1432,qs),
(364,1432,o),
(453,1397,o),
(520,1340,o),
(558,1259,o),
(558,1213,qs),
(558,1155,o),
(514,1070,o),
(465,1032,q),
(598,955,o),
(598,815,qs),
(598,698,o),
(437,555,o),
(314,555,qs),
(288,555,o),
(244,560,o),
(193,573,o),
(134,593,o),
(92,610,qs),
(51,626,l),
(85,707,l),
(163,670,o),
(268,642,o),
(318,642,qs),
(400,642,o),
(507,736,o),
(507,815,qs),
(507,894,o),
(410,982,o),
(314,978,qs),
(262,976,l),
(262,1061,l),
(323,1063,o),
(380,1075,o),
(405,1094,q),
(465,1135,o),
(465,1211,qs),
(465,1270,o),
(380,1344,o),
(314,1344,qs),
(274,1344,o),
(200,1316,o),
(145,1285,q),
(110,1263,l)
);
},
{
closed = 1;
nodes = (
(219,-207,l),
(154,-156,l),
(1329,1457,l),
(1393,1411,l)
);
}
);
width = 1381;
}
);
unicode = 190;
},
{
glyphname = questiondown;
layers = (
{
layerId = "AAC8411B-1049-4A7C-8FB8-170842CEFBED";
shapes = (
{
closed = 1;
nodes = (
(1091,-242,l),
(1032,-262,o),
(937,-292,o),
(852,-314,o),
(767,-323,o),
(718,-323,qs),
(608,-323,o),
(442,-257,o),
(332,-154,o),
(277,-18,o),
(277,55,qs),
(277,156,o),
(364,292,o),
(490,380,o),
(635,430,o),
(692,446,q),
(692,584,l),
(806,584,l),
(806,362,l),
(801,359,o),
(771,352,o),
(760,350,q),
(703,336,o),
(573,297,o),
(468,230,o),
(396,127,o),
(396,48,qs),
(396,13,o),
(424,-76,o),
(495,-156,o),
(619,-209,o),
(716,-209,qs),
(801,-209,o),
(918,-178,o),
(976,-154,q),
(976,-7,l),
(1091,-7,l)
);
},
{
closed = 1;
nodes = (
(690,753,o),
(598,833,o),
(598,894,qs),
(598,955,o),
(692,1036,o),
(758,1036,qs),
(822,1036,o),
(916,955,o),
(916,894,qs),
(916,833,o),
(824,753,o),
(758,753,qs)
);
}
);
width = 1381;
}
);
unicode = 191;
},
{
glyphname = Agrave;
layers = (
{
layerId = "AAC8411B-1049-4A7C-8FB8-170842CEFBED";
shapes = (
{
closed = 1;
nodes = (
(1241,108,l),
(1358,108,l),
(1358,0,l),
(886,0,l),
(886,108,l),
(1121,108,l),
(990,428,l),
(389,428,l),
(260,108,l),
(495,108,l),
(495,0,l),
(22,0,l),
(22,108,l),
(145,108,l),
(589,1188,l),
(260,1188,l),
(260,1296,l),
(755,1296,l)
);
},
{
closed = 1;
nodes = (
(430,529,l),
(951,529,l),
(690,1160,l)
);
},
{
closed = 1;
nodes = (
(861,1465,l),
(741,1465,l),
(437,1729,l),
(683,1729,l)
);
}
);
width = 1381;
}
);
unicode = 192;
},
{
glyphname = Aacute;
layers = (
{
layerId = "AAC8411B-1049-4A7C-8FB8-170842CEFBED";
shapes = (
{
closed = 1;
nodes = (
(1241,108,l),
(1358,108,l),
(1358,0,l),
(886,0,l),
(886,108,l),
(1121,108,l),
(990,428,l),
(389,428,l),
(260,108,l),
(495,108,l),
(495,0,l),
(22,0,l),
(22,108,l),
(145,108,l),
(589,1188,l),
(260,1188,l),
(260,1296,l),
(755,1296,l)
);
},
{
closed = 1;
nodes = (
(430,529,l),
(951,529,l),
(690,1160,l)
);
},
{
closed = 1;
nodes = (
(495,1465,l),
(700,1729,l),
(946,1729,l),
(617,1465,l)
);
}
);
width = 1381;
}
);
unicode = 193;
},
{
glyphname = Acircumflex;
layers = (
{
layerId = "AAC8411B-1049-4A7C-8FB8-170842CEFBED";
shapes = (
{
closed = 1;
nodes = (
(1241,108,l),
(1358,108,l),
(1358,0,l),
(886,0,l),
(886,108,l),
(1121,108,l),
(990,428,l),
(389,428,l),
(260,108,l),
(495,108,l),
(495,0,l),
(22,0,l),
(22,108,l),
(145,108,l),
(589,1188,l),
(260,1188,l),
(260,1296,l),
(755,1296,l)
);
},
{
closed = 1;
nodes = (
(430,529,l),
(951,529,l),
(690,1160,l)
);
},
{
closed = 1;
nodes = (
(986,1520,l),
(912,1461,l),
(679,1614,l),
(470,1461,l),
(393,1517,l),
(596,1735,l),
(773,1735,l)
);
}
);
width = 1381;
}
);
unicode = 194;
},
{
glyphname = Atilde;
layers = (
{
layerId = "AAC8411B-1049-4A7C-8FB8-170842CEFBED";
shapes = (
{
closed = 1;
nodes = (
(1241,108,l),
(1358,108,l),
(1358,0,l),
(886,0,l),
(886,108,l),
(1121,108,l),
(990,428,l),
(389,428,l),
(260,108,l),
(495,108,l),
(495,0,l),
(22,0,l),
(22,108,l),
(145,108,l),
(589,1188,l),
(260,1188,l),
(260,1296,l),
(755,1296,l)
);
},
{
closed = 1;
nodes = (
(430,529,l),
(951,529,l),
(690,1160,l)
);
},
{
closed = 1;
nodes = (
(1059,1701,l),
(1054,1696,o),
(1054,1685,q),
(1026,1588,o),
(903,1489,o),
(828,1489,qs),
(789,1489,o),
(718,1522,o),
(665,1563,qs),
(610,1604,o),
(564,1630,o),
(538,1630,qs),
(492,1630,o),
(437,1556,o),
(419,1510,q),
(419,1507,o),
(417,1501,q),
(415,1496,l),
(323,1529,l),
(354,1616,o),
(453,1733,o),
(538,1733,qs),
(593,1733,o),
(672,1687,o),
(709,1656,q),
(753,1623,o),
(810,1593,o),
(835,1593,qs),
(865,1593,o),
(909,1623,o),
(940,1667,o),
(960,1713,o),
(967,1731,q)
);
}
);
width = 1381;
}
);
unicode = 195;
},
{
glyphname = Adieresis;
layers = (
{
layerId = "AAC8411B-1049-4A7C-8FB8-170842CEFBED";
shapes = (
{
closed = 1;
nodes = (
(1241,108,l),
(1358,108,l),
(1358,0,l),
(886,0,l),
(886,108,l),
(1121,108,l),
(990,428,l),
(389,428,l),
(260,108,l),
(495,108,l),
(495,0,l),
(22,0,l),
(22,108,l),
(145,108,l),
(589,1188,l),
(260,1188,l),
(260,1296,l),
(755,1296,l)
);
},
{
closed = 1;
nodes = (
(430,529,l),
(951,529,l),
(690,1160,l)
);
},
{
closed = 1;
nodes = (
(624,1735,l),
(624,1487,l),
(459,1487,l),
(459,1735,l)
);
},
{
closed = 1;
nodes = (
(923,1735,l),
(923,1487,l),
(758,1487,l),
(758,1735,l)
);
}
);
width = 1381;
}
);
unicode = 196;
},
{
glyphname = Aring;
layers = (
{
layerId = "AAC8411B-1049-4A7C-8FB8-170842CEFBED";
shapes = (
{
closed = 1;
nodes = (
(1241,108,l),
(1358,108,l),
(1358,0,l),
(886,0,l),
(886,108,l),
(1121,108,l),
(990,428,l),
(389,428,l),
(260,108,l),
(495,108,l),
(495,0,l),
(22,0,l),
(22,108,l),
(145,108,l),
(589,1188,l),
(260,1188,l),
(260,1296,l),
(755,1296,l)
);
},
{
closed = 1;
nodes = (
(430,529,l),
(951,529,l),
(690,1160,l)
);
},
{
closed = 1;
nodes = (
(764,1784,o),
(865,1683,o),
(865,1610,qs),
(865,1535,o),
(764,1434,o),
(690,1434,qs),
(617,1434,o),
(516,1535,o),
(516,1610,qs),
(516,1683,o),
(617,1784,o),
(690,1784,qs)
);
},
{
closed = 1;
nodes = (
(656,1696,o),
(604,1650,o),
(604,1610,qs),
(604,1572,o),
(656,1522,o),
(692,1522,qs),
(729,1522,o),
(778,1572,o),
(778,1610,qs),
(778,1646,o),
(729,1696,o),
(692,1696,qs)
);
}
);
width = 1381;
}
);
unicode = 197;
},
{
glyphname = AE;
layers = (
{
layerId = "AAC8411B-1049-4A7C-8FB8-170842CEFBED";
shapes = (
{
closed = 1;
nodes = (
(1263,881,l),
(1160,881,l),
(1140,1188,l),
(810,1188,l),
(810,741,l),
(960,741,l),
(960,909,l),
(1066,909,l),
(1066,465,l),
(960,465,l),
(960,633,l),
(810,633,l),
(810,108,l),
(1160,108,l),
(1173,428,l),
(1280,428,l),
(1280,0,l),
(695,0,l),
(695,424,l),
(413,424,l),
(281,108,l),
(486,108,l),
(486,0,l),
(44,0,l),
(44,108,l),
(165,108,l),
(601,1188,l),
(364,1188,l),
(364,1296,l),
(1263,1296,l)
);
},
{
closed = 1;
nodes = (
(690,1160,l),
(451,532,l),
(695,532,l),
(695,1160,l)
);
}
);
width = 1381;
}
);
unicode = 198;
},
{
glyphname = Ccedilla;
layers = (
{
layerId = "AAC8411B-1049-4A7C-8FB8-170842CEFBED";
shapes = (
{
closed = 1;
nodes = (
(815,-57,l),
(837,-57,o),
(894,-76,o),
(942,-112,o),
(976,-165,o),
(976,-200,qs),
(976,-209,o),
(967,-253,o),
(932,-299,o),
(856,-334,o),
(792,-334,qs),
(707,-334,o),
(571,-306,o),
(538,-299,q),
(555,-198,l),
(601,-209,o),
(716,-230,o),
(795,-230,qs),
(810,-230,ls),
(828,-230,o),
(868,-217,o),
(868,-200,qs),
(868,-169,o),
(769,-147,o),
(703,-143,q),
(716,-39,l),
(553,-22,o),
(334,125,o),
(202,329,o),
(147,562,o),
(147,663,qs),
(147,813,o),
(242,1061,o),
(407,1239,o),
(633,1335,o),
(764,1335,qs),
(801,1335,o),
(944,1314,o),
(1017,1268,q),
(1022,1263,o),
(1045,1245,o),
(1070,1225,o),
(1094,1211,o),
(1098,1211,qs),
(1105,1211,o),
(1116,1234,o),
(1123,1268,o),
(1131,1305,o),
(1133,1322,q),
(1217,1322,l),
(1213,1177,o),
(1230,973,o),
(1241,881,q),
(1133,863,l),
(1125,903,o),
(1096,1024,o),
(1019,1137,o),
(879,1220,o),
(760,1220,qs),
(672,1220,o),
(499,1153,o),
(359,1017,o),
(272,808,o),
(272,665,qs),
(272,555,o),
(327,343,o),
(448,178,o),
(637,76,o),
(769,76,qs),
(865,76,o),
(1032,129,o),
(1162,205,o),
(1259,285,o),
(1291,310,q),
(1368,228,l),
(1250,117,o),
(973,-26,o),
(815,-39,q)
);
}
);
width = 1381;
}
);
unicode = 199;
},
{
glyphname = Egrave;
layers = (
{
layerId = "AAC8411B-1049-4A7C-8FB8-170842CEFBED";
shapes = (
{
closed = 1;
nodes = (
(1234,872,l),
(1128,872,l),
(1105,1188,l),
(442,1188,l),
(442,738,l),
(815,738,l),
(815,907,l),
(921,907,l),
(921,465,l),
(815,465,l),
(815,631,l),
(442,631,l),
(442,108,l),
(1128,108,l),
(1140,424,l),
(1245,424,l),
(1245,0,l),
(132,0,l),
(132,108,l),
(327,108,l),
(327,1188,l),
(132,1188,l),
(132,1296,l),
(1225,1296,l)
);
},
{
closed = 1;
nodes = (
(861,1465,l),
(741,1465,l),
(437,1729,l),
(683,1729,l)
);
}
);
width = 1381;
}
);
unicode = 200;
},
{
glyphname = Eacute;
layers = (
{
layerId = "AAC8411B-1049-4A7C-8FB8-170842CEFBED";
shapes = (
{
closed = 1;
nodes = (
(1234,872,l),
(1128,872,l),
(1105,1188,l),
(442,1188,l),
(442,738,l),
(815,738,l),
(815,907,l),
(921,907,l),
(921,465,l),
(815,465,l),
(815,631,l),
(442,631,l),
(442,108,l),
(1128,108,l),
(1140,424,l),
(1245,424,l),
(1245,0,l),
(132,0,l),
(132,108,l),
(327,108,l),
(327,1188,l),
(132,1188,l),
(132,1296,l),
(1225,1296,l)
);
},
{
closed = 1;
nodes = (
(495,1465,l),
(700,1729,l),
(946,1729,l),
(617,1465,l)
);
}
);
width = 1381;
}
);
unicode = 201;
},
{
glyphname = Ecircumflex;
layers = (
{
layerId = "AAC8411B-1049-4A7C-8FB8-170842CEFBED";
shapes = (
{
closed = 1;
nodes = (
(1234,872,l),
(1128,872,l),
(1105,1188,l),
(442,1188,l),
(442,738,l),
(815,738,l),
(815,907,l),
(921,907,l),
(921,465,l),
(815,465,l),
(815,631,l),
(442,631,l),
(442,108,l),
(1128,108,l),
(1140,424,l),
(1245,424,l),
(1245,0,l),
(132,0,l),
(132,108,l),
(327,108,l),
(327,1188,l),
(132,1188,l),
(132,1296,l),
(1225,1296,l)
);
},
{
closed = 1;
nodes = (
(986,1520,l),
(912,1461,l),
(679,1614,l),
(470,1461,l),
(393,1517,l),
(596,1735,l),
(773,1735,l)
);
}
);
width = 1381;
}
);
unicode = 202;
},
{
glyphname = Edieresis;
layers = (
{
layerId = "AAC8411B-1049-4A7C-8FB8-170842CEFBED";
shapes = (
{
closed = 1;
nodes = (
(1234,872,l),
(1128,872,l),
(1105,1188,l),
(442,1188,l),
(442,738,l),
(815,738,l),
(815,907,l),
(921,907,l),
(921,465,l),
(815,465,l),
(815,631,l),
(442,631,l),
(442,108,l),
(1128,108,l),
(1140,424,l),
(1245,424,l),
(1245,0,l),
(132,0,l),
(132,108,l),
(327,108,l),
(327,1188,l),
(132,1188,l),
(132,1296,l),
(1225,1296,l)
);
},
{
closed = 1;
nodes = (
(624,1735,l),
(624,1487,l),
(459,1487,l),
(459,1735,l)
);
},
{
closed = 1;
nodes = (
(923,1735,l),
(923,1487,l),
(758,1487,l),
(758,1735,l)
);
}
);
width = 1381;
}
);
unicode = 203;
},
{
glyphname = Igrave;
layers = (
{
layerId = "AAC8411B-1049-4A7C-8FB8-170842CEFBED";
shapes = (
{
closed = 1;
nodes = (
(1151,1188,l),
(749,1188,l),
(749,108,l),
(1151,108,l),
(1151,0,l),
(230,0,l),
(230,108,l),
(633,108,l),
(633,1188,l),
(230,1188,l),
(230,1296,l),
(1151,1296,l)
);
},
{
closed = 1;
nodes = (
(861,1465,l),
(741,1465,l),
(437,1729,l),
(683,1729,l)
);
}
);
width = 1381;
}
);
unicode = 204;
},
{
glyphname = Iacute;
layers = (
{
layerId = "AAC8411B-1049-4A7C-8FB8-170842CEFBED";
shapes = (
{
closed = 1;
nodes = (
(1151,1188,l),
(749,1188,l),
(749,108,l),
(1151,108,l),
(1151,0,l),
(230,0,l),
(230,108,l),
(633,108,l),
(633,1188,l),
(230,1188,l),
(230,1296,l),
(1151,1296,l)
);
},
{
closed = 1;
nodes = (
(495,1465,l),
(700,1729,l),
(946,1729,l),
(617,1465,l)
);
}
);
width = 1381;
}
);
unicode = 205;
},
{
glyphname = Icircumflex;
layers = (
{
layerId = "AAC8411B-1049-4A7C-8FB8-170842CEFBED";
shapes = (
{
closed = 1;
nodes = (
(1151,1188,l),
(749,1188,l),
(749,108,l),
(1151,108,l),
(1151,0,l),
(230,0,l),
(230,108,l),
(633,108,l),
(633,1188,l),
(230,1188,l),
(230,1296,l),
(1151,1296,l)
);
},
{
closed = 1;
nodes = (
(986,1520,l),
(912,1461,l),
(679,1614,l),
(470,1461,l),
(393,1517,l),
(596,1735,l),
(773,1735,l)
);
}
);
width = 1381;
}
);
unicode = 206;
},
{
glyphname = Idieresis;
layers = (
{
layerId = "AAC8411B-1049-4A7C-8FB8-170842CEFBED";
shapes = (
{
closed = 1;
nodes = (
(1151,1188,l),
(749,1188,l),
(749,108,l),
(1151,108,l),
(1151,0,l),
(230,0,l),
(230,108,l),
(633,108,l),
(633,1188,l),
(230,1188,l),
(230,1296,l),
(1151,1296,l)
);
},
{
closed = 1;
nodes = (
(624,1735,l),
(624,1487,l),
(459,1487,l),
(459,1735,l)
);
},
{
closed = 1;
nodes = (
(923,1735,l),
(923,1487,l),
(758,1487,l),
(758,1735,l)
);
}
);
width = 1381;
}
);
unicode = 207;
},
{
glyphname = Eth;
layers = (
{
layerId = "AAC8411B-1049-4A7C-8FB8-170842CEFBED";
shapes = (
{
closed = 1;
nodes = (
(79,738,l),
(260,738,l),
(260,1188,l),
(79,1188,l),
(79,1296,l),
(654,1296,ls),
(729,1296,o),
(861,1285,o),
(973,1250,o),
(1077,1181,o),
(1125,1123,qs),
(1177,1061,o),
(1234,927,o),
(1261,804,o),
(1268,703,o),
(1268,672,qs),
(1268,569,o),
(1236,400,o),
(1184,270,o),
(1114,169,o),
(1077,134,qs),
(1024,83,o),
(900,30,o),
(780,4,o),
(677,0,o),
(644,0,qs),
(79,0,l),
(79,108,l),
(260,108,l),
(260,631,l),
(79,631,l)
);
},
{
closed = 1;
nodes = (
(375,108,l),
(644,108,ls),
(674,108,o),
(758,110,o),
(852,132,o),
(949,175,o),
(990,217,qs),
(1052,279,o),
(1144,507,o),
(1144,665,q),
(1142,773,o),
(1103,925,o),
(1048,1032,o),
(986,1096,o),
(960,1116,qs),
(900,1162,o),
(755,1188,o),
(656,1188,qs),
(375,1188,l),
(375,738,l),
(758,738,l),
(758,631,l),
(375,631,l)
);
}
);
width = 1381;
}
);
unicode = 208;
},
{
glyphname = Ntilde;
layers = (
{
layerId = "AAC8411B-1049-4A7C-8FB8-170842CEFBED";
shapes = (
{
closed = 1;
nodes = (
(1063,97,l),
(1105,97,l),
(1105,1188,l),
(847,1188,l),
(847,1296,l),
(1360,1296,l),
(1360,1188,l),
(1211,1188,l),
(1211,-30,l),
(1006,-30,l),
(389,1188,l),
(350,1188,l),
(350,108,l),
(610,108,l),
(610,0,l),
(64,0,l),
(64,108,l),
(244,108,l),
(244,1188,l),
(64,1188,l),
(64,1296,l),
(459,1296,l)
);
},
{
closed = 1;
nodes = (
(1059,1701,l),
(1054,1696,o),
(1054,1685,q),
(1026,1588,o),
(903,1489,o),
(828,1489,qs),
(789,1489,o),
(718,1522,o),
(665,1563,qs),
(610,1604,o),
(564,1630,o),
(538,1630,qs),
(492,1630,o),
(437,1556,o),
(419,1510,q),
(419,1507,o),
(417,1501,q),
(415,1496,l),
(323,1529,l),
(354,1616,o),
(453,1733,o),
(538,1733,qs),
(593,1733,o),
(672,1687,o),
(709,1656,q),
(753,1623,o),
(810,1593,o),
(835,1593,qs),
(865,1593,o),
(909,1623,o),
(940,1667,o),
(960,1713,o),
(967,1731,q)
);
}
);
width = 1381;
}
);
unicode = 209;
},
{
glyphname = Ograve;
layers = (
{
layerId = "AAC8411B-1049-4A7C-8FB8-170842CEFBED";
shapes = (
{
closed = 1;
nodes = (
(99,789,o),
(182,1041,o),
(336,1227,o),
(555,1335,o),
(690,1335,qs),
(828,1335,o),
(1048,1225,o),
(1202,1036,o),
(1282,787,o),
(1282,646,qs),
(1282,509,o),
(1199,257,o),
(1048,71,o),
(828,-39,o),
(690,-39,qs),
(555,-39,o),
(336,69,o),
(182,255,o),
(99,505,o),
(99,646,qs)
);
},
{
closed = 1;
nodes = (
(224,545,o),
(283,341,o),
(400,178,o),
(575,76,o),
(690,76,qs),
(804,76,o),
(978,175,o),
(1098,336,o),
(1158,541,o),
(1158,650,qs),
(1158,758,o),
(1096,964,o),
(976,1123,o),
(804,1220,o),
(690,1220,qs),
(571,1220,o),
(396,1116,o),
(281,953,o),
(224,749,o),
(224,650,qs)
);
},
{
closed = 1;
nodes = (
(861,1465,l),
(741,1465,l),
(437,1729,l),
(683,1729,l)
);
}
);
width = 1381;
}
);
unicode = 210;
},
{
glyphname = Oacute;
layers = (
{
layerId = "AAC8411B-1049-4A7C-8FB8-170842CEFBED";
shapes = (
{
closed = 1;
nodes = (
(99,789,o),
(182,1041,o),
(336,1227,o),
(555,1335,o),
(690,1335,qs),
(828,1335,o),
(1048,1225,o),
(1202,1036,o),
(1282,787,o),
(1282,646,qs),
(1282,509,o),
(1199,257,o),
(1048,71,o),
(828,-39,o),
(690,-39,qs),
(555,-39,o),
(336,69,o),
(182,255,o),
(99,505,o),
(99,646,qs)
);
},
{
closed = 1;
nodes = (
(224,545,o),
(283,341,o),
(400,178,o),
(575,76,o),
(690,76,qs),
(804,76,o),
(978,175,o),
(1098,336,o),
(1158,541,o),
(1158,650,qs),
(1158,758,o),
(1096,964,o),
(976,1123,o),
(804,1220,o),
(690,1220,qs),
(571,1220,o),
(396,1116,o),
(281,953,o),
(224,749,o),
(224,650,qs)
);
},
{
closed = 1;
nodes = (
(495,1465,l),
(700,1729,l),
(946,1729,l),
(617,1465,l)
);
}
);
width = 1381;
}
);
unicode = 211;
},
{
glyphname = Ocircumflex;
layers = (
{
layerId = "AAC8411B-1049-4A7C-8FB8-170842CEFBED";
shapes = (
{
closed = 1;
nodes = (
(99,789,o),
(182,1041,o),
(336,1227,o),
(555,1335,o),
(690,1335,qs),
(828,1335,o),
(1048,1225,o),
(1202,1036,o),
(1282,787,o),
(1282,646,qs),
(1282,509,o),
(1199,257,o),
(1048,71,o),
(828,-39,o),
(690,-39,qs),
(555,-39,o),
(336,69,o),
(182,255,o),
(99,505,o),
(99,646,qs)
);
},
{
closed = 1;
nodes = (
(224,545,o),
(283,341,o),
(400,178,o),
(575,76,o),
(690,76,qs),
(804,76,o),
(978,175,o),
(1098,336,o),
(1158,541,o),
(1158,650,qs),
(1158,758,o),
(1096,964,o),
(976,1123,o),
(804,1220,o),
(690,1220,qs),
(571,1220,o),
(396,1116,o),
(281,953,o),
(224,749,o),
(224,650,qs)
);
},
{
closed = 1;
nodes = (
(986,1520,l),
(912,1461,l),
(679,1614,l),
(470,1461,l),
(393,1517,l),
(596,1735,l),
(773,1735,l)
);
}
);
width = 1381;
}
);
unicode = 212;
},
{
glyphname = Otilde;
layers = (
{
layerId = "AAC8411B-1049-4A7C-8FB8-170842CEFBED";
shapes = (
{
closed = 1;
nodes = (
(99,789,o),
(182,1041,o),
(336,1227,o),
(555,1335,o),
(690,1335,qs),
(828,1335,o),
(1048,1225,o),
(1202,1036,o),
(1282,787,o),
(1282,646,qs),
(1282,509,o),
(1199,257,o),
(1048,71,o),
(828,-39,o),
(690,-39,qs),
(555,-39,o),
(336,69,o),
(182,255,o),
(99,505,o),
(99,646,qs)
);
},
{
closed = 1;
nodes = (
(224,545,o),
(283,341,o),
(400,178,o),
(575,76,o),
(690,76,qs),
(804,76,o),
(978,175,o),
(1098,336,o),
(1158,541,o),
(1158,650,qs),
(1158,758,o),
(1096,964,o),
(976,1123,o),
(804,1220,o),
(690,1220,qs),
(571,1220,o),
(396,1116,o),
(281,953,o),
(224,749,o),
(224,650,qs)
);
},
{
closed = 1;
nodes = (
(1059,1701,l),
(1054,1696,o),
(1054,1685,q),
(1026,1588,o),
(903,1489,o),
(828,1489,qs),
(789,1489,o),
(718,1522,o),
(665,1563,qs),
(610,1604,o),
(564,1630,o),
(538,1630,qs),
(492,1630,o),
(437,1556,o),
(419,1510,q),
(419,1507,o),
(417,1501,q),
(415,1496,l),
(323,1529,l),
(354,1616,o),
(453,1733,o),
(538,1733,qs),
(593,1733,o),
(672,1687,o),
(709,1656,q),
(753,1623,o),
(810,1593,o),
(835,1593,qs),
(865,1593,o),
(909,1623,o),
(940,1667,o),
(960,1713,o),
(967,1731,q)
);
}
);
width = 1381;
}
);
unicode = 213;
},
{
glyphname = Odieresis;
layers = (
{
layerId = "AAC8411B-1049-4A7C-8FB8-170842CEFBED";
shapes = (
{
closed = 1;
nodes = (
(99,789,o),
(182,1041,o),
(336,1227,o),
(555,1335,o),
(690,1335,qs),
(828,1335,o),
(1048,1225,o),
(1202,1036,o),
(1282,787,o),
(1282,646,qs),
(1282,509,o),
(1199,257,o),
(1048,71,o),
(828,-39,o),
(690,-39,qs),
(555,-39,o),
(336,69,o),
(182,255,o),
(99,505,o),
(99,646,qs)
);
},
{
closed = 1;
nodes = (
(224,545,o),
(283,341,o),
(400,178,o),
(575,76,o),
(690,76,qs),
(804,76,o),
(978,175,o),
(1098,336,o),
(1158,541,o),
(1158,650,qs),
(1158,758,o),
(1096,964,o),
(976,1123,o),
(804,1220,o),
(690,1220,qs),
(571,1220,o),
(396,1116,o),
(281,953,o),
(224,749,o),
(224,650,qs)
);
},
{
closed = 1;
nodes = (
(624,1735,l),
(624,1487,l),
(459,1487,l),
(459,1735,l)
);
},
{
closed = 1;
nodes = (
(923,1735,l),
(923,1487,l),
(758,1487,l),
(758,1735,l)
);
}
);
width = 1381;
}
);
unicode = 214;
},
{
glyphname = multiply;
layers = (
{
layerId = "AAC8411B-1049-4A7C-8FB8-170842CEFBED";
shapes = (
{
closed = 1;
nodes = (
(354,1123,l),
(690,787,l),
(1026,1123,l),
(1109,1043,l),
(771,705,l),
(1109,369,l),
(1026,285,l),
(690,624,l),
(354,285,l),
(272,369,l),
(610,705,l),
(272,1043,l)
);
}
);
width = 1381;
}
);
unicode = 215;
},
{
glyphname = Oslash;
layers = (
{
layerId = "AAC8411B-1049-4A7C-8FB8-170842CEFBED";
shapes = (
{
closed = 1;
nodes = (
(147,9,l),
(262,158,l),
(233,198,o),
(173,292,o),
(127,410,o),
(99,555,o),
(99,644,qs),
(99,787,o),
(182,1039,o),
(336,1227,o),
(555,1335,o),
(692,1335,qs),
(771,1335,o),
(889,1305,o),
(976,1261,o),
(1041,1211,o),
(1066,1193,q),
(1155,1305,l),
(1236,1245,l),
(1135,1116,l),
(1190,1050,o),
(1250,898,o),
(1278,760,o),
(1282,659,o),
(1282,642,qs),
(1282,507,o),
(1202,257,o),
(1050,71,o),
(833,-39,o),
(700,-39,qs),
(631,-39,o),
(444,2,o),
(341,85,q),
(226,-53,l)
);
},
{
closed = 1;
nodes = (
(407,180,l),
(424,165,o),
(472,132,o),
(541,99,o),
(631,76,o),
(690,76,qs),
(797,76,o),
(969,165,o),
(1091,320,o),
(1158,527,o),
(1158,644,qs),
(1158,845,o),
(1057,1015,q)
);
},
{
closed = 1;
nodes = (
(992,1098,l),
(958,1137,o),
(877,1186,o),
(797,1211,o),
(718,1220,o),
(688,1220,qs),
(578,1220,o),
(405,1123,o),
(285,964,o),
(224,760,o),
(224,652,qs),
(224,619,o),
(233,520,o),
(260,410,o),
(306,299,o),
(341,257,q)
);
}
);
width = 1381;
}
);
unicode = 216;
},
{
glyphname = Ugrave;
layers = (
{
layerId = "AAC8411B-1049-4A7C-8FB8-170842CEFBED";
shapes = (
{
closed = 1;
nodes = (
(571,1188,l),
(336,1188,l),
(336,538,ls),
(336,468,o),
(347,306,o),
(380,239,qs),
(413,171,o),
(555,76,o),
(688,76,qs),
(824,76,o),
(969,156,o),
(1001,221,q),
(1036,283,o),
(1048,437,o),
(1048,516,qs),
(1048,1188,l),
(813,1188,l),
(813,1296,l),
(1329,1296,l),
(1329,1188,l),
(1162,1188,l),
(1162,516,ls),
(1162,428,o),
(1151,306,o),
(1128,217,o),
(1098,154,o),
(1080,129,q),
(1061,101,o),
(992,44,o),
(894,-7,o),
(767,-39,o),
(690,-39,qs),
(650,-39,o),
(545,-26,o),
(439,16,o),
(338,85,o),
(299,141,qs),
(270,182,o),
(237,288,o),
(224,396,o),
(221,499,o),
(221,538,qs),
(221,1188,l),
(55,1188,l),
(55,1296,l),
(571,1296,l)
);
},
{
closed = 1;
nodes = (
(861,1465,l),
(741,1465,l),
(437,1729,l),
(683,1729,l)
);
}
);
width = 1381;
}
);
unicode = 217;
},
{
glyphname = Uacute;
layers = (
{
layerId = "AAC8411B-1049-4A7C-8FB8-170842CEFBED";
shapes = (
{
closed = 1;
nodes = (
(571,1188,l),
(336,1188,l),
(336,538,ls),
(336,468,o),
(347,306,o),
(380,239,qs),
(413,171,o),
(555,76,o),
(688,76,qs),
(824,76,o),
(969,156,o),
(1001,221,q),
(1036,283,o),
(1048,437,o),
(1048,516,qs),
(1048,1188,l),
(813,1188,l),
(813,1296,l),
(1329,1296,l),
(1329,1188,l),
(1162,1188,l),
(1162,516,ls),
(1162,428,o),
(1151,306,o),
(1128,217,o),
(1098,154,o),
(1080,129,q),
(1061,101,o),
(992,44,o),
(894,-7,o),
(767,-39,o),
(690,-39,qs),
(650,-39,o),
(545,-26,o),
(439,16,o),
(338,85,o),
(299,141,qs),
(270,182,o),
(237,288,o),
(224,396,o),
(221,499,o),
(221,538,qs),
(221,1188,l),
(55,1188,l),
(55,1296,l),
(571,1296,l)
);
},
{
closed = 1;
nodes = (
(495,1465,l),
(700,1729,l),
(946,1729,l),
(617,1465,l)
);
}
);
width = 1381;
}
);
unicode = 218;
},
{
glyphname = Ucircumflex;
layers = (
{
layerId = "AAC8411B-1049-4A7C-8FB8-170842CEFBED";
shapes = (
{
closed = 1;
nodes = (
(571,1188,l),
(336,1188,l),
(336,538,ls),
(336,468,o),
(347,306,o),
(380,239,qs),
(413,171,o),
(555,76,o),
(688,76,qs),
(824,76,o),
(969,156,o),
(1001,221,q),
(1036,283,o),
(1048,437,o),
(1048,516,qs),
(1048,1188,l),
(813,1188,l),
(813,1296,l),
(1329,1296,l),
(1329,1188,l),
(1162,1188,l),
(1162,516,ls),
(1162,428,o),
(1151,306,o),
(1128,217,o),
(1098,154,o),
(1080,129,q),
(1061,101,o),
(992,44,o),
(894,-7,o),
(767,-39,o),
(690,-39,qs),
(650,-39,o),
(545,-26,o),
(439,16,o),
(338,85,o),
(299,141,qs),
(270,182,o),
(237,288,o),
(224,396,o),
(221,499,o),
(221,538,qs),
(221,1188,l),
(55,1188,l),
(55,1296,l),
(571,1296,l)
);
},
{
closed = 1;
nodes = (
(986,1520,l),
(912,1461,l),
(679,1614,l),
(470,1461,l),
(393,1517,l),
(596,1735,l),
(773,1735,l)
);
}
);
width = 1381;
}
);
unicode = 219;
},
{
glyphname = Udieresis;
layers = (
{
layerId = "AAC8411B-1049-4A7C-8FB8-170842CEFBED";
shapes = (
{
closed = 1;
nodes = (
(571,1188,l),
(336,1188,l),
(336,538,ls),
(336,468,o),
(347,306,o),
(380,239,qs),
(413,171,o),
(555,76,o),
(688,76,qs),
(824,76,o),
(969,156,o),
(1001,221,q),
(1036,283,o),
(1048,437,o),
(1048,516,qs),
(1048,1188,l),
(813,1188,l),
(813,1296,l),
(1329,1296,l),
(1329,1188,l),
(1162,1188,l),
(1162,516,ls),
(1162,428,o),
(1151,306,o),
(1128,217,o),
(1098,154,o),
(1080,129,q),
(1061,101,o),
(992,44,o),
(894,-7,o),
(767,-39,o),
(690,-39,qs),
(650,-39,o),
(545,-26,o),
(439,16,o),
(338,85,o),
(299,141,qs),
(270,182,o),
(237,288,o),
(224,396,o),
(221,499,o),
(221,538,qs),
(221,1188,l),
(55,1188,l),
(55,1296,l),
(571,1296,l)
);
},
{
closed = 1;
nodes = (
(624,1735,l),
(624,1487,l),
(459,1487,l),
(459,1735,l)
);
},
{
closed = 1;
nodes = (
(923,1735,l),
(923,1487,l),
(758,1487,l),
(758,1735,l)
);
}
);
width = 1381;
}
);
unicode = 220;
},
{
glyphname = Yacute;
layers = (
{
layerId = "AAC8411B-1049-4A7C-8FB8-170842CEFBED";
shapes = (
{
closed = 1;
nodes = (
(525,1188,l),
(350,1188,l),
(698,617,l),
(1041,1188,l),
(861,1188,l),
(861,1296,l),
(1307,1296,l),
(1307,1188,l),
(1162,1188,l),
(751,501,l),
(751,108,l),
(1022,108,l),
(1022,0,l),
(362,0,l),
(362,108,l),
(635,108,l),
(635,501,l),
(219,1188,l),
(74,1188,l),
(74,1296,l),
(525,1296,l)
);
},
{
closed = 1;
nodes = (
(495,1465,l),
(700,1729,l),
(946,1729,l),
(617,1465,l)
);
}
);
width = 1381;
}
);
unicode = 221;
},
{
glyphname = Thorn;
layers = (
{
layerId = "AAC8411B-1049-4A7C-8FB8-170842CEFBED";
shapes = (
{
closed = 1;
nodes = (
(725,0,l),
(163,0,l),
(163,108,l),
(350,108,l),
(350,1188,l),
(163,1188,l),
(163,1296,l),
(725,1296,l),
(725,1188,l),
(465,1188,l),
(465,1070,l),
(591,1070,ls),
(698,1070,o),
(843,1066,o),
(946,1050,o),
(1022,1022,o),
(1059,999,qs),
(1133,953,o),
(1230,785,o),
(1230,679,qs),
(1230,575,o),
(1133,393,o),
(1059,352,q),
(1017,327,o),
(940,299,o),
(835,285,o),
(695,283,o),
(591,283,qs),
(465,283,l),
(465,108,l),
(725,108,l)
);
},
{
closed = 1;
nodes = (
(465,391,l),
(596,391,ls),
(736,391,o),
(949,405,o),
(1008,453,qs),
(1041,479,o),
(1105,589,o),
(1105,672,qs),
(1105,767,o),
(1013,894,o),
(967,916,q),
(946,927,o),
(900,944,o),
(837,955,o),
(753,962,o),
(690,962,qs),
(465,962,l)
);
}
);
width = 1381;
}
);
unicode = 222;
},
{
glyphname = germandbls;
layers = (
{
layerId = "AAC8411B-1049-4A7C-8FB8-170842CEFBED";
shapes = (
{
closed = 1;
nodes = (
(325,1039,ls),
(325,1131,o),
(387,1280,o),
(490,1384,o),
(624,1439,o),
(698,1439,qs),
(773,1439,o),
(896,1386,o),
(978,1296,o),
(1024,1177,o),
(1024,1109,qs),
(1024,1006,o),
(914,850,o),
(833,817,q),
(865,806,o),
(982,758,o),
(1096,659,o),
(1181,495,o),
(1181,371,qs),
(1181,294,o),
(1133,154,o),
(1036,48,o),
(896,-16,o),
(804,-16,qs),
(690,-16,o),
(566,42,o),
(538,60,q),
(538,180,l),
(580,154,o),
(709,99,o),
(801,99,qs),
(843,99,o),
(932,129,o),
(1008,196,o),
(1057,303,o),
(1057,382,qs),
(1057,734,o),
(591,751,q),
(591,856,l),
(615,859,o),
(718,872,o),
(824,923,o),
(905,1019,o),
(905,1107,qs),
(905,1199,o),
(799,1324,o),
(692,1324,qs),
(650,1324,o),
(560,1294,o),
(486,1225,o),
(439,1107,o),
(439,1019,qs),
(439,0,l),
(149,0,l),
(149,108,l),
(325,108,l)
);
}
);
width = 1381;
}
);
unicode = 223;
},
{
glyphname = agrave;
layers = (
{
layerId = "AAC8411B-1049-4A7C-8FB8-170842CEFBED";
shapes = (
{
closed = 1;
nodes = (
(1266,108,l),
(1266,0,l),
(946,0,l),
(946,165,l),
(912,134,o),
(817,62,o),
(707,4,o),
(578,-33,o),
(507,-33,qs),
(419,-33,o),
(283,26,o),
(187,117,o),
(136,233,o),
(136,292,qs),
(136,338,o),
(182,459,o),
(292,566,o),
(481,640,o),
(624,640,qs),
(631,640,o),
(695,637,o),
(785,631,o),
(894,619,o),
(946,610,q),
(946,681,ls),
(946,709,o),
(937,792,o),
(886,870,o),
(771,925,o),
(668,925,qs),
(606,925,o),
(413,889,o),
(274,828,q),
(230,932,l),
(303,964,o),
(532,1036,o),
(670,1036,qs),
(817,1036,o),
(976,951,o),
(1050,833,o),
(1061,716,o),
(1061,681,qs),
(1061,108,l)
);
},
{
closed = 1;
nodes = (
(946,505,l),
(907,511,o),
(744,529,o),
(646,529,qs),
(505,529,o),
(347,463,o),
(274,378,o),
(260,299,o),
(260,290,qs),
(260,246,o),
(299,171,o),
(369,112,o),
(456,79,o),
(505,79,qs),
(532,79,o),
(622,92,o),
(736,141,o),
(872,237,o),
(946,320,q)
);
},
{
closed = 1;
nodes = (
(861,1158,l),
(741,1158,l),
(437,1423,l),
(683,1423,l)
);
}
);
width = 1381;
}
);
unicode = 224;
},
{
glyphname = aacute;
layers = (
{
layerId = "AAC8411B-1049-4A7C-8FB8-170842CEFBED";
shapes = (
{
closed = 1;
nodes = (
(1266,108,l),
(1266,0,l),
(946,0,l),
(946,165,l),
(912,134,o),
(817,62,o),
(707,4,o),
(578,-33,o),
(507,-33,qs),
(419,-33,o),
(283,26,o),
(187,117,o),
(136,233,o),
(136,292,qs),
(136,338,o),
(182,459,o),
(292,566,o),
(481,640,o),
(624,640,qs),
(631,640,o),
(695,637,o),
(785,631,o),
(894,619,o),
(946,610,q),
(946,681,ls),
(946,709,o),
(937,792,o),
(886,870,o),
(771,925,o),
(668,925,qs),
(606,925,o),
(413,889,o),
(274,828,q),
(230,932,l),
(303,964,o),
(532,1036,o),
(670,1036,qs),
(817,1036,o),
(976,951,o),
(1050,833,o),
(1061,716,o),
(1061,681,qs),
(1061,108,l)
);
},
{
closed = 1;
nodes = (
(946,505,l),
(907,511,o),
(744,529,o),
(646,529,qs),
(505,529,o),
(347,463,o),
(274,378,o),
(260,299,o),
(260,290,qs),
(260,246,o),
(299,171,o),
(369,112,o),
(456,79,o),
(505,79,qs),
(532,79,o),
(622,92,o),
(736,141,o),
(872,237,o),
(946,320,q)
);
},
{
closed = 1;
nodes = (
(495,1158,l),
(700,1423,l),
(946,1423,l),
(617,1158,l)
);
}
);
width = 1381;
}
);
unicode = 225;
},
{
glyphname = acircumflex;
layers = (
{
layerId = "AAC8411B-1049-4A7C-8FB8-170842CEFBED";
shapes = (
{
closed = 1;
nodes = (
(1266,108,l),
(1266,0,l),
(946,0,l),
(946,165,l),
(912,134,o),
(817,62,o),
(707,4,o),
(578,-33,o),
(507,-33,qs),
(419,-33,o),
(283,26,o),
(187,117,o),
(136,233,o),
(136,292,qs),
(136,338,o),
(182,459,o),
(292,566,o),
(481,640,o),
(624,640,qs),
(631,640,o),
(695,637,o),
(785,631,o),
(894,619,o),
(946,610,q),
(946,681,ls),
(946,709,o),
(937,792,o),
(886,870,o),
(771,925,o),
(668,925,qs),
(606,925,o),
(413,889,o),
(274,828,q),
(230,932,l),
(303,964,o),
(532,1036,o),
(670,1036,qs),
(817,1036,o),
(976,951,o),
(1050,833,o),
(1061,716,o),
(1061,681,qs),
(1061,108,l)
);
},
{
closed = 1;
nodes = (
(946,505,l),
(907,511,o),
(744,529,o),
(646,529,qs),
(505,529,o),
(347,463,o),
(274,378,o),
(260,299,o),
(260,290,qs),
(260,246,o),
(299,171,o),
(369,112,o),
(456,79,o),
(505,79,qs),
(532,79,o),
(622,92,o),
(736,141,o),
(872,237,o),
(946,320,q)
);
},
{
closed = 1;
nodes = (
(942,1213,l),
(868,1155,l),
(635,1307,l),
(426,1155,l),
(350,1211,l),
(553,1430,l),
(729,1430,l)
);
}
);
width = 1381;
}
);
unicode = 226;
},
{
glyphname = atilde;
layers = (
{
layerId = "AAC8411B-1049-4A7C-8FB8-170842CEFBED";
shapes = (
{
closed = 1;
nodes = (
(1266,108,l),
(1266,0,l),
(946,0,l),
(946,165,l),
(912,134,o),
(817,62,o),
(707,4,o),
(578,-33,o),
(507,-33,qs),
(419,-33,o),
(283,26,o),
(187,117,o),
(136,233,o),
(136,292,qs),
(136,338,o),
(182,459,o),
(292,566,o),
(481,640,o),
(624,640,qs),
(631,640,o),
(695,637,o),
(785,631,o),
(894,619,o),
(946,610,q),
(946,681,ls),
(946,709,o),
(937,792,o),
(886,870,o),
(771,925,o),
(668,925,qs),
(606,925,o),
(413,889,o),
(274,828,q),
(230,932,l),
(303,964,o),
(532,1036,o),
(670,1036,qs),
(817,1036,o),
(976,951,o),
(1050,833,o),
(1061,716,o),
(1061,681,qs),
(1061,108,l)
);
},
{
closed = 1;
nodes = (
(946,505,l),
(907,511,o),
(744,529,o),
(646,529,qs),
(505,529,o),
(347,463,o),
(274,378,o),
(260,299,o),
(260,290,qs),
(260,246,o),
(299,171,o),
(369,112,o),
(456,79,o),
(505,79,qs),
(532,79,o),
(622,92,o),
(736,141,o),
(872,237,o),
(946,320,q)
);
},
{
closed = 1;
nodes = (
(1059,1395,l),
(1054,1390,o),
(1054,1379,q),
(1026,1282,o),
(903,1184,o),
(828,1184,qs),
(789,1184,o),
(718,1215,o),
(665,1257,q),
(610,1298,o),
(564,1324,o),
(538,1324,qs),
(492,1324,o),
(437,1250,o),
(419,1204,q),
(419,1202,o),
(417,1197,q),
(415,1190,l),
(323,1222,l),
(354,1309,o),
(453,1427,o),
(538,1427,qs),
(593,1427,o),
(672,1381,o),
(709,1349,q),
(753,1316,o),
(810,1287,o),
(835,1287,qs),
(865,1287,o),
(909,1316,o),
(940,1360,o),
(960,1406,o),
(967,1425,q)
);
}
);
width = 1381;
}
);
unicode = 227;
},
{
glyphname = adieresis;
layers = (
{
layerId = "AAC8411B-1049-4A7C-8FB8-170842CEFBED";
shapes = (
{
closed = 1;
nodes = (
(1266,108,l),
(1266,0,l),
(946,0,l),
(946,165,l),
(912,134,o),
(817,62,o),
(707,4,o),
(578,-33,o),
(507,-33,qs),
(419,-33,o),
(283,26,o),
(187,117,o),
(136,233,o),
(136,292,qs),
(136,338,o),
(182,459,o),
(292,566,o),
(481,640,o),
(624,640,qs),
(631,640,o),
(695,637,o),
(785,631,o),
(894,619,o),
(946,610,q),
(946,681,ls),
(946,709,o),
(937,792,o),
(886,870,o),
(771,925,o),
(668,925,qs),
(606,925,o),
(413,889,o),
(274,828,q),
(230,932,l),
(303,964,o),
(532,1036,o),
(670,1036,qs),
(817,1036,o),
(976,951,o),
(1050,833,o),
(1061,716,o),
(1061,681,qs),
(1061,108,l)
);
},
{
closed = 1;
nodes = (
(946,505,l),
(907,511,o),
(744,529,o),
(646,529,qs),
(505,529,o),
(347,463,o),
(274,378,o),
(260,299,o),
(260,290,qs),
(260,246,o),
(299,171,o),
(369,112,o),
(456,79,o),
(505,79,qs),
(532,79,o),
(622,92,o),
(736,141,o),
(872,237,o),
(946,320,q)
);
},
{
closed = 1;
nodes = (
(580,1430,l),
(580,1181,l),
(415,1181,l),
(415,1430,l)
);
},
{
closed = 1;
nodes = (
(879,1430,l),
(879,1181,l),
(714,1181,l),
(714,1430,l)
);
}
);
width = 1381;
}
);
unicode = 228;
},
{
glyphname = aring;
layers = (
{
layerId = "AAC8411B-1049-4A7C-8FB8-170842CEFBED";
shapes = (
{
closed = 1;
nodes = (
(1266,108,l),
(1266,0,l),
(946,0,l),
(946,165,l),
(912,134,o),
(817,62,o),
(707,4,o),
(578,-33,o),
(507,-33,qs),
(419,-33,o),
(283,26,o),
(187,117,o),
(136,233,o),
(136,292,qs),
(136,338,o),
(182,459,o),
(292,566,o),
(481,640,o),
(624,640,qs),
(631,640,o),
(695,637,o),
(785,631,o),
(894,619,o),
(946,610,q),
(946,681,ls),
(946,709,o),
(937,792,o),
(886,870,o),
(771,925,o),
(668,925,qs),
(606,925,o),
(413,889,o),
(274,828,q),
(230,932,l),
(303,964,o),
(532,1036,o),
(670,1036,qs),
(817,1036,o),
(976,951,o),
(1050,833,o),
(1061,716,o),
(1061,681,qs),
(1061,108,l)
);
},
{
closed = 1;
nodes = (
(946,505,l),
(907,511,o),
(744,529,o),
(646,529,qs),
(505,529,o),
(347,463,o),
(274,378,o),
(260,299,o),
(260,290,qs),
(260,246,o),
(299,171,o),
(369,112,o),
(456,79,o),
(505,79,qs),
(532,79,o),
(622,92,o),
(736,141,o),
(872,237,o),
(946,320,q)
);
},
{
closed = 1;
nodes = (
(764,1478,o),
(865,1377,o),
(865,1303,qs),
(865,1230,o),
(764,1128,o),
(690,1128,qs),
(617,1128,o),
(516,1230,o),
(516,1303,qs),
(516,1377,o),
(617,1478,o),
(690,1478,qs)
);
},
{
closed = 1;
nodes = (
(656,1390,o),
(604,1344,o),
(604,1303,qs),
(604,1266,o),
(656,1215,o),
(692,1215,qs),
(729,1215,o),
(778,1266,o),
(778,1303,qs),
(778,1340,o),
(729,1390,o),
(692,1390,qs)
);
}
);
width = 1381;
}
);
unicode = 229;
},
{
glyphname = ae;
layers = (
{
layerId = "AAC8411B-1049-4A7C-8FB8-170842CEFBED";
shapes = (
{
closed = 1;
nodes = (
(736,468,l),
(741,369,o),
(764,235,o),
(810,175,qs),
(863,106,o),
(973,79,o),
(1006,79,qs),
(1075,79,o),
(1208,110,o),
(1266,129,q),
(1307,30,l),
(1184,-13,o),
(1032,-33,o),
(1001,-33,qs),
(932,-33,o),
(831,9,o),
(760,64,o),
(716,123,o),
(705,138,q),
(652,85,o),
(553,16,o),
(465,-20,o),
(391,-35,o),
(362,-35,qs),
(292,-35,o),
(187,16,o),
(112,101,o),
(76,209,o),
(76,268,qs),
(76,325,o),
(123,448,o),
(211,547,o),
(350,613,o),
(444,613,qs),
(483,613,o),
(558,601,o),
(622,591,q),
(622,672,ls),
(622,792,o),
(558,925,o),
(453,925,qs),
(393,925,o),
(274,898,o),
(178,863,q),
(145,964,l),
(242,1001,o),
(384,1036,o),
(456,1036,qs),
(518,1036,o),
(604,1008,o),
(659,960,o),
(692,898,o),
(705,863,q),
(723,886,o),
(771,949,o),
(837,999,o),
(923,1036,o),
(978,1036,qs),
(988,1036,o),
(1045,1028,o),
(1121,997,o),
(1202,927,o),
(1266,801,o),
(1303,608,o),
(1296,468,q)
);
},
{
closed = 1;
nodes = (
(622,481,l),
(562,492,o),
(486,501,o),
(446,501,qs),
(369,501,o),
(270,451,o),
(211,380,o),
(191,297,o),
(191,268,qs),
(191,233,o),
(211,165,o),
(253,110,o),
(316,76,o),
(359,76,qs),
(400,76,o),
(481,103,o),
(547,145,o),
(604,189,o),
(622,205,q)
);
},
{
closed = 1;
nodes = (
(1181,575,l),
(1169,925,o),
(976,925,qs),
(916,925,o),
(833,863,o),
(808,833,qs),
(758,771,o),
(738,650,o),
(736,575,q)
);
}
);
width = 1381;
}
);
unicode = 230;
},
{
glyphname = ccedilla;
layers = (
{
layerId = "AAC8411B-1049-4A7C-8FB8-170842CEFBED";
shapes = (
{
closed = 1;
nodes = (
(760,-60,l),
(808,-71,o),
(854,-147,o),
(854,-187,qs),
(854,-205,o),
(841,-255,o),
(810,-301,o),
(758,-332,o),
(716,-332,qs),
(670,-332,o),
(610,-299,o),
(582,-281,q),
(633,-196,l),
(670,-221,o),
(690,-230,o),
(707,-230,qs),
(734,-230,o),
(751,-200,o),
(751,-189,qs),
(751,-158,o),
(711,-149,o),
(703,-149,qs),
(683,-149,o),
(661,-152,o),
(650,-154,q),
(659,-30,l),
(569,-28,o),
(391,46,o),
(251,182,o),
(163,375,o),
(163,497,qs),
(163,589,o),
(230,776,o),
(364,927,o),
(571,1024,o),
(714,1024,qs),
(804,1024,o),
(942,980,o),
(1013,930,q),
(1015,927,o),
(1041,909,o),
(1059,896,o),
(1061,896,q),
(1068,896,o),
(1077,921,o),
(1080,925,q),
(1098,1019,l),
(1204,1008,l),
(1199,973,o),
(1184,856,o),
(1184,797,qs),
(1184,734,o),
(1190,644,q),
(1085,628,l),
(1066,707,o),
(1034,797,o),
(990,833,qs),
(958,859,o),
(883,889,o),
(813,905,o),
(749,909,o),
(725,909,qs),
(615,909,o),
(451,837,o),
(341,720,o),
(288,575,o),
(288,499,qs),
(288,426,o),
(338,279,o),
(442,158,o),
(604,83,o),
(716,83,qs),
(841,83,o),
(1077,191,o),
(1204,279,q),
(1263,191,l),
(1137,94,o),
(905,-16,o),
(760,-30,q)
);
}
);
width = 1381;
}
);
unicode = 231;
},
{
glyphname = egrave;
layers = (
{
layerId = "AAC8411B-1049-4A7C-8FB8-170842CEFBED";
shapes = (
{
closed = 1;
nodes = (
(1287,132,l),
(1241,106,o),
(1116,48,o),
(971,0,o),
(810,-33,o),
(729,-33,qs),
(589,-33,o),
(380,55,o),
(239,200,o),
(171,391,o),
(171,492,qs),
(171,598,o),
(246,792,o),
(387,940,o),
(589,1024,o),
(716,1024,qs),
(847,1024,o),
(1043,942,o),
(1173,808,o),
(1239,644,o),
(1239,566,qs),
(1239,538,o),
(1234,474,o),
(1234,463,q),
(294,463,l),
(297,417,o),
(334,285,o),
(430,165,o),
(598,79,o),
(732,79,qs),
(804,79,o),
(953,112,o),
(1087,161,o),
(1197,214,o),
(1234,233,q)
);
},
{
closed = 1;
nodes = (
(1114,571,l),
(1114,626,o),
(1066,749,o),
(969,850,o),
(819,914,o),
(716,914,qs),
(601,914,o),
(446,835,o),
(350,727,o),
(301,610,o),
(294,571,q)
);
},
{
closed = 1;
nodes = (
(900,1158,l),
(780,1158,l),
(477,1423,l),
(723,1423,l)
);
}
);
width = 1381;
}
);
unicode = 232;
},
{
glyphname = eacute;
layers = (
{
layerId = "AAC8411B-1049-4A7C-8FB8-170842CEFBED";
shapes = (
{
closed = 1;
nodes = (
(1287,132,l),
(1241,106,o),
(1116,48,o),
(971,0,o),
(810,-33,o),
(729,-33,qs),
(589,-33,o),
(380,55,o),
(239,200,o),
(171,391,o),
(171,492,qs),
(171,598,o),
(246,792,o),
(387,940,o),
(589,1024,o),
(716,1024,qs),
(847,1024,o),
(1043,942,o),
(1173,808,o),
(1239,644,o),
(1239,566,qs),
(1239,538,o),
(1234,474,o),
(1234,463,q),
(294,463,l),
(297,417,o),
(334,285,o),
(430,165,o),
(598,79,o),
(732,79,qs),
(804,79,o),
(953,112,o),
(1087,161,o),
(1197,214,o),
(1234,233,q)
);
},
{
closed = 1;
nodes = (
(1114,571,l),
(1114,626,o),
(1066,749,o),
(969,850,o),
(819,914,o),
(716,914,qs),
(601,914,o),
(446,835,o),
(350,727,o),
(301,610,o),
(294,571,q)
);
},
{
closed = 1;
nodes = (
(495,1158,l),
(700,1423,l),
(946,1423,l),
(617,1158,l)
);
}
);
width = 1381;
}
);
unicode = 233;
},
{
glyphname = ecircumflex;
layers = (
{
layerId = "AAC8411B-1049-4A7C-8FB8-170842CEFBED";
shapes = (
{
closed = 1;
nodes = (
(1287,132,l),
(1241,106,o),
(1116,48,o),
(971,0,o),
(810,-33,o),
(729,-33,qs),
(589,-33,o),
(380,55,o),
(239,200,o),
(171,391,o),
(171,492,qs),
(171,598,o),
(246,792,o),
(387,940,o),
(589,1024,o),
(716,1024,qs),
(847,1024,o),
(1043,942,o),
(1173,808,o),
(1239,644,o),
(1239,566,qs),
(1239,538,o),
(1234,474,o),
(1234,463,q),
(294,463,l),
(297,417,o),
(334,285,o),
(430,165,o),
(598,79,o),
(732,79,qs),
(804,79,o),
(953,112,o),
(1087,161,o),
(1197,214,o),
(1234,233,q)
);
},
{
closed = 1;
nodes = (
(1114,571,l),
(1114,626,o),
(1066,749,o),
(969,850,o),
(819,914,o),
(716,914,qs),
(601,914,o),
(446,835,o),
(350,727,o),
(301,610,o),
(294,571,q)
);
},
{
closed = 1;
nodes = (
(986,1213,l),
(912,1155,l),
(679,1307,l),
(470,1155,l),
(393,1211,l),
(596,1430,l),
(773,1430,l)
);
}
);
width = 1381;
}
);
unicode = 234;
},
{
glyphname = edieresis;
layers = (
{
layerId = "AAC8411B-1049-4A7C-8FB8-170842CEFBED";
shapes = (
{
closed = 1;
nodes = (
(1287,132,l),
(1241,106,o),
(1116,48,o),
(971,0,o),
(810,-33,o),
(729,-33,qs),
(589,-33,o),
(380,55,o),
(239,200,o),
(171,391,o),
(171,492,qs),
(171,598,o),
(246,792,o),
(387,940,o),
(589,1024,o),
(716,1024,qs),
(847,1024,o),
(1043,942,o),
(1173,808,o),
(1239,644,o),
(1239,566,qs),
(1239,538,o),
(1234,474,o),
(1234,463,q),
(294,463,l),
(297,417,o),
(334,285,o),
(430,165,o),
(598,79,o),
(732,79,qs),
(804,79,o),
(953,112,o),
(1087,161,o),
(1197,214,o),
(1234,233,q)
);
},
{
closed = 1;
nodes = (
(1114,571,l),
(1114,626,o),
(1066,749,o),
(969,850,o),
(819,914,o),
(716,914,qs),
(601,914,o),
(446,835,o),
(350,727,o),
(301,610,o),
(294,571,q)
);
},
{
closed = 1;
nodes = (
(624,1430,l),
(624,1181,l),
(459,1181,l),
(459,1430,l)
);
},
{
closed = 1;
nodes = (
(923,1430,l),
(923,1181,l),
(758,1181,l),
(758,1430,l)
);
}
);
width = 1381;
}
);
unicode = 235;
},
{
glyphname = igrave;
layers = (
{
layerId = "AAC8411B-1049-4A7C-8FB8-170842CEFBED";
shapes = (
{
closed = 1;
nodes = (
(861,1158,l),
(741,1158,l),
(437,1423,l),
(683,1423,l)
);
},
{
closed = 1;
nodes = (
(753,108,l),
(1151,108,l),
(1151,0,l),
(233,0,l),
(233,108,l),
(637,108,l),
(637,881,l),
(299,881,l),
(299,990,l),
(753,990,l)
);
}
);
width = 1381;
}
);
unicode = 236;
},
{
glyphname = iacute;
layers = (
{
layerId = "AAC8411B-1049-4A7C-8FB8-170842CEFBED";
shapes = (
{
closed = 1;
nodes = (
(495,1158,l),
(700,1423,l),
(946,1423,l),
(617,1158,l)
);
},
{
closed = 1;
nodes = (
(753,108,l),
(1151,108,l),
(1151,0,l),
(233,0,l),
(233,108,l),
(637,108,l),
(637,881,l),
(299,881,l),
(299,990,l),
(753,990,l)
);
}
);
width = 1381;
}
);
unicode = 237;
},
{
glyphname = icircumflex;
layers = (
{
layerId = "AAC8411B-1049-4A7C-8FB8-170842CEFBED";
shapes = (
{
closed = 1;
nodes = (
(986,1213,l),
(912,1155,l),
(679,1307,l),
(470,1155,l),
(393,1211,l),
(596,1430,l),
(773,1430,l)
);
},
{
closed = 1;
nodes = (
(753,108,l),
(1151,108,l),
(1151,0,l),
(233,0,l),
(233,108,l),
(637,108,l),
(637,881,l),
(299,881,l),
(299,990,l),
(753,990,l)
);
}
);
width = 1381;
}
);
unicode = 238;
},
{
glyphname = idieresis;
layers = (
{
layerId = "AAC8411B-1049-4A7C-8FB8-170842CEFBED";
shapes = (
{
closed = 1;
nodes = (
(624,1430,l),
(624,1181,l),
(459,1181,l),
(459,1430,l)
);
},
{
closed = 1;
nodes = (
(923,1430,l),
(923,1181,l),
(758,1181,l),
(758,1430,l)
);
},
{
closed = 1;
nodes = (
(753,108,l),
(1151,108,l),
(1151,0,l),
(233,0,l),
(233,108,l),
(637,108,l),
(637,881,l),
(299,881,l),
(299,990,l),
(753,990,l)
);
}
);
width = 1381;
}
);
unicode = 239;
},
{
glyphname = eth;
layers = (
{
layerId = "AAC8411B-1049-4A7C-8FB8-170842CEFBED";
shapes = (
{
closed = 1;
nodes = (
(391,1188,l),
(507,1362,l),
(463,1384,o),
(398,1413,o),
(341,1436,o),
(285,1454,o),
(251,1467,q),
(290,1579,l),
(334,1566,o),
(400,1542,o),
(463,1517,o),
(529,1487,o),
(571,1467,q),
(665,1621,l),
(764,1556,l),
(674,1413,l),
(709,1393,o),
(824,1316,o),
(955,1208,o),
(1087,1063,o),
(1195,879,o),
(1261,656,o),
(1261,523,qs),
(1261,389,o),
(1173,182,o),
(1019,42,o),
(810,-33,o),
(690,-33,qs),
(547,-33,o),
(334,60,o),
(191,209,o),
(119,400,o),
(119,501,qs),
(119,628,o),
(211,826,o),
(366,964,o),
(564,1036,o),
(670,1036,qs),
(760,1036,o),
(934,999,o),
(986,973,q),
(990,978,l),
(958,1019,o),
(894,1096,o),
(808,1177,o),
(692,1259,o),
(610,1307,q),
(490,1118,l)
);
},
{
closed = 1;
nodes = (
(244,419,o),
(301,268,o),
(417,147,o),
(582,76,o),
(690,76,qs),
(801,76,o),
(969,149,o),
(1080,270,o),
(1137,422,o),
(1137,501,qs),
(1137,580,o),
(1080,734,o),
(967,854,o),
(801,927,o),
(690,927,qs),
(582,927,o),
(417,856,o),
(303,738,o),
(244,584,o),
(244,501,qs)
);
}
);
width = 1381;
}
);
unicode = 240;
},
{
glyphname = ntilde;
layers = (
{
layerId = "AAC8411B-1049-4A7C-8FB8-170842CEFBED";
shapes = (
{
closed = 1;
nodes = (
(382,861,l),
(419,889,o),
(507,946,o),
(606,995,o),
(716,1024,o),
(778,1024,qs),
(856,1024,o),
(982,969,o),
(1072,868,o),
(1121,727,o),
(1121,644,qs),
(1121,108,l),
(1305,108,l),
(1305,0,l),
(808,0,l),
(808,108,l),
(1006,108,l),
(1006,635,ls),
(1006,762,o),
(883,909,o),
(780,909,qs),
(753,909,o),
(679,898,o),
(582,859,o),
(461,787,o),
(382,725,q),
(382,108,l),
(575,108,l),
(575,0,l),
(79,0,l),
(79,108,l),
(268,108,l),
(268,881,l),
(79,881,l),
(79,990,l),
(382,990,l)
);
},
{
closed = 1;
nodes = (
(1059,1395,l),
(1054,1390,o),
(1054,1379,q),
(1026,1282,o),
(903,1184,o),
(828,1184,qs),
(789,1184,o),
(718,1215,o),
(665,1257,q),
(610,1298,o),
(564,1324,o),
(538,1324,qs),
(492,1324,o),
(437,1250,o),
(419,1204,q),
(419,1202,o),
(417,1197,q),
(415,1190,l),
(323,1222,l),
(354,1309,o),
(453,1427,o),
(538,1427,qs),
(593,1427,o),
(672,1381,o),
(709,1349,q),
(753,1316,o),
(810,1287,o),
(835,1287,qs),
(865,1287,o),
(909,1316,o),
(940,1360,o),
(960,1406,o),
(967,1425,q)
);
}
);
width = 1381;
}
);
unicode = 241;
},
{
glyphname = ograve;
layers = (
{
layerId = "AAC8411B-1049-4A7C-8FB8-170842CEFBED";
shapes = (
{
closed = 1;
nodes = (
(119,606,o),
(193,799,o),
(336,946,o),
(550,1036,o),
(690,1036,qs),
(835,1036,o),
(1050,944,o),
(1190,792,o),
(1261,601,o),
(1261,501,qs),
(1261,402,o),
(1190,211,o),
(1050,60,o),
(835,-33,o),
(690,-33,qs),
(550,-33,o),
(336,57,o),
(193,207,o),
(119,398,o),
(119,501,qs)
);
},
{
closed = 1;
nodes = (
(244,422,o),
(301,270,o),
(415,152,o),
(582,83,o),
(690,83,qs),
(801,83,o),
(969,154,o),
(1080,272,o),
(1137,422,o),
(1137,501,qs),
(1137,580,o),
(1080,732,o),
(969,850,o),
(801,921,o),
(690,921,qs),
(582,921,o),
(417,852,o),
(301,734,o),
(244,584,o),
(244,501,qs)
);
},
{
closed = 1;
nodes = (
(861,1158,l),
(741,1158,l),
(437,1423,l),
(683,1423,l)
);
}
);
width = 1381;
}
);
unicode = 242;
},
{
glyphname = oacute;
layers = (
{
layerId = "AAC8411B-1049-4A7C-8FB8-170842CEFBED";
shapes = (
{
closed = 1;
nodes = (
(119,606,o),
(193,799,o),
(336,946,o),
(550,1036,o),
(690,1036,qs),
(835,1036,o),
(1050,944,o),
(1190,792,o),
(1261,601,o),
(1261,501,qs),
(1261,402,o),
(1190,211,o),
(1050,60,o),
(835,-33,o),
(690,-33,qs),
(550,-33,o),
(336,57,o),
(193,207,o),
(119,398,o),
(119,501,qs)
);
},
{
closed = 1;
nodes = (
(244,422,o),
(301,270,o),
(415,152,o),
(582,83,o),
(690,83,qs),
(801,83,o),
(969,154,o),
(1080,272,o),
(1137,422,o),
(1137,501,qs),
(1137,580,o),
(1080,732,o),
(969,850,o),
(801,921,o),
(690,921,qs),
(582,921,o),
(417,852,o),
(301,734,o),
(244,584,o),
(244,501,qs)
);
},
{
closed = 1;
nodes = (
(495,1158,l),
(700,1423,l),
(946,1423,l),
(617,1158,l)
);
}
);
width = 1381;
}
);
unicode = 243;
},
{
glyphname = ocircumflex;
layers = (
{
layerId = "AAC8411B-1049-4A7C-8FB8-170842CEFBED";
shapes = (
{
closed = 1;
nodes = (
(119,606,o),
(193,799,o),
(336,946,o),
(550,1036,o),
(690,1036,qs),
(835,1036,o),
(1050,944,o),
(1190,792,o),
(1261,601,o),
(1261,501,qs),
(1261,402,o),
(1190,211,o),
(1050,60,o),
(835,-33,o),
(690,-33,qs),
(550,-33,o),
(336,57,o),
(193,207,o),
(119,398,o),
(119,501,qs)
);
},
{
closed = 1;
nodes = (
(244,422,o),
(301,270,o),
(415,152,o),
(582,83,o),
(690,83,qs),
(801,83,o),
(969,154,o),
(1080,272,o),
(1137,422,o),
(1137,501,qs),
(1137,580,o),
(1080,732,o),
(969,850,o),
(801,921,o),
(690,921,qs),
(582,921,o),
(417,852,o),
(301,734,o),
(244,584,o),
(244,501,qs)
);
},
{
closed = 1;
nodes = (
(986,1213,l),
(912,1155,l),
(679,1307,l),
(470,1155,l),
(393,1211,l),
(596,1430,l),
(773,1430,l)
);
}
);
width = 1381;
}
);
unicode = 244;
},
{
glyphname = otilde;
layers = (
{
layerId = "AAC8411B-1049-4A7C-8FB8-170842CEFBED";
shapes = (
{
closed = 1;
nodes = (
(119,606,o),
(193,799,o),
(336,946,o),
(550,1036,o),
(690,1036,qs),
(835,1036,o),
(1050,944,o),
(1190,792,o),
(1261,601,o),
(1261,501,qs),
(1261,402,o),
(1190,211,o),
(1050,60,o),
(835,-33,o),
(690,-33,qs),
(550,-33,o),
(336,57,o),
(193,207,o),
(119,398,o),
(119,501,qs)
);
},
{
closed = 1;
nodes = (
(244,422,o),
(301,270,o),
(415,152,o),
(582,83,o),
(690,83,qs),
(801,83,o),
(969,154,o),
(1080,272,o),
(1137,422,o),
(1137,501,qs),
(1137,580,o),
(1080,732,o),
(969,850,o),
(801,921,o),
(690,921,qs),
(582,921,o),
(417,852,o),
(301,734,o),
(244,584,o),
(244,501,qs)
);
},
{
closed = 1;
nodes = (
(1059,1395,l),
(1054,1390,o),
(1054,1379,q),
(1026,1282,o),
(903,1184,o),
(828,1184,qs),
(789,1184,o),
(718,1215,o),
(665,1257,q),
(610,1298,o),
(564,1324,o),
(538,1324,qs),
(492,1324,o),
(437,1250,o),
(419,1204,q),
(419,1202,o),
(417,1197,q),
(415,1190,l),
(323,1222,l),
(354,1309,o),
(453,1427,o),
(538,1427,qs),
(593,1427,o),
(672,1381,o),
(709,1349,q),
(753,1316,o),
(810,1287,o),
(835,1287,qs),
(865,1287,o),
(909,1316,o),
(940,1360,o),
(960,1406,o),
(967,1425,q)
);
}
);
width = 1381;
}
);
unicode = 245;
},
{
glyphname = odieresis;
layers = (
{
layerId = "AAC8411B-1049-4A7C-8FB8-170842CEFBED";
shapes = (
{
closed = 1;
nodes = (
(119,606,o),
(193,799,o),
(336,946,o),
(550,1036,o),
(690,1036,qs),
(835,1036,o),
(1050,944,o),
(1190,792,o),
(1261,601,o),
(1261,501,qs),
(1261,402,o),
(1190,211,o),
(1050,60,o),
(835,-33,o),
(690,-33,qs),
(550,-33,o),
(336,57,o),
(193,207,o),
(119,398,o),
(119,501,qs)
);
},
{
closed = 1;
nodes = (
(244,422,o),
(301,270,o),
(415,152,o),
(582,83,o),
(690,83,qs),
(801,83,o),
(969,154,o),
(1080,272,o),
(1137,422,o),
(1137,501,qs),
(1137,580,o),
(1080,732,o),
(969,850,o),
(801,921,o),
(690,921,qs),
(582,921,o),
(417,852,o),
(301,734,o),
(244,584,o),
(244,501,qs)
);
},
{
closed = 1;
nodes = (
(624,1430,l),
(624,1181,l),
(459,1181,l),
(459,1430,l)
);
},
{
closed = 1;
nodes = (
(923,1430,l),
(923,1181,l),
(758,1181,l),
(758,1430,l)
);
}
);
width = 1381;
}
);
unicode = 246;
},
{
glyphname = divide;
layers = (
{
layerId = "AAC8411B-1049-4A7C-8FB8-170842CEFBED";
shapes = (
{
closed = 1;
nodes = (
(732,1215,o),
(795,1158,o),
(795,1112,qs),
(795,1070,o),
(736,1008,o),
(690,1008,qs),
(646,1008,o),
(587,1070,o),
(587,1112,qs),
(587,1158,o),
(652,1215,o),
(690,1215,qs)
);
},
{
closed = 1;
nodes = (
(1230,640,l),
(152,640,l),
(152,755,l),
(1230,755,l)
);
},
{
closed = 1;
nodes = (
(729,387,o),
(795,329,o),
(795,283,qs),
(795,237,o),
(729,180,o),
(690,180,qs),
(650,180,o),
(587,239,o),
(587,283,qs),
(587,329,o),
(650,387,o),
(690,387,qs)
);
}
);
width = 1381;
}
);
unicode = 247;
},
{
glyphname = oslash;
layers = (
{
layerId = "AAC8411B-1049-4A7C-8FB8-170842CEFBED";
shapes = (
{
closed = 1;
nodes = (
(138,53,l),
(244,158,l),
(205,207,o),
(156,306,o),
(129,398,o),
(119,477,o),
(119,505,qs),
(119,604,o),
(191,797,o),
(336,944,o),
(547,1036,o),
(690,1036,qs),
(771,1036,o),
(967,992,o),
(1041,932,q),
(1153,1048,l),
(1241,960,l),
(1135,854,l),
(1177,806,o),
(1227,703,o),
(1252,608,o),
(1261,527,o),
(1261,501,qs),
(1261,398,o),
(1188,205,o),
(1043,55,o),
(831,-33,o),
(695,-33,qs),
(683,-33,o),
(610,-30,o),
(509,-9,o),
(389,35,o),
(334,74,q),
(228,-33,l)
);
},
{
closed = 1;
nodes = (
(424,156,l),
(444,143,o),
(488,117,o),
(547,97,o),
(631,83,o),
(690,83,qs),
(801,83,o),
(969,154,o),
(1080,272,o),
(1137,422,o),
(1137,501,qs),
(1137,652,o),
(1045,764,q)
);
},
{
closed = 1;
nodes = (
(955,850,l),
(927,863,o),
(877,889,o),
(819,909,o),
(744,921,o),
(690,921,qs),
(580,921,o),
(413,847,o),
(299,729,o),
(244,580,o),
(244,501,qs),
(244,456,o),
(279,308,o),
(332,242,q)
);
}
);
width = 1381;
}
);
unicode = 248;
},
{
glyphname = ugrave;
layers = (
{
layerId = "AAC8411B-1049-4A7C-8FB8-170842CEFBED";
shapes = (
{
closed = 1;
nodes = (
(378,380,ls),
(378,356,o),
(384,257,o),
(428,158,o),
(520,83,o),
(608,83,qs),
(705,83,o),
(881,180,o),
(978,283,q),
(978,881,l),
(780,881,l),
(780,990,l),
(1094,990,l),
(1094,108,l),
(1280,108,l),
(1280,0,l),
(978,0,l),
(978,127,l),
(953,106,o),
(883,51,o),
(795,2,o),
(683,-33,o),
(617,-33,qs),
(509,-33,o),
(371,46,o),
(292,165,o),
(262,310,o),
(262,380,qs),
(262,881,l),
(74,881,l),
(74,990,l),
(378,990,l)
);
},
{
closed = 1;
nodes = (
(861,1158,l),
(741,1158,l),
(437,1423,l),
(683,1423,l)
);
}
);
width = 1381;
}
);
unicode = 249;
},
{
glyphname = uacute;
layers = (
{
layerId = "AAC8411B-1049-4A7C-8FB8-170842CEFBED";
shapes = (
{
closed = 1;
nodes = (
(378,380,ls),
(378,356,o),
(384,257,o),
(428,158,o),
(520,83,o),
(608,83,qs),
(705,83,o),
(881,180,o),
(978,283,q),
(978,881,l),
(780,881,l),
(780,990,l),
(1094,990,l),
(1094,108,l),
(1280,108,l),
(1280,0,l),
(978,0,l),
(978,127,l),
(953,106,o),
(883,51,o),
(795,2,o),
(683,-33,o),
(617,-33,qs),
(509,-33,o),
(371,46,o),
(292,165,o),
(262,310,o),
(262,380,qs),
(262,881,l),
(74,881,l),
(74,990,l),
(378,990,l)
);
},
{
closed = 1;
nodes = (
(495,1158,l),
(700,1423,l),
(946,1423,l),
(617,1158,l)
);
}
);
width = 1381;
}
);
unicode = 250;
},
{
glyphname = ucircumflex;
layers = (
{
layerId = "AAC8411B-1049-4A7C-8FB8-170842CEFBED";
shapes = (
{
closed = 1;
nodes = (
(378,380,ls),
(378,356,o),
(384,257,o),
(428,158,o),
(520,83,o),
(608,83,qs),
(705,83,o),
(881,180,o),
(978,283,q),
(978,881,l),
(780,881,l),
(780,990,l),
(1094,990,l),
(1094,108,l),
(1280,108,l),
(1280,0,l),
(978,0,l),
(978,127,l),
(953,106,o),
(883,51,o),
(795,2,o),
(683,-33,o),
(617,-33,qs),
(509,-33,o),
(371,46,o),
(292,165,o),
(262,310,o),
(262,380,qs),
(262,881,l),
(74,881,l),
(74,990,l),
(378,990,l)
);
},
{
closed = 1;
nodes = (
(986,1213,l),
(912,1155,l),
(679,1307,l),
(470,1155,l),
(393,1211,l),
(596,1430,l),
(773,1430,l)
);
}
);
width = 1381;
}
);
unicode = 251;
},
{
glyphname = udieresis;
layers = (
{
layerId = "AAC8411B-1049-4A7C-8FB8-170842CEFBED";
shapes = (
{
closed = 1;
nodes = (
(378,380,ls),
(378,356,o),
(384,257,o),
(428,158,o),
(520,83,o),
(608,83,qs),
(705,83,o),
(881,180,o),
(978,283,q),
(978,881,l),
(780,881,l),
(780,990,l),
(1094,990,l),
(1094,108,l),
(1280,108,l),
(1280,0,l),
(978,0,l),
(978,127,l),
(953,106,o),
(883,51,o),
(795,2,o),
(683,-33,o),
(617,-33,qs),
(509,-33,o),
(371,46,o),
(292,165,o),
(262,310,o),
(262,380,qs),
(262,881,l),
(74,881,l),
(74,990,l),
(378,990,l)
);
},
{
closed = 1;
nodes = (
(624,1430,l),
(624,1181,l),
(459,1181,l),
(459,1430,l)
);
},
{
closed = 1;
nodes = (
(923,1430,l),
(923,1181,l),
(758,1181,l),
(758,1430,l)
);
}
);
width = 1381;
}
);
unicode = 252;
},
{
glyphname = yacute;
layers = (
{
layerId = "AAC8411B-1049-4A7C-8FB8-170842CEFBED";
shapes = (
{
closed = 1;
nodes = (
(486,881,l),
(327,881,l),
(690,182,l),
(1091,881,l),
(934,881,l),
(934,990,l),
(1356,990,l),
(1356,881,l),
(1222,881,l),
(578,-244,l),
(782,-244,l),
(782,-352,l),
(92,-352,l),
(92,-244,l),
(446,-244,l),
(624,62,l),
(196,881,l),
(55,881,l),
(55,990,l),
(486,990,l)
);
},
{
closed = 1;
nodes = (
(495,1158,l),
(700,1423,l),
(946,1423,l),
(617,1158,l)
);
}
);
width = 1381;
}
);
unicode = 253;
},
{
glyphname = thorn;
layers = (
{
layerId = "AAC8411B-1049-4A7C-8FB8-170842CEFBED";
shapes = (
{
closed = 1;
nodes = (
(352,826,l),
(366,847,o),
(424,912,o),
(520,973,o),
(656,1019,o),
(749,1019,qs),
(865,1019,o),
(1054,932,o),
(1188,789,o),
(1261,604,o),
(1261,505,qs),
(1261,387,o),
(1171,196,o),
(1028,60,o),
(845,-16,o),
(753,-16,qs),
(738,-16,o),
(656,-9,o),
(541,28,o),
(413,108,o),
(352,182,q),
(347,182,l),
(347,-253,l),
(690,-253,l),
(690,-362,l),
(44,-362,l),
(44,-253,l),
(233,-253,l),
(233,1329,l),
(28,1320,l),
(28,1427,l),
(347,1448,l),
(347,826,l)
);
},
{
closed = 1;
nodes = (
(338,410,o),
(417,255,o),
(536,152,o),
(681,99,o),
(749,99,qs),
(826,99,o),
(967,161,o),
(1072,270,o),
(1137,419,o),
(1137,507,qs),
(1137,578,o),
(1089,720,o),
(992,833,o),
(847,905,o),
(751,905,qs),
(661,905,o),
(509,841,o),
(400,734,o),
(338,589,o),
(338,511,qs)
);
}
);
width = 1381;
}
);
unicode = 254;
},
{
glyphname = ydieresis;
layers = (
{
layerId = "AAC8411B-1049-4A7C-8FB8-170842CEFBED";
shapes = (
{
closed = 1;
nodes = (
(55,990,l),
(55,881,l),
(196,881,l),
(624,62,l),
(446,-244,l),
(92,-244,l),
(92,-352,l),
(782,-352,l),
(782,-244,l),
(578,-244,l),
(1222,881,l),
(1356,881,l),
(1356,990,l),
(934,990,l),
(934,881,l),
(1091,881,l),
(690,182,l),
(327,881,l),
(486,881,l),
(486,990,l)
);
},
{
closed = 1;
nodes = (
(459,1181,l),
(624,1181,l),
(624,1430,l),
(459,1430,l)
);
},
{
closed = 1;
nodes = (
(758,1181,l),
(923,1181,l),
(923,1430,l),
(758,1430,l)
);
}
);
width = 1381;
}
);
unicode = 255;
},
{
glyphname = OE;
layers = (
{
layerId = "AAC8411B-1049-4A7C-8FB8-170842CEFBED";
shapes = (
{
closed = 1;
nodes = (
(1236,881,l),
(1135,881,l),
(1114,1188,l),
(810,1188,l),
(810,741,l),
(960,741,l),
(960,909,l),
(1066,909,l),
(1066,465,l),
(960,465,l),
(960,633,l),
(810,633,l),
(810,108,l),
(1146,108,l),
(1160,426,l),
(1266,426,l),
(1266,0,l),
(558,0,ls),
(422,0,o),
(226,125,o),
(99,314,o),
(37,536,o),
(37,637,qs),
(37,776,o),
(125,1015,o),
(283,1195,o),
(507,1296,o),
(642,1296,qs),
(1236,1296,l)
);
},
{
closed = 1;
nodes = (
(635,1188,ls),
(520,1188,o),
(343,1100,o),
(224,951,o),
(161,753,o),
(161,644,qs),
(161,560,o),
(209,371,o),
(314,211,o),
(477,108,o),
(593,108,qs),
(695,108,l),
(695,1188,l)
);
}
);
width = 1381;
}
);
unicode = 338;
},
{
glyphname = oe;
layers = (
{
layerId = "AAC8411B-1049-4A7C-8FB8-170842CEFBED";
shapes = (
{
closed = 1;
nodes = (
(736,472,l),
(734,352,o),
(787,198,o),
(870,110,o),
(962,76,o),
(1001,76,qs),
(1075,76,o),
(1220,112,o),
(1266,127,q),
(1307,28,l),
(1184,-13,o),
(1039,-35,o),
(1006,-35,qs),
(986,-35,o),
(907,-22,o),
(817,18,o),
(725,103,o),
(690,180,q),
(681,158,o),
(642,88,o),
(569,16,o),
(459,-35,o),
(375,-35,qs),
(285,-35,o),
(165,28,o),
(88,123,o),
(46,237,o),
(26,345,o),
(22,433,o),
(22,453,qs),
(22,564,o),
(64,773,o),
(154,940,o),
(299,1039,o),
(405,1039,qs),
(474,1039,o),
(575,990,o),
(644,927,o),
(683,863,o),
(690,847,q),
(744,944,o),
(900,1036,o),
(976,1036,qs),
(1066,1036,o),
(1188,942,o),
(1263,801,o),
(1298,642,o),
(1298,578,qs),
(1298,550,o),
(1296,488,o),
(1294,472,q)
);
},
{
closed = 1;
nodes = (
(622,631,o),
(584,806,o),
(523,900,o),
(446,927,o),
(405,927,qs),
(334,927,o),
(237,843,o),
(175,707,o),
(147,541,o),
(147,461,qs),
(147,396,o),
(169,260,o),
(219,147,o),
(306,76,o),
(373,76,qs),
(435,76,o),
(520,125,o),
(575,202,o),
(606,297,o),
(619,389,o),
(622,465,o),
(622,486,qs)
);
},
{
closed = 1;
nodes = (
(1184,573,l),
(1184,637,o),
(1160,764,o),
(1109,865,o),
(1032,925,o),
(976,925,qs),
(958,925,o),
(881,903,o),
(801,831,o),
(738,690,o),
(736,573,q)
);
}
);
width = 1381;
}
);
unicode = 339;
},
{
glyphname = Scaron;
layers = (
{
layerId = "AAC8411B-1049-4A7C-8FB8-170842CEFBED";
shapes = (
{
closed = 1;
nodes = (
(1167,1322,l),
(1155,1268,o),
(1146,1199,o),
(1146,1155,qs),
(1146,1116,o),
(1155,980,o),
(1167,881,q),
(1063,863,l),
(1059,900,o),
(1032,1019,o),
(992,1080,q),
(978,1100,o),
(934,1149,o),
(865,1190,o),
(769,1220,o),
(700,1220,qs),
(610,1220,o),
(479,1167,o),
(393,1087,o),
(352,992,o),
(352,949,qs),
(352,868,o),
(430,776,o),
(541,725,o),
(661,707,o),
(703,703,qs),
(831,688,o),
(978,659,o),
(1098,580,o),
(1181,451,o),
(1181,352,qs),
(1181,251,o),
(1096,103,o),
(962,7,o),
(795,-39,o),
(709,-39,qs),
(640,-39,o),
(536,-16,o),
(461,18,o),
(410,53,o),
(393,66,q),
(391,69,o),
(380,76,o),
(375,76,qs),
(369,76,o),
(356,62,o),
(352,57,q),
(347,42,o),
(341,11,o),
(332,-46,q),
(228,-46,l),
(239,9,o),
(248,110,o),
(248,136,qs),
(248,158,ls),
(248,178,o),
(244,239,o),
(237,310,o),
(230,378,o),
(228,402,q),
(332,402,l),
(341,359,o),
(371,248,o),
(410,198,qs),
(442,156,o),
(569,76,o),
(692,76,qs),
(799,76,o),
(940,127,o),
(1022,205,o),
(1057,299,o),
(1057,343,qs),
(1057,419,o),
(990,509,o),
(894,558,o),
(780,575,o),
(736,580,qs),
(670,587,o),
(492,615,o),
(336,688,o),
(228,824,o),
(228,940,qs),
(228,1017,o),
(297,1160,o),
(419,1270,o),
(587,1335,o),
(686,1335,qs),
(749,1335,o),
(845,1312,o),
(914,1282,o),
(960,1250,o),
(971,1241,q),
(999,1220,o),
(1017,1208,o),
(1024,1208,qs),
(1041,1208,o),
(1048,1236,o),
(1059,1291,q),
(1061,1303,o),
(1063,1316,o),
(1063,1322,q)
);
},
{
closed = 1;
nodes = (
(393,1694,l),
(468,1749,l),
(700,1599,l),
(912,1752,l),
(986,1694,l),
(782,1478,l),
(608,1478,l)
);
}
);
width = 1381;
}
);
unicode = 352;
},
{
glyphname = scaron;
layers = (
{
layerId = "AAC8411B-1049-4A7C-8FB8-170842CEFBED";
shapes = (
{
closed = 1;
nodes = (
(1109,1019,l),
(1103,982,o),
(1089,889,o),
(1089,822,qs),
(1089,773,o),
(1096,707,o),
(1100,677,q),
(999,665,l),
(992,700,o),
(967,782,o),
(896,854,o),
(758,905,o),
(637,905,qs),
(499,905,o),
(352,806,o),
(352,734,qs),
(352,672,o),
(424,601,o),
(553,562,o),
(725,547,o),
(826,543,q),
(847,543,o),
(955,529,o),
(1070,479,o),
(1160,375,o),
(1160,285,qs),
(1160,202,o),
(1080,81,o),
(951,2,o),
(797,-35,o),
(720,-35,qs),
(659,-35,o),
(553,-13,o),
(465,18,o),
(402,51,o),
(382,62,q),
(382,62,o),
(378,64,q),
(375,66,o),
(371,66,qs),
(354,66,o),
(336,9,o),
(325,-30,q),
(224,-30,l),
(228,0,o),
(237,57,o),
(237,115,qs),
(237,189,o),
(228,303,o),
(224,343,q),
(325,354,l),
(329,325,o),
(356,233,o),
(433,145,o),
(575,81,o),
(695,81,qs),
(729,81,o),
(845,94,o),
(955,136,o),
(1036,214,o),
(1036,281,qs),
(1036,332,o),
(988,391,o),
(900,422,o),
(778,430,o),
(707,433,qs),
(661,435,o),
(499,451,o),
(343,509,o),
(228,626,o),
(228,729,qs),
(228,792,o),
(288,898,o),
(393,976,o),
(545,1019,o),
(635,1019,qs),
(738,1019,o),
(868,971,o),
(900,953,q),
(905,949,o),
(937,932,o),
(951,932,qs),
(969,932,o),
(988,976,o),
(992,988,q),
(997,1010,o),
(1001,1024,o),
(1006,1036,q)
);
},
{
closed = 1;
nodes = (
(393,1388,l),
(468,1443,l),
(700,1294,l),
(912,1445,l),
(986,1388,l),
(782,1171,l),
(608,1171,l)
);
}
);
width = 1381;
}
);
unicode = 353;
},
{
glyphname = Ydieresis;
layers = (
{
layerId = "AAC8411B-1049-4A7C-8FB8-170842CEFBED";
shapes = (
{
closed = 1;
nodes = (
(525,1188,l),
(350,1188,l),
(698,617,l),
(1041,1188,l),
(861,1188,l),
(861,1296,l),
(1307,1296,l),
(1307,1188,l),
(1162,1188,l),
(751,501,l),
(751,108,l),
(1022,108,l),
(1022,0,l),
(362,0,l),
(362,108,l),
(635,108,l),
(635,501,l),
(219,1188,l),
(74,1188,l),
(74,1296,l),
(525,1296,l)
);
},
{
closed = 1;
nodes = (
(624,1735,l),
(624,1487,l),
(459,1487,l),
(459,1735,l)
);
},
{
closed = 1;
nodes = (
(923,1735,l),
(923,1487,l),
(758,1487,l),
(758,1735,l)
);
}
);
width = 1381;
}
);
unicode = 376;
},
{
glyphname = Zcaron;
layers = (
{
layerId = "AAC8411B-1049-4A7C-8FB8-170842CEFBED";
shapes = (
{
closed = 1;
nodes = (
(1135,1202,l),
(332,108,l),
(1080,108,l),
(1080,481,l),
(1188,481,l),
(1188,0,l),
(193,0,l),
(193,108,l),
(988,1188,l),
(318,1188,l),
(318,852,l),
(209,852,l),
(209,1296,l),
(1135,1296,l)
);
},
{
closed = 1;
nodes = (
(393,1694,l),
(468,1749,l),
(700,1599,l),
(912,1752,l),
(986,1694,l),
(782,1478,l),
(608,1478,l)
);
}
);
width = 1381;
}
);
unicode = 381;
},
{
glyphname = zcaron;
layers = (
{
layerId = "AAC8411B-1049-4A7C-8FB8-170842CEFBED";
shapes = (
{
closed = 1;
nodes = (
(1142,891,l),
(396,108,l),
(1034,108,l),
(1034,320,l),
(1142,320,l),
(1142,0,l),
(239,0,l),
(239,108,l),
(978,881,l),
(371,881,l),
(371,677,l),
(262,677,l),
(262,990,l),
(1142,990,l)
);
},
{
closed = 1;
nodes = (
(393,1388,l),
(468,1443,l),
(700,1294,l),
(912,1445,l),
(986,1388,l),
(782,1171,l),
(608,1171,l)
);
}
);
width = 1381;
}
);
unicode = 382;
},
{
glyphname = florin;
layers = (
{
layerId = "AAC8411B-1049-4A7C-8FB8-170842CEFBED";
shapes = (
{
closed = 1;
nodes = (
(1160,1402,l),
(1131,1408,o),
(1050,1421,o),
(995,1421,qs),
(863,1421,o),
(723,1353,o),
(656,1257,o),
(644,1149,o),
(644,1105,qs),
(644,978,l),
(1050,978,l),
(1050,881,l),
(644,881,l),
(644,117,ls),
(644,37,o),
(608,-81,o),
(543,-129,qs),
(468,-187,o),
(270,-228,o),
(171,-228,qs),
(141,-228,o),
(81,-224,o),
(55,-219,q),
(64,-103,l),
(99,-108,o),
(182,-117,o),
(221,-117,qs),
(297,-117,o),
(459,-76,o),
(495,-33,q),
(520,0,o),
(529,88,o),
(529,134,qs),
(529,881,l),
(283,881,l),
(283,978,l),
(529,978,l),
(529,1116,ls),
(529,1167,o),
(553,1309,o),
(652,1439,o),
(850,1529,o),
(1024,1529,qs),
(1075,1529,o),
(1149,1524,o),
(1171,1520,q)
);
}
);
width = 1381;
}
);
unicode = 402;
},
{
glyphname = circumflex;
layers = (
{
layerId = "AAC8411B-1049-4A7C-8FB8-170842CEFBED";
shapes = (
{
closed = 1;
nodes = (
(986,1213,l),
(912,1155,l),
(679,1307,l),
(470,1155,l),
(393,1211,l),
(596,1430,l),
(773,1430,l)
);
}
);
width = 1381;
}
);
unicode = 710;
},
{
glyphname = tilde;
layers = (
{
layerId = "AAC8411B-1049-4A7C-8FB8-170842CEFBED";
shapes = (
{
closed = 1;
nodes = (
(1059,1395,l),
(1054,1390,o),
(1054,1379,q),
(1026,1282,o),
(903,1184,o),
(828,1184,qs),
(789,1184,o),
(718,1215,o),
(665,1257,q),
(610,1298,o),
(564,1324,o),
(538,1324,qs),
(492,1324,o),
(437,1250,o),
(419,1204,q),
(419,1202,o),
(417,1197,q),
(415,1190,l),
(323,1222,l),
(354,1309,o),
(453,1427,o),
(538,1427,qs),
(593,1427,o),
(672,1381,o),
(709,1349,q),
(753,1316,o),
(810,1287,o),
(835,1287,qs),
(865,1287,o),
(909,1316,o),
(940,1360,o),
(960,1406,o),
(967,1425,q)
);
}
);
width = 1381;
}
);
unicode = 732;
},
{
glyphname = uni1200;
layers = (
{
layerId = "AAC8411B-1049-4A7C-8FB8-170842CEFBED";
shapes = (
{
closed = 1;
nodes = (
(101,505,ls),
(101,331,o),
(145,133,o),
(245,28,o),
(408,-11,o),
(526,-26,q),
(645,-11,o),
(806,30,o),
(904,135,o),
(945,333,o),
(945,505,qs),
(945,1152,ls),
(945,1225,o),
(879,1302,o),
(821,1302,qs),
(767,1302,o),
(700,1225,o),
(700,1152,qs),
(700,288,ls),
(700,212,o),
(666,106,o),
(614,37,o),
(553,8,o),
(526,8,qs),
(443,8,o),
(347,133,o),
(347,288,qs),
(347,1152,ls),
(347,1302,o),
(226,1302,qs),
(170,1302,o),
(101,1225,o),
(101,1152,qs)
);
}
);
width = 1047;
}
);
unicode = 4608;
},
{
glyphname = uni1201;
layers = (
{
layerId = "AAC8411B-1049-4A7C-8FB8-170842CEFBED";
shapes = (
{
closed = 1;
nodes = (
(945,771,l),
(945,1113,ls),
(945,1186,o),
(879,1263,o),
(821,1263,qs),
(767,1263,o),
(700,1186,o),
(700,1113,qs),
(700,286,ls),
(700,208,o),
(666,104,o),
(614,39,o),
(553,11,o),
(526,11,qs),
(443,11,o),
(347,131,o),
(347,286,qs),
(347,1113,ls),
(347,1263,o),
(226,1263,qs),
(170,1263,o),
(101,1186,o),
(101,1113,qs),
(101,503,ls),
(101,331,o),
(145,133,o),
(245,26,o),
(408,-13,o),
(526,-28,q),
(645,-13,o),
(806,28,o),
(904,133,o),
(945,331,o),
(945,503,qs),
(945,739,l),
(1043,739,l),
(1043,645,ls),
(1043,586,o),
(1107,507,o),
(1167,507,qs),
(1221,507,o),
(1288,584,o),
(1288,645,qs),
(1288,737,ls),
(1288,759,o),
(1270,771,o),
(1259,771,qs)
);
}
);
width = 1296;
}
);
unicode = 4609;
},
{
glyphname = uni1202;
layers = (
{
layerId = "AAC8411B-1049-4A7C-8FB8-170842CEFBED";
shapes = (
{
closed = 1;
nodes = (
(911,-32,l),
(911,-139,l),
(1064,-139,ls),
(1100,-139,o),
(1169,-73,o),
(1169,-15,qs),
(1169,41,o),
(1098,106,o),
(1064,106,qs),
(911,106,l),
(911,0,l),
(868,0,ls),
(837,0,o),
(814,39,o),
(814,101,qs),
(814,1151,ls),
(814,1239,o),
(749,1304,o),
(692,1304,qs),
(634,1304,o),
(570,1239,o),
(570,1151,qs),
(570,700,l),
(539,679,o),
(455,641,o),
(421,641,qs),
(372,641,o),
(305,720,o),
(305,798,qs),
(305,1169,ls),
(305,1247,o),
(245,1304,o),
(192,1304,qs),
(135,1304,o),
(67,1241,o),
(67,1169,qs),
(67,862,ls),
(67,774,o),
(118,666,o),
(212,610,o),
(341,592,o),
(419,592,qs),
(453,592,o),
(541,623,o),
(570,645,q),
(570,78,ls),
(570,24,o),
(643,-32,o),
(692,-32,qs)
);
}
);
width = 1176;
}
);
unicode = 4610;
},
{
glyphname = uni1203;
layers = (
{
layerId = "AAC8411B-1049-4A7C-8FB8-170842CEFBED";
shapes = (
{
closed = 1;
nodes = (
(802,-30,o),
(802,122,qs),
(802,1160,ls),
(802,1206,o),
(786,1261,o),
(754,1292,o),
(709,1302,o),
(681,1302,qs),
(621,1302,o),
(559,1251,o),
(559,1160,qs),
(559,704,l),
(527,684,o),
(443,645,o),
(410,645,qs),
(361,645,o),
(294,724,o),
(294,800,qs),
(294,1160,ls),
(294,1251,o),
(237,1302,o),
(185,1302,qs),
(155,1302,o),
(108,1292,o),
(75,1261,o),
(55,1206,o),
(55,1160,qs),
(55,866,ls),
(55,780,o),
(114,675,o),
(213,615,o),
(339,596,o),
(408,596,qs),
(441,596,o),
(529,627,o),
(559,649,q),
(559,122,ls),
(559,34,o),
(623,-30,o),
(684,-30,qs)
);
}
);
width = 929;
}
);
unicode = 4611;
},
{
glyphname = uni1204;
layers = (
{
layerId = "AAC8411B-1049-4A7C-8FB8-170842CEFBED";
shapes = (
{
closed = 1;
nodes = (
(555,141,ls),
(555,45,o),
(621,-32,o),
(722,-32,qs),
(881,-32,ls),
(1023,-32,o),
(1149,100,o),
(1149,230,qs),
(1149,300,o),
(1102,384,o),
(1018,430,o),
(904,445,o),
(839,445,q),
(839,414,l),
(881,414,o),
(931,396,o),
(961,349,o),
(971,271,o),
(971,212,qs),
(971,116,o),
(937,-10,o),
(881,-10,qs),
(835,-10,o),
(798,94,o),
(798,194,qs),
(798,1158,ls),
(798,1244,o),
(731,1302,o),
(675,1302,qs),
(615,1302,o),
(555,1247,o),
(555,1158,qs),
(555,700,l),
(524,679,o),
(439,641,o),
(406,641,qs),
(357,641,o),
(290,720,o),
(290,798,qs),
(290,1160,ls),
(290,1247,o),
(235,1302,o),
(182,1302,qs),
(125,1302,o),
(53,1233,o),
(53,1160,qs),
(53,862,ls),
(53,772,o),
(104,666,o),
(196,610,o),
(325,592,o),
(404,592,qs),
(437,592,o),
(526,623,o),
(555,645,q)
);
}
);
width = 1160;
}
);
unicode = 4612;
},
{
glyphname = uni1205;
layers = (
{
layerId = "AAC8411B-1049-4A7C-8FB8-170842CEFBED";
shapes = (
{
closed = 1;
nodes = (
(347,1158,ls),
(347,1304,o),
(234,1304,qs),
(178,1304,o),
(101,1233,o),
(101,1158,qs),
(101,727,ls),
(101,688,o),
(141,688,qs),
(167,688,o),
(234,726,o),
(249,747,q),
(249,702,o),
(204,634,o),
(147,567,o),
(101,498,o),
(101,455,qs),
(101,370,ls),
(101,273,o),
(145,125,o),
(239,26,o),
(389,-26,o),
(496,-26,qs),
(649,-26,o),
(825,13,o),
(913,139,o),
(935,376,o),
(935,574,qs),
(935,1162,ls),
(935,1237,o),
(881,1304,o),
(823,1304,qs),
(767,1304,o),
(690,1237,o),
(690,1162,qs),
(690,288,ls),
(690,212,o),
(655,110,o),
(604,45,o),
(545,17,o),
(522,17,qs),
(430,17,o),
(353,114,o),
(353,249,qs),
(353,353,o),
(372,492,o),
(400,586,o),
(436,645,o),
(462,692,o),
(482,739,o),
(482,774,qs),
(482,800,o),
(443,833,o),
(425,833,qs),
(402,833,o),
(365,819,o),
(347,800,q)
);
}
);
width = 1037;
}
);
unicode = 4613;
},
{
glyphname = uni1206;
layers = (
{
layerId = "AAC8411B-1049-4A7C-8FB8-170842CEFBED";
shapes = (
{
closed = 1;
nodes = (
(935,1270,l),
(971,1270,o),
(1031,1264,o),
(1074,1237,o),
(1098,1180,o),
(1098,1131,qs),
(1098,976,ls),
(1098,928,o),
(1070,868,o),
(1027,835,o),
(967,825,o),
(935,825,q)
);
},
{
closed = 1;
nodes = (
(347,1160,ls),
(347,1235,o),
(288,1302,o),
(230,1302,qs),
(174,1302,o),
(101,1235,o),
(101,1160,qs),
(101,406,ls),
(101,273,o),
(129,106,o),
(204,11,o),
(339,-22,o),
(447,-22,qs),
(600,-22,o),
(776,65,o),
(825,123,q),
(874,185,o),
(935,398,o),
(935,576,qs),
(935,800,l),
(1039,800,o),
(1190,812,o),
(1286,866,o),
(1331,986,o),
(1331,1094,qs),
(1331,1210,o),
(1231,1302,o),
(1147,1302,qs),
(812,1302,ls),
(772,1302,o),
(726,1282,o),
(702,1247,o),
(694,1194,o),
(694,1160,qs),
(694,290,ls),
(694,213,o),
(647,108,o),
(588,39,o),
(533,8,o),
(526,8,qs),
(468,8,o),
(400,47,o),
(361,147,o),
(347,312,o),
(347,439,qs)
);
}
);
width = 1339;
}
);
unicode = 4614;
},
{
glyphname = uni1208;
layers = (
{
layerId = "AAC8411B-1049-4A7C-8FB8-170842CEFBED";
shapes = (
{
closed = 1;
nodes = (
(101,116,ls),
(101,28,o),
(165,-35,o),
(223,-35,qs),
(288,-35,o),
(347,32,o),
(347,120,qs),
(347,679,l),
(353,696,o),
(391,761,o),
(443,823,o),
(507,870,o),
(543,870,qs),
(619,870,o),
(690,754,o),
(690,619,qs),
(690,122,ls),
(690,34,o),
(750,-32,o),
(814,-32,qs),
(874,-32,o),
(935,32,o),
(935,120,qs),
(935,590,ls),
(935,702,o),
(855,833,o),
(741,900,o),
(615,917,o),
(572,917,qs),
(531,917,o),
(457,881,o),
(394,825,o),
(353,765,o),
(347,739,q),
(347,1156,ls),
(347,1306,o),
(226,1306,qs),
(170,1306,o),
(101,1229,o),
(101,1156,qs)
);
}
);
width = 1037;
}
);
unicode = 4616;
},
{
glyphname = uni1209;
layers = (
{
layerId = "AAC8411B-1049-4A7C-8FB8-170842CEFBED";
shapes = (
{
closed = 1;
nodes = (
(101,120,ls),
(101,32,o),
(165,-32,o),
(223,-32,qs),
(288,-32,o),
(347,35,o),
(347,123,qs),
(347,679,l),
(353,696,o),
(391,761,o),
(443,823,o),
(507,870,o),
(543,870,qs),
(619,870,o),
(690,754,o),
(690,619,qs),
(690,125,ls),
(690,37,o),
(750,-28,o),
(814,-28,qs),
(874,-28,o),
(935,35,o),
(935,123,qs),
(935,561,l),
(1021,561,l),
(1021,464,ls),
(1021,417,o),
(1086,347,o),
(1145,347,qs),
(1199,347,o),
(1266,415,o),
(1266,462,qs),
(1266,561,ls),
(1266,582,o),
(1249,590,o),
(1237,590,qs),
(935,590,l),
(935,702,o),
(855,833,o),
(741,900,o),
(615,917,o),
(572,917,qs),
(531,917,o),
(457,881,o),
(394,825,o),
(353,765,o),
(347,739,q),
(347,1152,ls),
(347,1302,o),
(226,1302,qs),
(170,1302,o),
(101,1225,o),
(101,1152,qs)
);
}
);
width = 1280;
}
);
unicode = 4617;
},
{
glyphname = uni120A;
layers = (
{
layerId = "AAC8411B-1049-4A7C-8FB8-170842CEFBED";
shapes = (
{
closed = 1;
nodes = (
(1031,-32,l),
(1031,-137,l),
(1214,-137,ls),
(1249,-137,o),
(1319,-73,o),
(1319,-15,qs),
(1319,43,o),
(1247,106,o),
(1214,106,qs),
(1031,106,l),
(1031,0,l),
(990,0,ls),
(956,0,o),
(935,43,o),
(935,112,qs),
(935,590,ls),
(935,702,o),
(855,833,o),
(741,900,o),
(615,917,o),
(572,917,qs),
(531,917,o),
(457,881,o),
(394,825,o),
(353,765,o),
(347,739,q),
(347,1152,ls),
(347,1302,o),
(226,1302,qs),
(170,1302,o),
(101,1225,o),
(101,1152,qs),
(101,120,ls),
(101,32,o),
(165,-32,o),
(223,-32,qs),
(288,-32,o),
(347,35,o),
(347,123,qs),
(347,679,l),
(353,696,o),
(391,761,o),
(443,823,o),
(507,870,o),
(543,870,qs),
(619,870,o),
(690,754,o),
(690,619,qs),
(690,80,ls),
(690,24,o),
(765,-32,o),
(814,-32,qs)
);
}
);
width = 1333;
}
);
unicode = 4618;
},
{
glyphname = uni120B;
layers = (
{
layerId = "AAC8411B-1049-4A7C-8FB8-170842CEFBED";
shapes = (
{
closed = 1;
nodes = (
(101,421,ls),
(101,333,o),
(165,273,o),
(223,273,qs),
(288,273,o),
(347,337,o),
(347,425,qs),
(347,679,l),
(353,696,o),
(391,761,o),
(443,823,o),
(507,870,o),
(543,870,qs),
(619,870,o),
(690,754,o),
(690,619,qs),
(690,122,ls),
(690,34,o),
(750,-32,o),
(814,-32,qs),
(874,-32,o),
(935,32,o),
(935,120,qs),
(935,590,ls),
(935,702,o),
(855,833,o),
(741,900,o),
(615,917,o),
(572,917,qs),
(531,917,o),
(457,881,o),
(394,825,o),
(353,765,o),
(347,739,q),
(347,1152,ls),
(347,1302,o),
(226,1302,qs),
(170,1302,o),
(101,1225,o),
(101,1152,qs)
);
}
);
width = 1037;
}
);
unicode = 4619;
},
{
glyphname = uni120C;
layers = (
{
layerId = "AAC8411B-1049-4A7C-8FB8-170842CEFBED";
shapes = (
{
closed = 1;
nodes = (
(935,590,ls),
(935,702,o),
(855,833,o),
(741,900,o),
(615,917,o),
(572,917,qs),
(531,917,o),
(457,881,o),
(394,825,o),
(353,765,o),
(347,739,q),
(347,1154,ls),
(347,1304,o),
(226,1304,qs),
(170,1304,o),
(101,1227,o),
(101,1154,qs),
(101,120,ls),
(101,32,o),
(165,-32,o),
(223,-32,qs),
(288,-32,o),
(347,35,o),
(347,123,qs),
(347,679,l),
(353,696,o),
(391,761,o),
(443,823,o),
(507,870,o),
(543,870,qs),
(619,870,o),
(690,754,o),
(690,619,qs),
(690,141,ls),
(690,45,o),
(759,-32,o),
(859,-32,qs),
(1018,-32,ls),
(1088,-32,o),
(1190,-15,o),
(1255,30,o),
(1286,110,o),
(1286,172,qs),
(1286,264,o),
(1239,369,o),
(1158,419,o),
(1049,432,o),
(984,432,q),
(984,400,l),
(1066,400,o),
(1113,292,o),
(1113,172,qs),
(1113,78,o),
(1074,-10,o),
(1018,-10,qs),
(965,-10,o),
(935,82,o),
(935,194,qs)
);
}
);
width = 1300;
}
);
unicode = 4620;
},
{
glyphname = uni120D;
layers = (
{
layerId = "AAC8411B-1049-4A7C-8FB8-170842CEFBED";
shapes = (
{
closed = 1;
nodes = (
(347,657,ls),
(347,670,o),
(391,741,o),
(464,812,o),
(559,866,o),
(612,866,qs),
(724,866,o),
(795,780,o),
(795,698,qs),
(795,137,ls),
(795,-34,o),
(920,-34,qs),
(1040,-34,o),
(1040,135,qs),
(1040,545,ls),
(1040,670,o),
(980,819,o),
(874,896,o),
(727,917,o),
(643,917,qs),
(548,917,o),
(398,806,o),
(347,731,q),
(347,1152,ls),
(347,1302,o),
(230,1302,qs),
(172,1302,o),
(101,1227,o),
(101,1152,qs),
(101,198,ls),
(101,149,o),
(118,65,o),
(157,4,o),
(221,-32,o),
(273,-32,qs),
(430,-32,ls),
(502,-32,o),
(604,-15,o),
(668,30,o),
(700,110,o),
(700,174,qs),
(700,264,o),
(653,369,o),
(572,419,o),
(462,432,o),
(398,432,q),
(398,398,l),
(481,398,o),
(527,294,o),
(527,174,qs),
(527,78,o),
(488,-10,o),
(430,-10,qs),
(384,-10,o),
(347,98,o),
(347,194,qs)
);
}
);
width = 1137;
}
);
unicode = 4621;
},
{
glyphname = uni120E;
layers = (
{
layerId = "AAC8411B-1049-4A7C-8FB8-170842CEFBED";
shapes = (
{
closed = 1;
nodes = (
(1018,376,ls),
(1018,331,o),
(1031,273,o),
(1074,237,o),
(1158,223,o),
(1227,223,qs),
(1304,223,o),
(1388,239,o),
(1429,282,o),
(1439,361,o),
(1439,423,qs),
(1439,477,o),
(1423,541,o),
(1390,578,o),
(1341,590,o),
(1308,590,qs),
(935,590,l),
(935,702,o),
(855,827,o),
(741,886,o),
(615,898,o),
(572,898,qs),
(531,898,o),
(457,861,o),
(394,806,o),
(353,745,o),
(347,720,q),
(347,1154,ls),
(347,1304,o),
(226,1304,qs),
(170,1304,o),
(101,1227,o),
(101,1154,qs),
(101,118,ls),
(101,30,o),
(165,-34,o),
(223,-34,qs),
(288,-34,o),
(347,34,o),
(347,122,qs),
(347,659,l),
(353,677,o),
(391,741,o),
(443,804,o),
(507,851,o),
(543,851,qs),
(619,851,o),
(690,735,o),
(690,600,qs),
(690,123,ls),
(690,35,o),
(750,-30,o),
(814,-30,qs),
(874,-30,o),
(935,34,o),
(935,122,qs),
(935,567,l),
(974,567,ls),
(995,567,o),
(1018,553,o),
(1018,522,qs)
);
},
{
closed = 1;
nodes = (
(1288,359,ls),
(1288,314,o),
(1268,253,o),
(1227,253,qs),
(1188,253,o),
(1169,318,o),
(1169,359,qs),
(1169,473,ls),
(1169,505,o),
(1188,565,o),
(1225,565,qs),
(1268,565,o),
(1288,507,o),
(1288,477,qs)
);
}
);
width = 1439;
}
);
unicode = 4622;
},
{
glyphname = uni120F;
layers = (
{
layerId = "AAC8411B-1049-4A7C-8FB8-170842CEFBED";
shapes = (
{
closed = 1;
nodes = (
(954,43,l),
(954,-39,ls),
(954,-82,o),
(1021,-147,o),
(1076,-147,qs),
(1133,-147,o),
(1197,-82,o),
(1197,-41,qs),
(1197,75,l),
(935,75,l),
(935,590,ls),
(935,702,o),
(855,833,o),
(741,900,o),
(615,917,o),
(572,917,qs),
(531,917,o),
(457,881,o),
(394,825,o),
(353,765,o),
(347,739,q),
(347,1154,ls),
(347,1304,o),
(226,1304,qs),
(170,1304,o),
(101,1227,o),
(101,1154,qs),
(101,421,ls),
(101,333,o),
(165,273,o),
(223,273,qs),
(288,273,o),
(347,337,o),
(347,425,qs),
(347,679,l),
(353,696,o),
(391,761,o),
(443,823,o),
(507,870,o),
(543,870,qs),
(619,870,o),
(690,754,o),
(690,619,qs),
(690,75,l),
(419,75,l),
(419,-41,ls),
(419,-86,o),
(484,-147,o),
(541,-147,qs),
(596,-147,o),
(662,-84,o),
(662,-39,qs),
(662,43,l)
);
}
);
width = 1208;
}
);
unicode = 4623;
},
{
glyphname = uni1210;
layers = (
{
layerId = "AAC8411B-1049-4A7C-8FB8-170842CEFBED";
shapes = (
{
closed = 1;
nodes = (
(621,1158,ls),
(621,1235,o),
(688,1302,o),
(747,1302,qs),
(804,1302,o),
(866,1235,o),
(866,1158,qs),
(866,769,l),
(967,769,o),
(1154,735,o),
(1298,649,o),
(1386,500,o),
(1386,386,qs),
(1386,120,ls),
(1386,43,o),
(1319,-32,o),
(1266,-32,qs),
(1203,-32,o),
(1141,35,o),
(1141,118,qs),
(1141,402,ls),
(1141,475,o),
(1115,596,o),
(1053,684,o),
(947,733,o),
(866,733,q),
(866,118,ls),
(866,43,o),
(795,-32,o),
(739,-32,qs),
(621,-32,o),
(621,118,qs),
(621,711,l),
(569,707,o),
(471,662,o),
(392,582,o),
(345,471,o),
(345,402,qs),
(345,118,ls),
(345,43,o),
(279,-32,o),
(221,-32,qs),
(101,-32,o),
(101,118,qs),
(101,300,ls),
(101,372,o),
(145,514,o),
(260,631,o),
(462,724,o),
(621,749,q)
);
}
);
width = 1487;
}
);
unicode = 4624;
},
{
glyphname = uni1211;
layers = (
{
layerId = "AAC8411B-1049-4A7C-8FB8-170842CEFBED";
shapes = (
{
closed = 1;
nodes = (
(1386,430,l),
(1386,520,o),
(1292,649,o),
(1141,731,o),
(956,769,o),
(866,769,q),
(866,1162,ls),
(866,1237,o),
(806,1304,o),
(749,1304,qs),
(690,1304,o),
(621,1237,o),
(621,1162,qs),
(621,749,l),
(462,724,o),
(260,631,o),
(145,514,o),
(101,372,o),
(101,300,qs),
(101,118,ls),
(101,-32,o),
(221,-32,qs),
(279,-32,o),
(345,43,o),
(345,118,qs),
(345,402,ls),
(345,471,o),
(392,582,o),
(471,662,o),
(569,707,o),
(621,711,q),
(621,118,ls),
(621,-32,o),
(739,-32,qs),
(795,-32,o),
(866,43,o),
(866,118,qs),
(866,733,l),
(949,733,o),
(1057,684,o),
(1117,596,o),
(1141,475,o),
(1141,402,qs),
(1141,118,ls),
(1141,35,o),
(1203,-32,o),
(1266,-32,qs),
(1319,-32,o),
(1386,43,o),
(1386,120,qs),
(1386,400,l),
(1468,400,l),
(1468,316,ls),
(1468,264,o),
(1533,219,o),
(1590,219,qs),
(1646,219,o),
(1711,262,o),
(1711,314,qs),
(1711,398,l),
(1710,417,o),
(1696,430,o),
(1672,430,qs)
);
}
);
width = 1717;
}
);
unicode = 4625;
},
{
glyphname = uni1212;
layers = (
{
layerId = "AAC8411B-1049-4A7C-8FB8-170842CEFBED";
shapes = (
{
closed = 1;
nodes = (
(590,749,l),
(432,724,o),
(230,631,o),
(114,514,o),
(71,372,o),
(71,300,qs),
(71,118,ls),
(71,-32,o),
(190,-32,qs),
(247,-32,o),
(314,43,o),
(314,118,qs),
(314,402,ls),
(314,473,o),
(361,584,o),
(439,662,o),
(537,707,o),
(590,711,q),
(590,118,ls),
(590,-32,o),
(707,-32,qs),
(765,-32,o),
(835,43,o),
(835,118,qs),
(835,733,l),
(926,733,o),
(1033,684,o),
(1092,596,o),
(1109,475,o),
(1109,402,qs),
(1109,92,ls),
(1109,35,o),
(1180,-22,o),
(1233,-22,qs),
(1451,-22,l),
(1451,-127,l),
(1635,-127,ls),
(1670,-127,o),
(1741,-58,o),
(1741,-4,qs),
(1741,55,o),
(1668,118,o),
(1635,118,qs),
(1451,118,l),
(1451,11,l),
(1407,11,ls),
(1375,11,o),
(1354,55,o),
(1354,123,qs),
(1354,386,ls),
(1354,505,o),
(1272,655,o),
(1131,739,o),
(941,769,o),
(835,769,q),
(835,1160,ls),
(835,1237,o),
(778,1302,o),
(722,1302,qs),
(662,1302,o),
(590,1237,o),
(590,1160,qs)
);
}
);
width = 1760;
}
);
unicode = 4626;
},
{
glyphname = uni1213;
layers = (
{
layerId = "AAC8411B-1049-4A7C-8FB8-170842CEFBED";
shapes = (
{
closed = 1;
nodes = (
(584,1165,ls),
(584,1253,o),
(651,1304,o),
(709,1304,qs),
(767,1304,o),
(829,1253,o),
(829,1165,qs),
(829,769,l),
(931,769,o),
(1117,735,o),
(1263,649,o),
(1349,500,o),
(1349,386,qs),
(1349,120,ls),
(1349,43,o),
(1282,-32,o),
(1229,-32,qs),
(1167,-32,o),
(1104,35,o),
(1104,118,qs),
(1104,402,ls),
(1104,475,o),
(1092,596,o),
(1039,684,o),
(929,733,o),
(829,733,q),
(829,359,ls),
(829,284,o),
(759,215,o),
(702,215,qs),
(641,215,o),
(584,282,o),
(584,359,qs),
(584,711,l),
(531,707,o),
(441,660,o),
(374,578,o),
(337,464,o),
(337,396,qs),
(337,353,ls),
(337,279,o),
(271,210,o),
(213,210,qs),
(153,210,o),
(94,277,o),
(94,353,qs),
(94,410,l),
(101,460,o),
(139,561,o),
(241,651,o),
(427,724,o),
(584,749,q)
);
}
);
width = 1468;
}
);
unicode = 4627;
},
{
glyphname = uni1214;
layers = (
{
layerId = "AAC8411B-1049-4A7C-8FB8-170842CEFBED";
shapes = (
{
closed = 1;
nodes = (
(1386,402,ls),
(1386,507,o),
(1296,647,o),
(1149,733,o),
(963,769,o),
(866,769,q),
(866,1162,ls),
(866,1251,o),
(804,1304,o),
(747,1304,qs),
(688,1304,o),
(621,1251,o),
(621,1162,qs),
(621,749,l),
(462,724,o),
(260,631,o),
(145,514,o),
(101,372,o),
(101,300,qs),
(101,118,ls),
(101,-32,o),
(221,-32,qs),
(279,-32,o),
(345,43,o),
(345,118,qs),
(345,402,ls),
(345,471,o),
(392,582,o),
(471,662,o),
(569,707,o),
(621,711,q),
(621,118,ls),
(621,-32,o),
(739,-32,qs),
(795,-32,o),
(866,43,o),
(866,118,qs),
(866,733,l),
(967,733,o),
(1076,684,o),
(1129,596,o),
(1141,475,o),
(1141,402,qs),
(1141,139,ls),
(1141,45,o),
(1208,-32,o),
(1309,-32,qs),
(1468,-32,ls),
(1539,-32,o),
(1639,-15,o),
(1706,30,o),
(1737,110,o),
(1737,174,qs),
(1737,267,o),
(1691,369,o),
(1609,419,o),
(1498,430,o),
(1433,430,q),
(1433,400,l),
(1515,400,o),
(1562,292,o),
(1562,174,qs),
(1562,80,o),
(1523,-10,o),
(1468,-10,qs),
(1423,-10,o),
(1386,94,o),
(1386,194,qs)
);
}
);
width = 1751;
}
);
unicode = 4628;
},
{
glyphname = uni1215;
layers = (
{
layerId = "AAC8411B-1049-4A7C-8FB8-170842CEFBED";
shapes = (
{
closed = 1;
nodes = (
(861,1074,ls),
(861,1129,o),
(788,1186,o),
(737,1186,qs),
(520,1186,l),
(520,1292,l),
(333,1292,ls),
(298,1292,o),
(230,1227,o),
(230,1169,qs),
(230,1111,o),
(300,1047,o),
(333,1047,qs),
(520,1047,l),
(520,1152,l),
(563,1152,ls),
(596,1152,o),
(615,1111,o),
(615,1040,qs),
(615,749,l),
(457,724,o),
(255,631,o),
(139,514,o),
(96,372,o),
(96,300,qs),
(96,118,ls),
(96,-32,o),
(215,-32,qs),
(273,-32,o),
(339,43,o),
(339,118,qs),
(339,402,ls),
(339,471,o),
(386,582,o),
(464,662,o),
(563,707,o),
(615,711,q),
(615,118,ls),
(615,-32,o),
(733,-32,qs),
(790,-32,o),
(861,43,o),
(861,118,qs),
(861,733,l),
(961,733,o),
(1070,684,o),
(1124,596,o),
(1135,475,o),
(1135,402,qs),
(1135,118,ls),
(1135,35,o),
(1197,-32,o),
(1261,-32,qs),
(1313,-32,o),
(1380,43,o),
(1380,120,qs),
(1380,386,ls),
(1380,500,o),
(1294,649,o),
(1149,735,o),
(963,769,o),
(861,769,q)
);
}
);
width = 1487;
}
);
unicode = 4629;
},
{
glyphname = uni1216;
layers = (
{
layerId = "AAC8411B-1049-4A7C-8FB8-170842CEFBED";
shapes = (
{
closed = 1;
nodes = (
(621,1162,ls),
(621,1251,o),
(688,1304,o),
(747,1304,qs),
(804,1304,o),
(866,1251,o),
(866,1162,qs),
(866,769,l),
(892,769,o),
(958,763,o),
(1025,754,o),
(1088,743,o),
(1109,735,q),
(1259,684,o),
(1386,547,o),
(1386,439,qs),
(1386,380,ls),
(1386,303,o),
(1319,243,o),
(1266,243,qs),
(1203,243,o),
(1141,296,o),
(1141,378,qs),
(1141,451,ls),
(1141,516,o),
(1117,619,o),
(1057,694,o),
(949,733,o),
(866,733,q),
(866,378,ls),
(866,303,o),
(795,243,o),
(739,243,qs),
(679,243,o),
(621,302,o),
(621,378,qs),
(621,711,l),
(569,707,o),
(471,662,o),
(392,582,o),
(345,471,o),
(345,402,qs),
(345,118,ls),
(345,43,o),
(279,-32,o),
(221,-32,qs),
(101,-32,o),
(101,118,qs),
(101,300,ls),
(101,372,o),
(145,514,o),
(260,631,o),
(462,724,o),
(621,749,q)
);
}
);
width = 1487;
}
);
unicode = 4630;
},
{
glyphname = Uni1217;
layers = (
{
layerId = "AAC8411B-1049-4A7C-8FB8-170842CEFBED";
shapes = (
{
closed = 1;
nodes = (
(1375,55,l),
(1375,-28,ls),
(1375,-71,o),
(1441,-135,o),
(1496,-135,qs),
(1553,-135,o),
(1618,-71,o),
(1618,-30,qs),
(1618,86,l),
(1353,86,l),
(1353,386,ls),
(1353,500,o),
(1266,649,o),
(1121,735,o),
(935,769,o),
(833,769,q),
(833,1158,ls),
(833,1247,o),
(767,1308,o),
(709,1308,qs),
(651,1308,o),
(588,1247,o),
(588,1158,qs),
(588,749,l),
(432,724,o),
(230,649,o),
(114,561,o),
(69,464,o),
(69,415,qs),
(69,359,ls),
(69,282,o),
(127,215,o),
(189,215,qs),
(245,215,o),
(312,284,o),
(312,359,qs),
(312,402,ls),
(312,471,o),
(359,582,o),
(437,662,o),
(535,707,o),
(588,711,q),
(588,359,ls),
(588,282,o),
(645,215,o),
(705,215,qs),
(763,215,o),
(833,284,o),
(833,359,qs),
(833,733,l),
(933,733,o),
(1043,684,o),
(1096,596,o),
(1107,475,o),
(1107,402,qs),
(1107,86,l),
(843,86,l),
(843,-30,ls),
(843,-75,o),
(907,-135,o),
(965,-135,qs),
(1019,-135,o),
(1086,-73,o),
(1086,-28,qs),
(1086,55,l)
);
}
);
width = 1625;
}
);
unicode = 4631;
},
{
glyphname = uni1218;
layers = (
{
layerId = "AAC8411B-1049-4A7C-8FB8-170842CEFBED";
shapes = (
{
closed = 1;
nodes = (
(445,1018,o),
(312,984,o),
(189,913,o),
(101,802,o),
(101,724,qs),
(101,282,ls),
(101,208,o),
(165,125,o),
(271,84,o),
(408,75,o),
(482,75,qs),
(545,75,o),
(670,104,o),
(772,161,o),
(835,243,o),
(835,296,qs),
(835,849,ls),
(835,915,o),
(902,986,o),
(926,986,qs),
(961,986,o),
(1002,961,o),
(1025,900,o),
(1031,800,o),
(1031,724,qs),
(1031,347,ls),
(1031,292,o),
(1053,206,o),
(1126,145,o),
(1270,114,o),
(1394,114,qs),
(1500,114,o),
(1643,145,o),
(1727,206,o),
(1764,292,o),
(1764,347,qs),
(1764,707,ls),
(1764,816,o),
(1713,943,o),
(1631,1008,o),
(1523,1025,o),
(1468,1025,qs),
(1333,1025,o),
(1286,965,q),
(1304,922,l),
(1341,976,o),
(1394,976,qs),
(1421,976,o),
(1466,954,o),
(1500,898,o),
(1519,800,o),
(1519,724,qs),
(1519,335,ls),
(1519,232,o),
(1465,151,o),
(1394,151,qs),
(1331,151,o),
(1274,234,o),
(1274,335,qs),
(1274,827,ls),
(1274,896,o),
(1218,978,o),
(1129,1019,o),
(1023,1031,o),
(973,1031,qs),
(937,1031,o),
(849,990,o),
(833,950,q),
(819,965,o),
(752,988,o),
(660,1006,o),
(548,1018,o),
(492,1018,qs)
);
},
{
closed = 1;
nodes = (
(592,318,ls),
(592,215,o),
(531,116,o),
(482,116,qs),
(410,116,o),
(347,215,o),
(347,318,qs),
(347,819,ls),
(347,845,o),
(370,902,o),
(410,950,o),
(462,982,o),
(492,982,qs),
(563,982,o),
(592,924,o),
(592,862,qs)
);
}
);
width = 1867;
}
);
unicode = 4632;
},
{
glyphname = uni1219;
layers = (
{
layerId = "AAC8411B-1049-4A7C-8FB8-170842CEFBED";
shapes = (
{
closed = 1;
nodes = (
(445,1018,o),
(312,984,o),
(189,913,o),
(101,802,o),
(101,724,qs),
(101,282,ls),
(101,208,o),
(165,125,o),
(271,84,o),
(408,75,o),
(482,75,qs),
(545,75,o),
(670,104,o),
(772,161,o),
(835,243,o),
(835,296,qs),
(835,849,ls),
(835,915,o),
(902,986,o),
(926,986,qs),
(961,986,o),
(1002,961,o),
(1025,900,o),
(1031,800,o),
(1031,724,qs),
(1031,347,ls),
(1031,292,o),
(1053,206,o),
(1126,145,o),
(1270,114,o),
(1394,114,qs),
(1500,114,o),
(1643,145,o),
(1727,206,o),
(1764,292,o),
(1764,347,qs),
(1764,707,l),
(1848,707,l),
(1848,614,ls),
(1848,555,o),
(1913,496,o),
(1972,496,qs),
(2027,496,o),
(2093,553,o),
(2093,612,qs),
(2093,711,ls),
(2093,731,o),
(2074,739,o),
(2058,739,qs),
(1764,739,l),
(1764,837,o),
(1713,950,o),
(1629,1010,o),
(1523,1025,o),
(1468,1025,qs),
(1333,1025,o),
(1286,965,q),
(1304,922,l),
(1341,976,o),
(1394,976,qs),
(1421,976,o),
(1466,954,o),
(1500,898,o),
(1519,800,o),
(1519,724,qs),
(1519,335,ls),
(1519,232,o),
(1465,151,o),
(1394,151,qs),
(1331,151,o),
(1274,234,o),
(1274,335,qs),
(1274,827,ls),
(1274,896,o),
(1218,978,o),
(1129,1019,o),
(1023,1031,o),
(973,1031,qs),
(937,1031,o),
(849,990,o),
(833,950,q),
(819,965,o),
(752,988,o),
(660,1006,o),
(548,1018,o),
(492,1018,qs)
);
},
{
closed = 1;
nodes = (
(592,318,ls),
(592,215,o),
(531,116,o),
(482,116,qs),
(410,116,o),
(347,215,o),
(347,318,qs),
(347,819,ls),
(347,845,o),
(370,902,o),
(410,950,o),
(462,982,o),
(492,982,qs),
(563,982,o),
(592,924,o),
(592,862,qs)
);
}
);
width = 2097;
}
);
unicode = 4633;
},
{
glyphname = uni121A;
layers = (
{
layerId = "AAC8411B-1049-4A7C-8FB8-170842CEFBED";
shapes = (
{
closed = 1;
nodes = (
(1749,-11,l),
(1749,-120,l),
(1913,-120,ls),
(1949,-120,o),
(2019,-53,o),
(2019,4,qs),
(2019,34,o),
(2000,78,o),
(1968,110,o),
(1931,125,o),
(1913,125,qs),
(1749,125,l),
(1749,17,l),
(1715,17,ls),
(1682,17,o),
(1661,60,o),
(1661,131,qs),
(1661,974,ls),
(1661,1082,o),
(1609,1208,o),
(1527,1272,o),
(1420,1290,o),
(1362,1290,qs),
(1296,1290,o),
(1235,1264,o),
(1210,1231,q),
(1227,1190,l),
(1247,1214,o),
(1282,1241,o),
(1311,1241,qs),
(1337,1241,o),
(1375,1219,o),
(1401,1165,o),
(1416,1066,o),
(1416,990,qs),
(1416,757,ls),
(1416,653,o),
(1378,570,o),
(1311,570,qs),
(1247,570,o),
(1197,651,o),
(1197,757,qs),
(1197,1094,ls),
(1197,1162,o),
(1141,1242,o),
(1053,1284,o),
(945,1296,o),
(896,1296,qs),
(862,1296,o),
(795,1259,o),
(780,1218,q),
(769,1231,o),
(707,1255,o),
(621,1272,o),
(516,1282,o),
(458,1282,qs),
(412,1282,o),
(290,1249,o),
(178,1178,o),
(101,1066,o),
(101,988,qs),
(101,733,ls),
(101,659,o),
(155,576,o),
(247,535,o),
(374,527,o),
(449,527,qs),
(512,527,o),
(631,555,o),
(726,612,o),
(782,694,o),
(782,749,qs),
(782,1113,ls),
(782,1182,o),
(833,1251,o),
(859,1251,qs),
(894,1251,o),
(933,1227,o),
(950,1167,o),
(954,1066,o),
(954,990,qs),
(954,769,ls),
(954,713,o),
(973,625,o),
(1043,565,o),
(1186,533,o),
(1311,533,qs),
(1341,533,o),
(1392,535,o),
(1416,537,q),
(1416,98,ls),
(1416,43,o),
(1487,-11,o),
(1539,-11,qs)
);
},
{
closed = 1;
nodes = (
(539,769,ls),
(539,666,o),
(498,567,o),
(449,567,qs),
(414,567,o),
(372,592,o),
(351,643,o),
(347,720,o),
(347,769,qs),
(347,1085,ls),
(347,1111,o),
(359,1169,o),
(384,1216,o),
(427,1247,o),
(458,1247,qs),
(509,1247,o),
(539,1192,o),
(539,1128,qs)
);
}
);
width = 2027;
}
);
unicode = 4634;
},
{
glyphname = uni121B;
layers = (
{
layerId = "AAC8411B-1049-4A7C-8FB8-170842CEFBED";
shapes = (
{
closed = 1;
nodes = (
(1631,-28,o),
(1696,47,o),
(1696,122,qs),
(1696,974,ls),
(1696,1082,o),
(1644,1208,o),
(1562,1272,o),
(1455,1290,o),
(1399,1290,qs),
(1331,1290,o),
(1264,1264,o),
(1239,1231,q),
(1253,1190,l),
(1276,1214,o),
(1319,1241,o),
(1347,1241,qs),
(1373,1241,o),
(1412,1219,o),
(1437,1165,o),
(1451,1066,o),
(1451,990,qs),
(1451,757,ls),
(1451,653,o),
(1414,570,o),
(1347,570,qs),
(1284,570,o),
(1227,651,o),
(1227,757,qs),
(1227,1094,ls),
(1227,1167,o),
(1167,1247,o),
(1074,1286,o),
(969,1296,o),
(924,1296,qs),
(892,1296,o),
(810,1259,o),
(792,1218,q),
(780,1231,o),
(720,1255,o),
(634,1272,o),
(527,1282,o),
(471,1282,qs),
(423,1282,o),
(296,1249,o),
(182,1178,o),
(101,1066,o),
(101,988,qs),
(101,743,ls),
(101,668,o),
(157,586,o),
(255,545,o),
(386,535,o),
(460,535,qs),
(526,535,o),
(645,565,o),
(737,623,o),
(794,705,o),
(794,759,qs),
(794,1113,ls),
(794,1182,o),
(861,1251,o),
(888,1251,qs),
(922,1251,o),
(961,1227,o),
(978,1167,o),
(982,1066,o),
(982,990,qs),
(982,769,ls),
(982,713,o),
(1004,625,o),
(1078,565,o),
(1223,533,o),
(1347,533,qs),
(1375,533,o),
(1429,535,o),
(1451,537,q),
(1451,122,ls),
(1451,-28,o),
(1572,-28,qs)
);
},
{
closed = 1;
nodes = (
(550,778,ls),
(550,677,o),
(509,572,o),
(460,572,qs),
(386,572,o),
(345,679,o),
(345,778,qs),
(345,1085,ls),
(345,1111,o),
(363,1169,o),
(394,1216,o),
(441,1247,o),
(471,1247,qs),
(524,1247,o),
(550,1192,o),
(550,1128,qs)
);
}
);
width = 1800;
}
);
unicode = 4635;
},
{
glyphname = uni121C;
layers = (
{
layerId = "AAC8411B-1049-4A7C-8FB8-170842CEFBED";
shapes = (
{
closed = 1;
nodes = (
(1696,974,ls),
(1696,1082,o),
(1644,1208,o),
(1562,1272,o),
(1455,1290,o),
(1399,1290,qs),
(1331,1290,o),
(1264,1264,o),
(1239,1231,q),
(1253,1190,l),
(1276,1214,o),
(1319,1241,o),
(1347,1241,qs),
(1373,1241,o),
(1412,1219,o),
(1437,1165,o),
(1451,1066,o),
(1451,990,qs),
(1451,757,ls),
(1451,653,o),
(1414,570,o),
(1347,570,qs),
(1284,570,o),
(1227,651,o),
(1227,757,qs),
(1227,1094,ls),
(1227,1167,o),
(1167,1247,o),
(1074,1286,o),
(969,1296,o),
(924,1296,qs),
(892,1296,o),
(810,1259,o),
(792,1218,q),
(780,1231,o),
(720,1255,o),
(634,1272,o),
(527,1282,o),
(471,1282,qs),
(423,1282,o),
(296,1249,o),
(182,1178,o),
(101,1066,o),
(101,988,qs),
(101,739,ls),
(101,664,o),
(157,582,o),
(255,541,o),
(386,531,o),
(460,531,qs),
(526,531,o),
(645,561,o),
(737,619,o),
(794,702,o),
(794,754,qs),
(794,1113,ls),
(794,1182,o),
(861,1251,o),
(888,1251,qs),
(922,1251,o),
(961,1227,o),
(978,1167,o),
(982,1066,o),
(982,990,qs),
(982,769,ls),
(982,713,o),
(1004,625,o),
(1078,565,o),
(1223,533,o),
(1347,533,qs),
(1375,533,o),
(1429,535,o),
(1451,537,q),
(1451,147,ls),
(1451,51,o),
(1519,-26,o),
(1620,-26,qs),
(1778,-26,ls),
(1848,-26,o),
(1951,-10,o),
(2017,35,o),
(2048,116,o),
(2048,178,qs),
(2048,273,o),
(2003,374,o),
(1921,421,o),
(1809,430,o),
(1745,430,q),
(1745,398,l),
(1786,398,o),
(1837,376,o),
(1865,325,o),
(1872,241,o),
(1872,178,qs),
(1872,84,o),
(1835,-4,o),
(1778,-4,qs),
(1733,-4,o),
(1696,100,o),
(1696,200,qs)
);
},
{
closed = 1;
nodes = (
(550,774,ls),
(550,672,o),
(509,572,o),
(460,572,qs),
(386,572,o),
(345,675,o),
(345,774,qs),
(345,1085,ls),
(345,1111,o),
(363,1169,o),
(394,1216,o),
(441,1247,o),
(471,1247,qs),
(524,1247,o),
(550,1192,o),
(550,1128,qs)
);
}
);
width = 2052;
}
);
unicode = 4636;
},
{
glyphname = uni121D;
layers = (
{
layerId = "AAC8411B-1049-4A7C-8FB8-170842CEFBED";
shapes = (
{
closed = 1;
nodes = (
(357,185,ls),
(357,239,o),
(384,300,o),
(432,327,o),
(494,331,o),
(529,331,qs),
(612,331,o),
(716,391,o),
(774,490,o),
(795,617,o),
(795,688,qs),
(795,1113,ls),
(795,1149,o),
(816,1199,o),
(843,1233,o),
(876,1251,o),
(888,1251,qs),
(922,1251,o),
(961,1227,o),
(980,1167,o),
(984,1066,o),
(984,990,qs),
(984,769,ls),
(984,713,o),
(1004,625,o),
(1078,565,o),
(1223,533,o),
(1349,533,qs),
(1373,533,o),
(1487,553,o),
(1607,604,o),
(1698,692,o),
(1698,761,qs),
(1698,995,ls),
(1698,1106,o),
(1646,1225,o),
(1564,1280,o),
(1457,1290,o),
(1399,1290,qs),
(1333,1290,o),
(1266,1264,o),
(1239,1231,q),
(1255,1190,l),
(1276,1214,o),
(1319,1241,o),
(1349,1241,qs),
(1375,1241,o),
(1412,1219,o),
(1439,1165,o),
(1453,1066,o),
(1453,990,qs),
(1453,757,ls),
(1453,653,o),
(1416,570,o),
(1349,570,qs),
(1284,570,o),
(1229,651,o),
(1229,757,qs),
(1229,1094,ls),
(1229,1167,o),
(1169,1247,o),
(1076,1286,o),
(971,1296,o),
(924,1296,qs),
(892,1296,o),
(810,1259,o),
(794,1218,q),
(782,1231,o),
(722,1255,o),
(636,1272,o),
(529,1282,o),
(473,1282,qs),
(425,1282,o),
(296,1249,o),
(182,1178,o),
(101,1066,o),
(101,988,qs),
(101,767,ls),
(101,692,o),
(159,610,o),
(257,569,o),
(386,561,o),
(460,561,qs),
(498,561,o),
(526,563,o),
(533,565,q),
(533,512,o),
(484,441,o),
(404,398,o),
(305,380,o),
(257,380,qs),
(185,380,o),
(112,284,o),
(112,210,qs),
(112,122,ls),
(112,35,o),
(176,-26,o),
(237,-26,qs),
(298,-26,o),
(357,37,o),
(357,125,qs)
);
},
{
closed = 1;
nodes = (
(553,795,ls),
(553,694,o),
(512,594,o),
(460,594,qs),
(389,594,o),
(347,696,o),
(347,795,qs),
(347,1085,ls),
(347,1111,o),
(365,1169,o),
(396,1216,o),
(443,1247,o),
(473,1247,qs),
(526,1247,o),
(553,1192,o),
(553,1128,qs)
);
}
);
width = 1801;
}
);
unicode = 4637;
},
{
glyphname = uni121E;
layers = (
{
layerId = "AAC8411B-1049-4A7C-8FB8-170842CEFBED";
shapes = (
{
closed = 1;
nodes = (
(795,1113,ls),
(795,1149,o),
(816,1199,o),
(843,1233,o),
(876,1251,o),
(888,1251,qs),
(922,1251,o),
(961,1227,o),
(980,1167,o),
(984,1066,o),
(984,990,qs),
(984,769,ls),
(984,713,o),
(1004,625,o),
(1078,565,o),
(1223,533,o),
(1349,533,qs),
(1373,533,o),
(1487,553,o),
(1607,604,o),
(1698,692,o),
(1698,761,qs),
(1698,995,ls),
(1698,1106,o),
(1646,1225,o),
(1564,1280,o),
(1457,1290,o),
(1399,1290,qs),
(1333,1290,o),
(1266,1264,o),
(1239,1231,q),
(1255,1190,l),
(1276,1214,o),
(1319,1241,o),
(1349,1241,qs),
(1375,1241,o),
(1412,1219,o),
(1439,1165,o),
(1453,1066,o),
(1453,990,qs),
(1453,757,ls),
(1453,653,o),
(1416,570,o),
(1349,570,qs),
(1284,570,o),
(1229,651,o),
(1229,757,qs),
(1229,1094,ls),
(1229,1167,o),
(1169,1247,o),
(1076,1286,o),
(971,1296,o),
(924,1296,qs),
(892,1296,o),
(810,1259,o),
(794,1218,q),
(782,1231,o),
(722,1255,o),
(636,1272,o),
(529,1282,o),
(473,1282,qs),
(425,1282,o),
(296,1249,o),
(182,1178,o),
(101,1066,o),
(101,988,qs),
(101,767,ls),
(101,692,o),
(159,610,o),
(257,569,o),
(386,561,o),
(460,561,qs),
(553,561,l),
(553,116,ls),
(553,30,o),
(615,-30,o),
(677,-30,qs),
(737,-30,o),
(795,30,o),
(795,116,qs)
);
},
{
closed = 1;
nodes = (
(553,795,ls),
(553,694,o),
(512,594,o),
(460,594,qs),
(389,594,o),
(347,696,o),
(347,795,qs),
(347,1085,ls),
(347,1111,o),
(365,1169,o),
(396,1216,o),
(443,1247,o),
(473,1247,qs),
(526,1247,o),
(553,1192,o),
(553,1128,qs)
);
}
);
width = 1801;
}
);
unicode = 4638;
},
{
glyphname = uni121F;
layers = (
{
layerId = "AAC8411B-1049-4A7C-8FB8-170842CEFBED";
shapes = (
{
closed = 1;
nodes = (
(1721,106,l),
(1721,24,ls),
(1721,-19,o),
(1788,-84,o),
(1843,-84,qs),
(1900,-84,o),
(1964,-19,o),
(1964,22,qs),
(1964,137,l),
(1696,137,l),
(1696,974,ls),
(1696,1082,o),
(1644,1208,o),
(1562,1272,o),
(1455,1290,o),
(1399,1290,qs),
(1331,1290,o),
(1264,1264,o),
(1239,1231,q),
(1253,1190,l),
(1276,1214,o),
(1319,1241,o),
(1347,1241,qs),
(1373,1241,o),
(1412,1219,o),
(1437,1165,o),
(1451,1066,o),
(1451,990,qs),
(1451,757,ls),
(1451,653,o),
(1414,570,o),
(1347,570,qs),
(1284,570,o),
(1227,651,o),
(1227,757,qs),
(1227,1094,ls),
(1227,1167,o),
(1167,1247,o),
(1074,1286,o),
(969,1296,o),
(924,1296,qs),
(892,1296,o),
(810,1259,o),
(792,1218,q),
(780,1231,o),
(720,1255,o),
(634,1272,o),
(527,1282,o),
(471,1282,qs),
(423,1282,o),
(296,1249,o),
(182,1178,o),
(101,1066,o),
(101,988,qs),
(101,743,ls),
(101,668,o),
(157,586,o),
(255,545,o),
(386,535,o),
(460,535,qs),
(526,535,o),
(645,565,o),
(737,623,o),
(794,705,o),
(794,759,qs),
(794,1113,ls),
(794,1182,o),
(861,1251,o),
(888,1251,qs),
(922,1251,o),
(961,1227,o),
(978,1167,o),
(982,1066,o),
(982,990,qs),
(982,769,ls),
(982,713,o),
(1004,625,o),
(1078,565,o),
(1223,533,o),
(1347,533,qs),
(1375,533,o),
(1429,535,o),
(1451,537,q),
(1451,137,l),
(1171,137,l),
(1171,22,ls),
(1171,-24,o),
(1235,-84,o),
(1292,-84,qs),
(1347,-84,o),
(1414,-22,o),
(1414,24,qs),
(1414,106,l)
);
},
{
closed = 1;
nodes = (
(550,778,ls),
(550,677,o),
(509,572,o),
(460,572,qs),
(386,572,o),
(345,679,o),
(345,778,qs),
(345,1085,ls),
(345,1111,o),
(363,1169,o),
(394,1216,o),
(441,1247,o),
(471,1247,qs),
(524,1247,o),
(550,1192,o),
(550,1128,qs)
);
}
);
width = 1979;
}
);
unicode = 4639;
},
{
glyphname = uni1220;
layers = (
{
layerId = "AAC8411B-1049-4A7C-8FB8-170842CEFBED";
shapes = (
{
closed = 1;
nodes = (
(101,974,ls),
(101,1070,o),
(174,1147,o),
(235,1147,qs),
(292,1147,o),
(347,1070,o),
(347,974,qs),
(347,333,ls),
(347,271,o),
(415,180,o),
(468,180,qs),
(537,180,o),
(600,357,o),
(600,529,qs),
(600,1004,ls),
(600,1104,o),
(659,1176,o),
(720,1176,qs),
(776,1176,o),
(843,1104,o),
(843,1004,qs),
(843,512,ls),
(843,439,o),
(924,357,o),
(994,357,qs),
(1006,357,o),
(1045,370,o),
(1080,421,o),
(1106,522,o),
(1106,606,qs),
(1106,1004,ls),
(1106,1104,o),
(1176,1178,o),
(1229,1178,qs),
(1284,1178,o),
(1351,1104,o),
(1351,1004,qs),
(1351,724,ls),
(1351,604,o),
(1290,449,o),
(1190,357,o),
(1061,322,o),
(992,322,qs),
(947,322,o),
(853,361,o),
(843,408,q),
(825,320,o),
(739,215,o),
(619,163,o),
(473,149,o),
(396,149,qs),
(359,149,o),
(257,163,o),
(167,213,o),
(101,308,o),
(101,389,qs)
);
}
);
width = 1453;
}
);
unicode = 4640;
},
{
glyphname = uni1221;
layers = (
{
layerId = "AAC8411B-1049-4A7C-8FB8-170842CEFBED";
shapes = (
{
closed = 1;
nodes = (
(1427,800,l),
(1427,707,ls),
(1427,649,o),
(1492,590,o),
(1551,590,qs),
(1605,590,o),
(1670,647,o),
(1670,705,qs),
(1670,833,l),
(1351,833,l),
(1351,1004,ls),
(1351,1104,o),
(1284,1178,o),
(1229,1178,qs),
(1176,1178,o),
(1106,1104,o),
(1106,1004,qs),
(1106,606,ls),
(1106,522,o),
(1080,421,o),
(1045,370,o),
(1006,357,o),
(994,357,qs),
(924,357,o),
(843,439,o),
(843,512,qs),
(843,1004,ls),
(843,1104,o),
(776,1176,o),
(720,1176,qs),
(659,1176,o),
(600,1104,o),
(600,1004,qs),
(600,529,ls),
(600,357,o),
(537,180,o),
(468,180,qs),
(415,180,o),
(347,271,o),
(347,333,qs),
(347,974,ls),
(347,1070,o),
(292,1147,o),
(235,1147,qs),
(174,1147,o),
(101,1070,o),
(101,974,qs),
(101,389,ls),
(101,308,o),
(167,213,o),
(257,163,o),
(359,149,o),
(396,149,qs),
(473,149,o),
(619,163,o),
(739,215,o),
(825,320,o),
(843,408,q),
(853,361,o),
(947,322,o),
(992,322,qs),
(1061,322,o),
(1190,357,o),
(1290,449,o),
(1351,604,o),
(1351,724,qs),
(1351,800,l)
);
}
);
width = 1686;
}
);
unicode = 4641;
},
{
glyphname = uni1222;
layers = (
{
layerId = "AAC8411B-1049-4A7C-8FB8-170842CEFBED";
shapes = (
{
closed = 1;
nodes = (
(1392,-13,l),
(1392,-122,l),
(1575,-122,ls),
(1609,-122,o),
(1680,-55,o),
(1680,2,qs),
(1680,32,o),
(1661,77,o),
(1629,108,o),
(1592,123,o),
(1575,123,qs),
(1392,123,l),
(1392,17,l),
(1349,17,ls),
(1315,17,o),
(1292,58,o),
(1292,129,qs),
(1292,1119,ls),
(1292,1219,o),
(1229,1292,o),
(1171,1292,qs),
(1119,1292,o),
(1047,1218,o),
(1047,1119,qs),
(1047,827,ls),
(1047,780,o),
(1023,720,o),
(988,688,o),
(950,677,o),
(937,677,qs),
(884,677,o),
(821,737,o),
(812,765,q),
(812,1119,ls),
(812,1218,o),
(745,1290,o),
(690,1290,qs),
(627,1290,o),
(569,1218,o),
(569,1119,qs),
(569,851,ls),
(569,765,o),
(559,657,o),
(533,596,o),
(490,572,o),
(457,572,qs),
(406,572,o),
(347,660,o),
(347,726,qs),
(347,1088,ls),
(347,1188,o),
(292,1263,o),
(235,1263,qs),
(174,1263,o),
(101,1188,o),
(101,1088,qs),
(101,780,ls),
(101,700,o),
(167,604,o),
(257,555,o),
(359,539,o),
(396,539,qs),
(468,539,o),
(610,563,o),
(724,606,o),
(802,664,o),
(812,698,q),
(825,675,o),
(888,641,o),
(939,641,qs),
(965,641,o),
(1021,651,o),
(1047,659,q),
(1047,96,ls),
(1047,41,o),
(1119,-13,o),
(1171,-13,qs)
);
}
);
width = 1691;
}
);
unicode = 4642;
},
{
glyphname = uni1223;
layers = (
{
layerId = "AAC8411B-1049-4A7C-8FB8-170842CEFBED";
shapes = (
{
closed = 1;
nodes = (
(1292,-32,o),
(1292,120,qs),
(1292,1119,ls),
(1292,1219,o),
(1229,1292,o),
(1171,1292,qs),
(1119,1292,o),
(1047,1218,o),
(1047,1119,qs),
(1047,827,ls),
(1047,780,o),
(1023,720,o),
(988,688,o),
(950,677,o),
(937,677,qs),
(884,677,o),
(821,737,o),
(812,765,q),
(812,1119,ls),
(812,1218,o),
(745,1290,o),
(690,1290,qs),
(627,1290,o),
(569,1218,o),
(569,1119,qs),
(569,851,ls),
(569,765,o),
(559,657,o),
(533,596,o),
(490,572,o),
(457,572,qs),
(406,572,o),
(347,660,o),
(347,726,qs),
(347,1088,ls),
(347,1188,o),
(292,1263,o),
(235,1263,qs),
(174,1263,o),
(101,1188,o),
(101,1088,qs),
(101,780,ls),
(101,700,o),
(167,604,o),
(257,555,o),
(359,539,o),
(396,539,qs),
(468,539,o),
(610,563,o),
(724,606,o),
(802,664,o),
(812,698,q),
(825,675,o),
(888,641,o),
(939,641,qs),
(965,641,o),
(1021,651,o),
(1047,659,q),
(1047,118,ls),
(1047,35,o),
(1113,-32,o),
(1173,-32,qs)
);
}
);
width = 1396;
}
);
unicode = 4643;
},
{
glyphname = uni1224;
layers = (
{
layerId = "AAC8411B-1049-4A7C-8FB8-170842CEFBED";
shapes = (
{
closed = 1;
nodes = (
(1292,1119,ls),
(1292,1219,o),
(1229,1292,o),
(1171,1292,qs),
(1119,1292,o),
(1047,1218,o),
(1047,1119,qs),
(1047,827,ls),
(1047,780,o),
(1023,720,o),
(988,688,o),
(950,677,o),
(937,677,qs),
(884,677,o),
(821,737,o),
(812,765,q),
(812,1119,ls),
(812,1218,o),
(745,1290,o),
(690,1290,qs),
(627,1290,o),
(569,1218,o),
(569,1119,qs),
(569,851,ls),
(569,765,o),
(559,657,o),
(533,596,o),
(490,572,o),
(457,572,qs),
(406,572,o),
(347,660,o),
(347,726,qs),
(347,1088,ls),
(347,1188,o),
(292,1263,o),
(235,1263,qs),
(174,1263,o),
(101,1188,o),
(101,1088,qs),
(101,780,ls),
(101,700,o),
(167,604,o),
(257,555,o),
(359,539,o),
(396,539,qs),
(468,539,o),
(610,563,o),
(724,606,o),
(802,664,o),
(812,698,q),
(825,675,o),
(888,641,o),
(939,641,qs),
(965,641,o),
(1021,651,o),
(1047,659,q),
(1047,139,ls),
(1047,45,o),
(1117,-32,o),
(1218,-32,qs),
(1375,-32,ls),
(1446,-32,o),
(1549,-15,o),
(1614,30,o),
(1644,110,o),
(1644,174,qs),
(1644,267,o),
(1598,369,o),
(1517,419,o),
(1407,430,o),
(1343,430,q),
(1343,400,l),
(1425,400,o),
(1472,292,o),
(1472,174,qs),
(1472,80,o),
(1433,-10,o),
(1375,-10,qs),
(1330,-10,o),
(1292,94,o),
(1292,194,qs)
);
}
);
width = 1659;
}
);
unicode = 4644;
},
{
glyphname = uni1225;
layers = (
{
layerId = "AAC8411B-1049-4A7C-8FB8-170842CEFBED";
shapes = (
{
closed = 1;
nodes = (
(347,1143,ls),
(347,1292,o),
(234,1292,qs),
(172,1292,o),
(101,1225,o),
(101,1131,qs),
(101,118,ls),
(101,35,o),
(168,-32,o),
(230,-32,qs),
(284,-32,o),
(347,43,o),
(347,120,qs),
(347,659,l),
(376,608,o),
(464,569,o),
(514,569,qs),
(565,569,o),
(672,580,o),
(771,612,o),
(849,668,o),
(870,716,q),
(881,684,o),
(956,653,o),
(1002,653,qs),
(1070,653,o),
(1199,682,o),
(1300,752,o),
(1360,870,o),
(1360,958,qs),
(1360,1158,l),
(1351,1294,o),
(1237,1294,qs),
(1184,1294,o),
(1115,1229,o),
(1115,1135,qs),
(1115,861,ls),
(1115,804,o),
(1092,733,o),
(1057,696,o),
(1018,684,o),
(1002,684,qs),
(947,684,o),
(870,743,o),
(870,794,qs),
(870,1145,ls),
(870,1294,o),
(752,1294,qs),
(692,1294,o),
(625,1225,o),
(625,1135,qs),
(625,861,ls),
(625,794,o),
(604,704,o),
(569,647,o),
(527,621,o),
(507,621,qs),
(453,621,o),
(378,684,o),
(347,733,q)
);
}
);
width = 1465;
}
);
unicode = 4645;
},
{
glyphname = uni1226;
layers = (
{
layerId = "AAC8411B-1049-4A7C-8FB8-170842CEFBED";
shapes = (
{
closed = 1;
nodes = (
(406,643,o),
(347,729,o),
(347,794,qs),
(347,1102,ls),
(347,1196,o),
(292,1272,o),
(235,1272,qs),
(174,1272,o),
(101,1196,o),
(101,1102,qs),
(101,849,ls),
(101,769,o),
(178,666,o),
(286,612,o),
(410,592,o),
(457,592,qs),
(496,592,o),
(574,617,o),
(608,627,q),
(608,118,ls),
(608,35,o),
(670,-32,o),
(731,-32,qs),
(786,-32,o),
(851,43,o),
(851,120,qs),
(851,679,l),
(894,608,o),
(997,608,qs),
(1057,608,o),
(1182,637,o),
(1288,692,o),
(1354,776,o),
(1354,833,qs),
(1354,1145,ls),
(1354,1294,o),
(1237,1294,qs),
(1176,1294,o),
(1109,1225,o),
(1109,1135,qs),
(1109,900,ls),
(1109,833,o),
(1085,743,o),
(1049,686,o),
(1008,660,o),
(992,660,qs),
(947,660,o),
(881,700,o),
(851,739,q),
(851,1143,ls),
(851,1292,o),
(735,1292,qs),
(675,1292,o),
(608,1225,o),
(608,1131,qs),
(608,675,l),
(572,659,o),
(488,643,o),
(457,643,qs)
);
}
);
width = 1457;
}
);
unicode = 4646;
},
{
glyphname = uni1227;
layers = (
{
layerId = "AAC8411B-1049-4A7C-8FB8-170842CEFBED";
shapes = (
{
closed = 1;
nodes = (
(1311,86,l),
(1311,4,ls),
(1311,-39,o),
(1378,-104,o),
(1433,-104,qs),
(1489,-104,o),
(1554,-39,o),
(1554,2,qs),
(1554,118,l),
(1292,118,l),
(1292,1119,ls),
(1292,1219,o),
(1229,1292,o),
(1171,1292,qs),
(1119,1292,o),
(1047,1218,o),
(1047,1119,qs),
(1047,827,ls),
(1047,780,o),
(1023,720,o),
(988,688,o),
(950,677,o),
(937,677,qs),
(884,677,o),
(821,737,o),
(812,765,q),
(812,1119,ls),
(812,1218,o),
(745,1290,o),
(690,1290,qs),
(627,1290,o),
(569,1218,o),
(569,1119,qs),
(569,851,ls),
(569,765,o),
(559,657,o),
(533,596,o),
(490,572,o),
(457,572,qs),
(406,572,o),
(347,660,o),
(347,726,qs),
(347,1088,ls),
(347,1188,o),
(292,1263,o),
(235,1263,qs),
(174,1263,o),
(101,1188,o),
(101,1088,qs),
(101,780,ls),
(101,700,o),
(167,604,o),
(257,555,o),
(359,539,o),
(396,539,qs),
(468,539,o),
(610,563,o),
(724,606,o),
(802,664,o),
(812,698,q),
(825,675,o),
(888,641,o),
(939,641,qs),
(965,641,o),
(1021,651,o),
(1047,659,q),
(1047,118,l),
(776,118,l),
(776,2,ls),
(776,-43,o),
(841,-104,o),
(898,-104,qs),
(952,-104,o),
(1019,-41,o),
(1019,4,qs),
(1019,86,l)
);
}
);
width = 1572;
}
);
unicode = 4647;
},
{
glyphname = uni1228;
layers = (
{
layerId = "AAC8411B-1049-4A7C-8FB8-170842CEFBED";
shapes = (
{
closed = 1;
nodes = (
(851,0,ls),
(886,0,o),
(956,67,o),
(956,123,qs),
(956,153,o),
(937,198,o),
(906,230,o),
(868,245,o),
(851,245,qs),
(686,245,l),
(686,41,l),
(457,41,ls),
(372,41,o),
(325,118,o),
(325,185,qs),
(325,341,ls),
(325,392,o),
(333,496,o),
(365,594,o),
(434,684,o),
(492,720,q),
(798,931,l),
(798,1158,ls),
(798,1233,o),
(743,1302,o),
(686,1302,qs),
(634,1302,o),
(553,1231,o),
(553,1162,qs),
(553,909,l),
(243,688,l),
(200,653,o),
(139,594,o),
(98,520,o),
(78,417,o),
(78,339,qs),
(78,168,ls),
(78,78,o),
(176,0,o),
(267,0,qs)
);
}
);
width = 992;
}
);
unicode = 4648;
},
{
glyphname = uni1229;
layers = (
{
layerId = "AAC8411B-1049-4A7C-8FB8-170842CEFBED";
shapes = (
{
closed = 1;
nodes = (
(810,1021,l),
(512,843,l),
(453,812,o),
(384,754,o),
(349,696,o),
(339,629,o),
(339,588,qs),
(339,526,o),
(351,443,o),
(372,394,o),
(406,374,o),
(430,374,qs),
(1043,374,l),
(1043,253,ls),
(1043,194,o),
(978,141,o),
(922,141,qs),
(864,141,o),
(798,196,o),
(798,255,qs),
(798,331,l),
(707,331,l),
(707,125,ls),
(707,37,o),
(651,-34,o),
(594,-34,qs),
(537,-34,o),
(466,39,o),
(466,122,qs),
(466,331,l),
(343,331,o),
(198,343,o),
(123,394,o),
(101,500,o),
(101,592,qs),
(101,702,o),
(192,819,o),
(257,857,q),
(569,997,l),
(569,1173,ls),
(569,1239,o),
(634,1302,o),
(686,1302,qs),
(741,1302,o),
(810,1241,o),
(810,1173,qs)
);
}
);
width = 1147;
}
);
unicode = 4649;
},
{
glyphname = uni122A;
layers = (
{
layerId = "AAC8411B-1049-4A7C-8FB8-170842CEFBED";
shapes = (
{
closed = 1;
nodes = (
(698,196,ls),
(698,101,o),
(649,41,o),
(586,41,qs),
(479,41,ls),
(394,41,o),
(347,118,o),
(347,185,qs),
(347,341,ls),
(347,392,o),
(355,496,o),
(386,594,o),
(455,684,o),
(514,720,q),
(819,931,l),
(819,1158,ls),
(819,1233,o),
(765,1302,o),
(707,1302,qs),
(655,1302,o),
(574,1231,o),
(574,1162,qs),
(574,909,l),
(264,688,l),
(221,653,o),
(161,594,o),
(120,520,o),
(100,417,o),
(100,339,qs),
(100,168,ls),
(100,78,o),
(198,0,o),
(288,0,qs),
(745,0,ls),
(795,0,o),
(870,11,o),
(920,53,o),
(943,133,o),
(943,204,qs),
(943,355,ls),
(943,415,o),
(874,488,o),
(778,527,o),
(679,537,o),
(647,537,q),
(590,498,l),
(627,498,o),
(672,481,o),
(692,445,o),
(698,391,o),
(698,353,qs)
);
}
);
width = 1049;
}
);
unicode = 4650;
},
{
glyphname = uni122B;
layers = (
{
layerId = "AAC8411B-1049-4A7C-8FB8-170842CEFBED";
shapes = (
{
closed = 1;
nodes = (
(688,516,ls),
(651,516,o),
(596,503,o),
(559,464,o),
(541,392,o),
(541,331,qs),
(541,178,ls),
(541,110,o),
(500,41,o),
(432,41,qs),
(374,41,o),
(337,110,o),
(337,185,qs),
(337,341,ls),
(337,392,o),
(345,496,o),
(376,594,o),
(445,684,o),
(503,720,q),
(810,931,l),
(810,1156,ls),
(810,1231,o),
(754,1300,o),
(698,1300,qs),
(645,1300,o),
(565,1229,o),
(565,1160,qs),
(565,909,l),
(255,688,l),
(212,653,o),
(151,594,o),
(110,520,o),
(90,417,o),
(90,339,qs),
(90,168,ls),
(90,78,o),
(189,0,o),
(279,0,qs),
(681,0,ls),
(724,0,o),
(757,77,o),
(757,194,qs),
(757,331,ls),
(757,389,o),
(763,451,o),
(786,481,o),
(829,486,o),
(866,486,q),
(866,369,ls),
(866,260,o),
(986,260,qs),
(1111,260,o),
(1111,367,qs),
(1111,484,ls),
(1111,503,o),
(1102,516,o),
(1076,516,qs)
);
}
);
width = 1128;
}
);
unicode = 4651;
},
{
glyphname = uni122C;
layers = (
{
layerId = "AAC8411B-1049-4A7C-8FB8-170842CEFBED";
shapes = (
{
closed = 1;
nodes = (
(735,0,ls),
(849,0,o),
(956,71,o),
(956,182,qs),
(956,325,ls),
(956,384,o),
(939,457,o),
(892,496,o),
(806,507,o),
(735,507,qs),
(668,507,o),
(584,490,o),
(535,449,o),
(518,378,o),
(518,325,qs),
(518,41,l),
(423,41,ls),
(382,41,o),
(335,60,o),
(314,98,o),
(310,151,o),
(310,185,qs),
(310,341,ls),
(310,392,o),
(318,496,o),
(349,594,o),
(417,684,o),
(477,720,q),
(782,931,l),
(782,1158,ls),
(782,1233,o),
(727,1302,o),
(670,1302,qs),
(617,1302,o),
(537,1231,o),
(537,1162,qs),
(537,909,l),
(228,688,l),
(185,653,o),
(123,594,o),
(82,520,o),
(63,417,o),
(63,339,qs),
(63,168,ls),
(63,78,o),
(161,0,o),
(251,0,qs)
);
},
{
closed = 1;
nodes = (
(800,123,ls),
(800,84,o),
(780,28,o),
(739,28,qs),
(700,28,o),
(677,86,o),
(677,125,qs),
(677,400,ls),
(677,427,o),
(700,481,o),
(739,481,qs),
(782,481,o),
(800,430,o),
(800,402,qs)
);
}
);
width = 980;
}
);
unicode = 4652;
},
{
glyphname = uni122D;
layers = (
{
layerId = "AAC8411B-1049-4A7C-8FB8-170842CEFBED";
shapes = (
{
closed = 1;
nodes = (
(841,0,ls),
(876,0,o),
(947,67,o),
(947,123,qs),
(947,153,o),
(928,198,o),
(896,230,o),
(859,245,o),
(841,245,qs),
(677,245,l),
(677,41,l),
(541,41,ls),
(473,41,o),
(394,63,o),
(357,118,o),
(347,212,o),
(347,282,qs),
(347,913,ls),
(347,1002,o),
(365,1124,o),
(408,1197,o),
(486,1231,o),
(547,1231,qs),
(670,1231,l),
(670,1109,ls),
(670,1049,o),
(747,971,o),
(810,971,qs),
(874,971,o),
(947,1047,o),
(947,1107,qs),
(947,1229,ls),
(947,1251,o),
(929,1263,o),
(909,1263,qs),
(408,1263,ls),
(312,1263,o),
(192,1244,o),
(125,1174,o),
(101,1035,o),
(101,913,qs),
(101,247,ls),
(101,159,o),
(133,60,o),
(187,11,o),
(253,0,o),
(286,0,qs)
);
}
);
width = 1008;
}
);
unicode = 4653;
},
{
glyphname = uni122E;
layers = (
{
layerId = "AAC8411B-1049-4A7C-8FB8-170842CEFBED";
shapes = (
{
closed = 1;
nodes = (
(522,1010,ls),
(522,967,o),
(539,909,o),
(588,879,o),
(679,864,o),
(749,864,qs),
(831,864,o),
(924,881,o),
(969,928,o),
(980,1014,o),
(980,1085,qs),
(980,1139,o),
(961,1210,o),
(926,1249,o),
(870,1263,o),
(835,1263,qs),
(482,1263,ls),
(343,1263,o),
(190,1244,o),
(118,1174,o),
(101,1035,o),
(101,913,qs),
(101,247,ls),
(101,159,o),
(133,60,o),
(187,11,o),
(253,0,o),
(286,0,qs),
(841,0,ls),
(876,0,o),
(947,67,o),
(947,123,qs),
(947,153,o),
(928,198,o),
(896,230,o),
(859,245,o),
(841,245,qs),
(677,245,l),
(677,41,l),
(541,41,ls),
(473,41,o),
(394,63,o),
(357,118,o),
(347,212,o),
(347,282,qs),
(347,913,ls),
(347,1002,o),
(351,1124,o),
(372,1197,o),
(414,1231,o),
(453,1231,qs),
(494,1231,l),
(522,1229,o),
(522,1194,qs)
);
},
{
closed = 1;
nodes = (
(816,1008,ls),
(816,963,o),
(792,894,o),
(749,894,qs),
(704,894,o),
(688,967,o),
(688,1010,qs),
(688,1135,ls),
(688,1171,o),
(711,1231,o),
(752,1231,qs),
(800,1231,o),
(816,1173,o),
(816,1137,qs)
);
}
);
width = 1035;
}
);
unicode = 4654;
},
{
glyphname = uni122F;
layers = (
{
layerId = "AAC8411B-1049-4A7C-8FB8-170842CEFBED";
shapes = (
{
closed = 1;
nodes = (
(851,1139,l),
(505,1139,l),
(505,1212,ls),
(505,1251,o),
(443,1306,o),
(392,1306,qs),
(339,1306,o),
(279,1251,o),
(279,1212,qs),
(279,1111,l),
(574,1111,l),
(574,909,l),
(264,688,l),
(221,653,o),
(161,594,o),
(120,520,o),
(100,417,o),
(100,339,qs),
(100,168,ls),
(100,78,o),
(198,0,o),
(288,0,qs),
(711,0,ls),
(754,0,o),
(788,77,o),
(788,194,qs),
(788,331,ls),
(788,389,o),
(794,451,o),
(817,481,o),
(861,486,o),
(898,486,q),
(898,369,ls),
(898,260,o),
(1018,260,qs),
(1143,260,o),
(1143,367,qs),
(1143,484,ls),
(1143,503,o),
(1133,516,o),
(1107,516,qs),
(720,516,ls),
(682,516,o),
(619,503,o),
(576,464,o),
(550,392,o),
(550,331,qs),
(550,178,ls),
(550,110,o),
(509,41,o),
(441,41,qs),
(384,41,o),
(347,110,o),
(347,185,qs),
(347,341,ls),
(347,392,o),
(355,496,o),
(386,594,o),
(455,684,o),
(514,720,q),
(819,931,l),
(819,1111,l),
(1080,1111,l),
(1080,1212,ls),
(1080,1249,o),
(1019,1306,o),
(967,1306,qs),
(915,1306,o),
(851,1249,o),
(851,1212,qs)
);
}
);
width = 1174;
}
);
unicode = 4655;
},
{
glyphname = uni1230;
layers = (
{
layerId = "AAC8411B-1049-4A7C-8FB8-170842CEFBED";
shapes = (
{
closed = 1;
nodes = (
(419,1006,l),
(341,990,o),
(223,937,o),
(144,841,o),
(101,688,o),
(101,572,qs),
(101,120,ls),
(101,32,o),
(165,-32,o),
(223,-32,qs),
(282,-32,o),
(347,45,o),
(347,120,qs),
(347,621,ls),
(347,821,o),
(436,988,o),
(543,988,qs),
(653,988,o),
(739,821,o),
(739,621,qs),
(739,120,ls),
(739,32,o),
(800,-32,o),
(861,-32,qs),
(917,-32,o),
(984,45,o),
(984,120,qs),
(984,572,ls),
(984,684,o),
(945,841,o),
(866,941,o),
(747,995,o),
(664,1008,q),
(664,1184,ls),
(664,1300,o),
(545,1300,qs),
(492,1300,o),
(419,1237,o),
(419,1184,qs)
);
}
);
width = 1086;
}
);
unicode = 4656;
},
{
glyphname = uni1231;
layers = (
{
layerId = "AAC8411B-1049-4A7C-8FB8-170842CEFBED";
shapes = (
{
closed = 1;
nodes = (
(984,614,l),
(984,637,ls),
(984,731,o),
(943,864,o),
(861,950,o),
(741,997,o),
(664,1010,q),
(664,1186,ls),
(664,1302,o),
(543,1302,qs),
(490,1302,o),
(419,1239,o),
(419,1186,qs),
(419,1008,l),
(341,992,o),
(223,939,o),
(144,843,o),
(101,690,o),
(101,574,qs),
(101,120,ls),
(101,32,o),
(167,-32,o),
(226,-32,qs),
(347,-32,o),
(347,120,qs),
(347,623,ls),
(347,823,o),
(436,990,o),
(543,990,qs),
(653,990,o),
(739,823,o),
(739,623,qs),
(739,120,ls),
(739,32,o),
(800,-32,o),
(861,-32,qs),
(917,-32,o),
(984,45,o),
(984,120,qs),
(984,580,l),
(1055,580,l),
(1055,488,ls),
(1055,427,o),
(1124,370,o),
(1180,370,qs),
(1300,370,o),
(1300,486,qs),
(1300,614,l)
);
}
);
width = 1315;
}
);
unicode = 4657;
},
{
glyphname = uni1232;
layers = (
{
layerId = "AAC8411B-1049-4A7C-8FB8-170842CEFBED";
shapes = (
{
closed = 1;
nodes = (
(1078,-17,l),
(1078,-125,l),
(1263,-125,ls),
(1296,-125,o),
(1366,-58,o),
(1366,-2,qs),
(1366,56,o),
(1294,120,o),
(1263,120,qs),
(1078,120,l),
(1078,13,l),
(1037,13,ls),
(1004,13,o),
(984,56,o),
(984,125,qs),
(984,574,ls),
(984,686,o),
(945,843,o),
(866,943,o),
(747,997,o),
(664,1010,q),
(664,1186,ls),
(664,1302,o),
(543,1302,qs),
(490,1302,o),
(419,1239,o),
(419,1186,qs),
(419,1008,l),
(341,992,o),
(223,939,o),
(144,843,o),
(101,690,o),
(101,574,qs),
(101,114,ls),
(101,26,o),
(167,-37,o),
(226,-37,qs),
(347,-37,o),
(347,114,qs),
(347,623,ls),
(347,823,o),
(436,990,o),
(543,990,qs),
(653,990,o),
(739,823,o),
(739,623,qs),
(739,94,ls),
(739,37,o),
(812,-17,o),
(862,-17,qs)
);
}
);
width = 1382;
}
);
unicode = 4658;
},
{
glyphname = uni1233;
layers = (
{
layerId = "AAC8411B-1049-4A7C-8FB8-170842CEFBED";
shapes = (
{
closed = 1;
nodes = (
(400,1008,l),
(243,976,o),
(82,802,o),
(82,655,qs),
(82,400,ls),
(82,312,o),
(147,249,o),
(206,249,qs),
(327,249,o),
(327,400,qs),
(327,623,ls),
(327,823,o),
(415,990,o),
(524,990,qs),
(634,990,o),
(720,823,o),
(720,623,qs),
(720,125,ls),
(720,37,o),
(780,-26,o),
(841,-26,qs),
(898,-26,o),
(965,51,o),
(965,125,qs),
(965,574,ls),
(965,686,o),
(926,843,o),
(847,943,o),
(727,997,o),
(645,1010,q),
(645,1186,ls),
(645,1302,o),
(524,1302,qs),
(471,1302,o),
(400,1239,o),
(400,1186,qs)
);
}
);
width = 1070;
}
);
unicode = 4659;
},
